<svg width="80" height="41" viewBox="0 0 80 41" fill="none" xmlns="http://www.w3.org/2000/svg">
<path d="M0.569454 23V6.2H3.35345V20.456H10.9615V23H0.569454ZM18.312 23.288C17.112 23.288 16.04 23.024 15.096 22.496C14.168 21.952 13.44 21.208 12.912 20.264C12.384 19.32 12.12 18.232 12.12 17C12.12 15.768 12.376 14.68 12.888 13.736C13.416 12.792 14.144 12.056 15.072 11.528C16 10.984 17.064 10.712 18.264 10.712C19.464 10.712 20.528 10.984 21.456 11.528C22.384 12.056 23.104 12.792 23.616 13.736C24.144 14.68 24.408 15.768 24.408 17C24.408 18.232 24.152 19.32 23.64 20.264C23.128 21.208 22.408 21.952 21.48 22.496C20.552 23.024 19.496 23.288 18.312 23.288ZM18.312 20.816C18.968 20.816 19.552 20.656 20.064 20.336C20.576 20 20.976 19.552 21.264 18.992C21.552 18.416 21.696 17.752 21.696 17C21.696 16.248 21.544 15.592 21.24 15.032C20.952 14.456 20.552 14.008 20.04 13.688C19.528 13.352 18.936 13.184 18.264 13.184C17.592 13.184 17 13.344 16.488 13.664C15.976 13.984 15.576 14.432 15.288 15.008C15 15.584 14.856 16.248 14.856 17C14.856 17.752 15 18.416 15.288 18.992C15.592 19.552 16 20 16.512 20.336C17.04 20.656 17.64 20.816 18.312 20.816ZM31.8973 28.112C31.0493 28.112 30.2813 28.04 29.5933 27.896C28.9213 27.752 28.3533 27.584 27.8893 27.392C27.4253 27.2 27.0653 27.016 26.8093 26.84L27.8413 24.68C28.0653 24.792 28.3613 24.928 28.7293 25.088C29.1133 25.264 29.5613 25.416 30.0733 25.544C30.5853 25.672 31.1613 25.736 31.8013 25.736C32.4893 25.736 33.1053 25.592 33.6493 25.304C34.1933 25.032 34.6173 24.608 34.9213 24.032C35.2253 23.456 35.3773 22.72 35.3773 21.824V11H38.0653V21.752C38.0653 23.112 37.8093 24.264 37.2973 25.208C36.7853 26.168 36.0653 26.888 35.1373 27.368C34.2093 27.864 33.1293 28.112 31.8973 28.112ZM31.4893 22.76C30.4013 22.76 29.4493 22.512 28.6333 22.016C27.8333 21.52 27.2013 20.832 26.7373 19.952C26.2893 19.056 26.0653 18.024 26.0653 16.856C26.0653 15.608 26.2893 14.528 26.7373 13.616C27.2013 12.704 27.8333 11.992 28.6333 11.48C29.4493 10.968 30.4013 10.712 31.4893 10.712C32.4653 10.712 33.3133 10.968 34.0333 11.48C34.7693 11.992 35.3373 12.712 35.7373 13.64C36.1373 14.552 36.3373 15.632 36.3373 16.88C36.3373 18.064 36.1373 19.096 35.7373 19.976C35.3373 20.856 34.7693 21.544 34.0333 22.04C33.3133 22.52 32.4653 22.76 31.4893 22.76ZM32.2333 20.48C32.8413 20.48 33.3693 20.32 33.8173 20C34.2813 19.68 34.6413 19.248 34.8973 18.704C35.1533 18.144 35.2813 17.504 35.2813 16.784C35.2813 16.048 35.1533 15.408 34.8973 14.864C34.6413 14.304 34.2813 13.872 33.8173 13.568C33.3533 13.248 32.8173 13.088 32.2093 13.088C31.5693 13.088 31.0013 13.248 30.5053 13.568C30.0253 13.872 29.6413 14.304 29.3533 14.864C29.0813 15.408 28.9453 16.048 28.9453 16.784C28.9453 17.504 29.0813 18.144 29.3533 18.704C29.6413 19.248 30.0333 19.68 30.5293 20C31.0253 20.32 31.5933 20.48 32.2333 20.48ZM47.3273 23V6.2H50.1113V23H47.3273ZM53.5967 23V11H56.1167L56.2847 13.208V23H53.5967ZM61.7327 23V16.856H64.4207V23H61.7327ZM61.7327 16.856C61.7327 15.896 61.6207 15.16 61.3967 14.648C61.1887 14.12 60.8847 13.752 60.4847 13.544C60.1007 13.336 59.6447 13.232 59.1167 13.232C58.2207 13.216 57.5247 13.512 57.0287 14.12C56.5327 14.728 56.2847 15.6 56.2847 16.736H55.2767C55.2767 15.472 55.4607 14.392 55.8287 13.496C56.1967 12.584 56.7247 11.896 57.4127 11.432C58.1007 10.952 58.9167 10.712 59.8607 10.712C60.8207 10.712 61.6367 10.904 62.3087 11.288C62.9967 11.672 63.5167 12.272 63.8687 13.088C64.2367 13.888 64.4207 14.936 64.4207 16.232V16.856H61.7327Z" fill="#1C1D1C"/>
<path d="M2 38.2785H46.493" stroke="#22B573" stroke-width="4" stroke-linecap="round"/>
</svg>
