<svg width="440" height="352" viewBox="0 0 440 352" fill="none" xmlns="http://www.w3.org/2000/svg">
<path d="M200.12 49.2834C161.085 48.7536 153.974 88.0792 115.436 82.8834C72.9835 77.1605 46.5713 104.204 52.1525 139.958C57.7338 175.711 118.875 172.434 131.362 211.036C150.543 270.321 226.721 262.984 240.922 222.309C261.324 163.869 287.816 190.541 298.726 140.739C307.039 102.789 258.121 50.074 200.115 49.2855L200.12 49.2834Z" fill="#F2F2F2"/>
<path fill-rule="evenodd" clip-rule="evenodd" d="M366.236 324.327C401.111 318.396 429.489 290.263 434.108 253.351C439.756 208.222 407.75 167.059 362.62 161.411C357.899 160.82 353.222 160.641 348.625 160.847C343.649 138.958 325.453 121.488 301.891 118.54C293.871 117.536 286.038 118.316 278.792 120.571C277.839 94.1309 257.837 71.5305 230.738 68.1391C205.744 65.0113 182.575 79.2076 173.289 101.352C168.282 99.0407 162.84 97.4505 157.076 96.7292C126.99 92.964 99.5478 114.302 95.7826 144.388C95.435 147.166 95.3014 149.921 95.3688 152.637C95.1662 152.61 94.9633 152.584 94.7601 152.559C49.6306 146.911 8.46758 178.918 2.81989 224.047C-2.8278 269.176 29.1785 310.34 74.308 315.987C80.0754 316.709 85.7781 316.816 91.3501 316.359L91.326 317.277L335.196 323.666C337.482 324.151 339.807 324.544 342.168 324.839C350.106 325.833 357.921 325.661 365.442 324.458L366.232 324.479L366.236 324.327Z" fill="#FAFAFA"/>
<g opacity="0.85">
<path d="M322.251 193.512C325.684 175.906 344.147 157.678 375.333 156.139C363.143 176.024 348.792 188.6 322.251 193.512Z" fill="#D2D2D2"/>
<path d="M221.769 158.625C239.197 162.886 256.506 182.208 256.565 213.455C237.273 200.317 225.408 185.404 221.769 158.625Z" fill="#D2D2D2"/>
<path d="M308.108 207.626C328.702 182.119 314.499 152.352 314.499 152.352C303.788 167.354 299.616 186.469 308.108 207.626Z" fill="#D2D2D2"/>
<path d="M301.007 216.089C331.424 228.28 355.716 205.91 355.716 205.91C338.229 200.081 318.73 201.738 301.007 216.089Z" fill="#D2D2D2"/>
<path d="M286.597 235.145C302.398 206.413 283.136 179.604 283.136 179.604C275.235 196.234 274.496 215.822 286.597 235.145Z" fill="#D2D2D2"/>
<path d="M278.697 249.081C309.114 261.273 333.406 238.902 333.406 238.902C315.92 233.073 296.421 234.73 278.697 249.081Z" fill="#D2D2D2"/>
<path d="M267.542 256.509C261.092 224.374 229.107 216.296 229.107 216.296C233.782 234.109 245.854 249.555 267.542 256.509Z" fill="#D2D2D2"/>
<path d="M258.488 320.394C258.488 320.216 259.287 303.616 263.193 288.436C264.465 283.643 266.181 278.021 268.548 271.807C268.548 271.807 268.578 271.777 268.608 271.748C268.608 271.718 268.608 271.688 268.608 271.659C271.152 264.912 274.466 257.485 278.697 249.614C278.727 249.614 278.756 249.614 278.816 249.614C279.052 249.585 303.167 245.975 314.292 243.548C314.588 243.489 314.766 243.193 314.706 242.897C314.647 242.602 314.351 242.424 314.055 242.483C303.995 244.673 283.313 247.839 279.319 248.431C284.822 238.341 291.894 227.54 300.948 216.592C301.007 216.592 301.066 216.592 301.125 216.592C301.362 216.562 325.477 212.952 336.602 210.526C336.898 210.467 337.075 210.171 337.016 209.875C336.957 209.579 336.661 209.402 336.365 209.461C326.542 211.591 306.599 214.669 301.954 215.379C303.995 212.952 306.126 210.496 308.374 208.07C308.463 208.011 308.493 207.952 308.552 207.892C319.618 195.909 333.14 183.895 349.739 172.621C349.976 172.444 350.065 172.118 349.887 171.881C349.71 171.645 349.384 171.556 349.147 171.733C333.051 182.682 319.825 194.281 308.937 205.91C309.795 200.081 312.487 181.557 313.316 172C313.316 171.704 313.109 171.438 312.813 171.408C312.517 171.408 312.251 171.615 312.221 171.911C311.333 182.623 308.019 204.726 307.635 207.301C299.528 216.118 292.781 224.936 287.13 233.458C286.952 227.718 286.361 208.78 285.473 199.163C285.443 198.868 285.177 198.631 284.881 198.66C284.585 198.66 284.378 198.956 284.408 199.252C285.414 210.141 286.065 233.044 286.124 234.997C278.52 246.685 273.016 257.84 269.051 267.664C269.584 249.348 257.837 199.607 232.066 168.508C231.888 168.271 231.533 168.242 231.297 168.449C231.06 168.627 231.06 168.982 231.237 169.218C252.245 194.577 263.873 232.363 267.069 255.088C263.489 251.094 250.499 236.654 243.487 229.759C243.28 229.552 242.925 229.552 242.718 229.759C242.54 229.937 242.511 230.233 242.659 230.44C242.659 230.44 242.688 230.499 242.718 230.529C250.825 238.489 267.01 256.686 267.187 256.864C267.217 256.893 267.276 256.923 267.306 256.953C268.105 263.314 268.193 268.345 267.602 271.363C265.235 277.636 263.489 283.317 262.187 288.17C258.252 303.468 257.453 320.186 257.453 320.364C257.453 320.482 257.482 320.601 257.542 320.719C257.63 320.837 257.778 320.926 257.956 320.956C258.252 320.956 258.518 320.749 258.518 320.453L258.488 320.394Z" fill="#C5C5C5"/>
</g>
<path d="M104.505 256.56C102.543 246.436 91.9286 235.977 74 235.085C81.002 246.525 89.2527 253.75 104.505 256.56Z" fill="#22B573"/>
<path d="M162.26 236.512C152.248 238.965 142.303 250.071 142.258 268.023C153.341 260.463 160.164 251.9 162.26 236.512Z" fill="#22B573"/>
<path d="M112.645 264.678C100.804 250.026 108.987 232.9 108.987 232.9C115.142 241.508 117.55 252.502 112.645 264.678Z" fill="#22B573"/>
<path d="M116.725 269.539C99.2427 276.541 85.2834 263.696 85.2834 263.696C95.3404 260.351 106.535 261.288 116.725 269.539Z" fill="#22B573"/>
<path d="M124.998 280.511C115.923 264.008 126.983 248.599 126.983 248.599C131.532 258.166 131.956 269.405 124.998 280.511Z" fill="#22B573"/>
<path d="M129.547 288.517C112.065 295.519 98.1053 282.674 98.1053 282.674C108.162 279.329 119.356 280.266 129.547 288.517Z" fill="#22B573"/>
<path d="M135.97 292.776C139.671 274.311 158.068 269.651 158.068 269.651C155.37 279.886 148.435 288.762 135.97 292.776Z" fill="#22B573"/>
<path d="M141.165 329.505C141.165 329.505 140.719 319.849 138.467 311.13C137.731 308.364 136.75 305.153 135.39 301.585C135.39 301.585 135.367 301.585 135.367 301.54C135.367 301.54 135.367 301.496 135.367 301.473C133.896 297.616 132 293.334 129.57 288.807C129.547 288.807 129.525 288.807 129.503 288.807C129.369 288.807 115.499 286.711 109.099 285.306C108.921 285.261 108.831 285.105 108.854 284.927C108.898 284.771 109.054 284.659 109.233 284.681C115.008 285.93 126.894 287.759 129.191 288.093C126.024 282.295 121.966 276.096 116.77 269.785C116.748 269.785 116.703 269.785 116.681 269.785C116.547 269.785 102.677 267.688 96.2769 266.306C96.0985 266.261 96.0093 266.105 96.0316 265.927C96.0762 265.748 96.2323 265.659 96.4107 265.681C102.052 266.908 113.514 268.67 116.19 269.071C115.008 267.666 113.782 266.261 112.488 264.856C112.444 264.834 112.422 264.789 112.377 264.745C106.022 257.854 98.2392 250.963 88.6952 244.474C88.5614 244.385 88.5168 244.184 88.606 244.05C88.6952 243.916 88.8959 243.872 89.0297 243.961C98.2838 250.25 105.888 256.917 112.132 263.607C111.641 260.262 110.08 249.603 109.612 244.117C109.612 243.939 109.723 243.805 109.902 243.782C110.08 243.782 110.236 243.894 110.236 244.072C110.749 250.227 112.645 262.938 112.868 264.41C117.528 269.472 121.408 274.535 124.664 279.441C124.753 276.14 125.11 265.258 125.623 259.727C125.623 259.549 125.801 259.437 125.957 259.437C126.136 259.437 126.247 259.616 126.247 259.772C125.667 266.016 125.288 279.195 125.266 280.31C129.637 287.045 132.803 293.423 135.078 299.087C134.765 288.562 141.522 259.973 156.329 242.088C156.44 241.954 156.641 241.932 156.775 242.043C156.908 242.155 156.908 242.355 156.819 242.489C144.755 257.073 138.066 278.772 136.215 291.84C138.266 289.543 145.737 281.247 149.773 277.278C149.884 277.166 150.085 277.166 150.219 277.278C150.33 277.389 150.33 277.545 150.263 277.679C150.263 277.679 150.241 277.701 150.219 277.724C145.558 282.295 136.259 292.754 136.17 292.866C136.17 292.888 136.126 292.91 136.103 292.91C135.635 296.567 135.59 299.466 135.947 301.184C137.307 304.796 138.311 308.052 139.047 310.84C141.321 319.626 141.767 329.237 141.767 329.327C141.767 329.394 141.767 329.46 141.7 329.527C141.656 329.594 141.567 329.661 141.455 329.661C141.277 329.661 141.143 329.55 141.121 329.371L141.165 329.505Z" fill="#5D9C3D"/>
<ellipse cx="201.276" cy="329.991" rx="103.675" ry="17.0685" fill="#EFEFEF"/>
<path d="M201.403 321.483V297.042H177.829V319.09C177.829 319.09 171.289 323.088 168.609 323.807C165.929 324.521 151.404 326.716 152.83 331.544C154.256 336.372 166.052 335.659 166.052 335.659H198.188C198.188 335.659 202.866 336.015 203.222 332.799C203.474 330.511 202.171 324.668 201.397 321.489L201.403 321.483Z" fill="#1C1D1C"/>
<path d="M231.904 321.483V297.042H208.33V319.09C208.33 319.09 201.79 323.088 199.11 323.807C196.43 324.521 181.905 326.716 183.331 331.544C184.763 336.372 196.553 335.659 196.553 335.659H228.689C228.689 335.659 233.367 336.015 233.723 332.799C233.975 330.511 232.672 324.668 231.898 321.489L231.904 321.483Z" fill="#1C1D1C"/>
<path d="M238.167 167.835L235.383 298.106C235.309 301.648 232.414 304.483 228.873 304.483H211.994C208.478 304.483 205.601 301.697 205.484 298.186L201.169 167.841H238.174L238.167 167.835Z" fill="#DD9729"/>
<path d="M171.498 167.835L174.283 298.106C174.356 301.648 177.251 304.483 180.792 304.483H197.672C201.188 304.483 204.064 301.697 204.181 298.186L208.496 167.841H171.492L171.498 167.835Z" fill="#DD9729"/>
<path d="M204.445 267.448C204.169 267.448 203.947 267.233 203.935 266.956L201.292 187.134C201.28 186.851 201.501 186.617 201.784 186.605C202.048 186.599 202.3 186.814 202.312 187.097L204.956 266.919C204.968 267.202 204.747 267.435 204.464 267.448H204.445Z" fill="white"/>
<path d="M225.806 22.9945C225.837 21.9428 225.782 20.8727 225.64 19.7964C224.03 7.79148 211.89 -1.03388 198.526 0.0977375C191.187 0.718895 185.015 4.21214 181.198 9.2183C170.435 9.0215 162.53 11.7214 160.895 17.035C158.221 25.719 173.336 38.0868 194.66 44.6612C215.983 51.2295 235.432 49.5136 238.106 40.8297C239.735 35.5406 234.762 28.8801 225.806 23.0006V22.9945Z" fill="#CDAB5D"/>
<path d="M248.488 102.779L244.376 83.3572C243.534 79.3842 241.247 75.7618 237.873 73.0681C235.66 71.303 230.853 69.9808 228.019 69.1997L214.065 65.3559H188.826L174.873 69.1997C172.039 69.9808 169.427 71.303 167.214 73.0681C163.839 75.768 161.552 79.3842 160.71 83.3572L156.598 102.779H171.498V174.827H238.192V102.779H248.488Z" fill="#22B573"/>
<mask id="mask0_1_132" style="mask-type:alpha" maskUnits="userSpaceOnUse" x="154" y="66" width="93" height="110">
<path d="M246.89 103.423L242.778 84.0013C241.936 80.0283 239.649 76.4059 236.275 73.7122C234.062 71.9471 229.255 70.6249 226.421 69.8438L212.467 66H187.228L173.275 69.8438C170.441 70.6249 167.829 71.9471 165.616 73.7122C162.241 76.4121 159.954 80.0283 159.112 84.0013L155 103.423H169.9V175.471H236.594V103.423H246.89Z" fill="#22B573"/>
</mask>
<g mask="url(#mask0_1_132)">
<path d="M170 56L241.88 180.5H98.1198L170 56Z" fill="white" fill-opacity="0.16"/>
</g>
<path d="M204.907 120.707H175.199C174.67 120.707 174.178 120.467 173.846 120.061L148.785 89.1692C148.312 88.5849 148.681 87.7116 149.424 87.6501L178.727 84.9994C179.778 84.9071 180.798 85.3622 181.425 86.2048L205.779 118.966C206.314 119.686 205.804 120.707 204.907 120.707Z" fill="#312A2D"/>
<path d="M153.647 90.1841C153.647 90.6023 153.309 90.9467 152.885 90.9467C152.461 90.9467 152.123 90.6084 152.123 90.1841C152.123 89.7597 152.461 89.4215 152.885 89.4215C153.309 89.4215 153.647 89.7597 153.647 90.1841Z" fill="white"/>
<path d="M164.017 113.991C163.888 114.422 163.968 114.889 164.245 115.246L171.498 124.649V117.165L164.982 109.126C164.921 110.246 164.675 111.82 164.023 113.985L164.017 113.991Z" fill="#FFE2CC"/>
<path d="M164.017 113.991C163.888 114.422 163.968 114.889 164.245 115.246L171.498 124.649V122.601L165.161 115.018C164.755 114.551 164.908 113.739 165.105 113.155C165.523 111.919 165.726 110.75 165.812 110.153L164.982 109.126C164.921 110.246 164.675 111.82 164.023 113.985L164.017 113.991Z" fill="#3A222B"/>
<path d="M148.675 98.4374C148.963 98.0008 151.176 95.2701 151.803 94.4952C151.914 94.3599 152.049 94.2492 152.203 94.1631L158.473 90.6699C159.02 90.3624 159.708 90.4669 160.145 90.922C160.735 91.537 160.63 92.5333 159.93 93.013L155.645 95.9651C155.504 96.0635 155.387 96.1803 155.289 96.3218L153.322 99.1939L164.81 93.7941C165.443 93.4989 166.193 93.7203 166.568 94.3107L166.599 94.3599C167.011 95.018 166.802 95.8851 166.138 96.2849L156.45 102.072L168.916 96.6108C169.568 96.3279 170.324 96.5801 170.674 97.1951L170.693 97.232C171.049 97.8593 170.859 98.6588 170.256 99.0647L166.759 101.396L171.117 99.7966C171.535 99.6428 172.008 99.7904 172.266 100.153C172.586 100.602 172.475 101.223 172.021 101.537L165.486 106.051C165.031 106.365 164.816 106.918 164.909 107.466C165.075 108.444 165.081 110.405 164.017 113.979C163.888 114.409 163.968 114.877 164.245 115.233L172.113 125.436C172.832 126.365 173.656 128.88 174.215 131.396C175.039 135.086 173.305 138.979 169.888 140.609C169.162 140.953 168.504 141.137 168.037 141.021L164.909 140.227C162.315 139.569 159.419 135.59 158.602 133.038C158.602 133.038 156.825 118.917 156.463 114.219C156.506 113.856 156.407 113.493 156.186 113.204L149.953 105.092C149.836 104.938 149.75 104.76 149.707 104.569C149.424 103.376 148.386 98.8679 148.675 98.4313V98.4374Z" fill="#FFE2CC"/>
<path d="M218.393 36.5617C218.215 36.5309 218.036 36.5309 217.858 36.5432C218.116 33.954 218.104 32.2443 218.104 32.2443C218.104 31.1988 217.981 30.184 217.784 29.1877C212.984 25.9774 203.001 20.7006 190.517 21.8445C187.05 22.1643 184.677 22.4042 182.987 22.7609C181.106 25.4792 180.036 28.7265 180.036 32.2259C180.036 32.2259 179.981 33.9725 180.178 36.6047C178.463 37.0721 177.473 39.5752 177.952 42.3612C178.444 45.1902 180.27 47.2444 182.071 47.0291C183.663 52.1706 186.478 57.269 191.476 59.7905C190.424 62.8164 188.832 65.344 188.832 65.344L201.452 86.5372L214.072 65.344C214.072 65.344 211.047 60.5347 210.58 56.2542C213.033 53.5666 214.686 50.1349 215.805 46.7032C216.051 46.8569 216.315 46.9676 216.598 47.0168C218.436 47.3366 220.329 45.2517 220.827 42.3612C221.325 39.4707 220.243 36.8753 218.405 36.5555L218.393 36.5617Z" fill="#FFE2CC"/>
<path d="M216.807 43.8798C216.684 43.8798 216.567 43.8367 216.469 43.7506C216.297 43.5969 216.248 43.3447 216.352 43.1356L218.381 39.2119C218.51 38.9597 218.817 38.8613 219.069 38.9905C219.321 39.1196 219.419 39.4271 219.29 39.6793L218.178 41.8257L219.069 41.223C219.303 41.0631 219.622 41.1246 219.776 41.3583C219.936 41.592 219.874 41.9056 219.641 42.0655L217.09 43.7875C217.004 43.849 216.905 43.8736 216.807 43.8736V43.8798Z" fill="#3A222B"/>
<path d="M191.998 38.1113C191.998 39.1876 191.316 40.0609 190.474 40.0609C189.632 40.0609 188.949 39.1876 188.949 38.1113C188.949 37.0351 189.632 36.1618 190.474 36.1618C191.316 36.1618 191.998 37.0351 191.998 38.1113Z" fill="#3A222B"/>
<path d="M207.021 38.1113C207.021 39.1876 206.339 40.0609 205.497 40.0609C204.654 40.0609 203.972 39.1876 203.972 38.1113C203.972 37.0351 204.654 36.1618 205.497 36.1618C206.339 36.1618 207.021 37.0351 207.021 38.1113Z" fill="#3A222B"/>
<path d="M197.456 44.9628C197.456 44.9628 197.42 44.9628 197.401 44.9628C196.276 44.8337 195.575 44.4401 195.311 43.7943C194.912 42.8164 195.729 41.7709 195.828 41.6541C196.006 41.4388 196.325 41.4019 196.541 41.5803C196.762 41.7586 196.793 42.0784 196.614 42.2937C196.436 42.5151 196.116 43.0748 196.252 43.4069C196.362 43.6775 196.811 43.8681 197.512 43.9481C197.795 43.9788 197.991 44.231 197.96 44.5139C197.93 44.7722 197.708 44.969 197.456 44.969V44.9628Z" fill="#3A222B"/>
<path d="M186.06 34.4458C185.9 34.4458 185.74 34.3659 185.642 34.2244C185.482 33.9907 185.544 33.6771 185.771 33.5172C185.913 33.4188 189.226 31.1924 192.361 33.1604C192.6 33.308 192.668 33.6279 192.521 33.8616C192.373 34.1014 192.059 34.1691 191.82 34.0215C189.244 32.404 186.38 34.3351 186.349 34.3536C186.263 34.4151 186.158 34.4458 186.06 34.4458Z" fill="#3A222B"/>
<path d="M208.502 34.6061C208.386 34.6061 208.269 34.5692 208.17 34.4831C208.06 34.3908 205.478 32.2445 202.761 33.579C202.509 33.702 202.202 33.5975 202.079 33.3453C201.956 33.0932 202.06 32.7857 202.312 32.6627C205.632 31.0329 208.699 33.5913 208.828 33.702C209.043 33.8865 209.068 34.2063 208.884 34.4216C208.785 34.5384 208.638 34.5999 208.496 34.5999L208.502 34.6061Z" fill="#3A222B"/>
<path d="M191.56 49.4206H203.876C203.592 49.8036 203.17 50.2911 202.59 50.7676C201.352 51.7843 199.375 52.7672 196.415 52.5549C194.54 52.4194 193.24 51.4729 192.396 50.541C192.032 50.1382 191.756 49.7411 191.56 49.4206Z" fill="white" stroke="black"/>
<path d="M191.469 59.7964C190.824 61.6538 189.969 63.3266 189.41 64.3352C189.41 64.3352 195.877 69.5935 204.857 60.2761C203.056 61.0018 201.009 61.4139 198.686 61.4139C195.877 61.4139 193.498 60.8173 191.469 59.7903V59.7964Z" fill="#3A222B"/>
<path d="M246.939 102.78H229.125V113.665L207.076 106.107L205.122 103.315L201.206 97.1955L201.04 96.9003C200.641 96.1808 199.749 95.8917 199.005 96.2546L196.682 97.4538C196.608 97.3001 196.516 97.1525 196.381 97.0295L193.836 94.6371C193.449 94.2742 192.895 94.1512 192.391 94.3173L191.488 94.6186C191.285 94.6863 191.101 94.797 190.947 94.9446L188.211 97.5645C187.351 98.3886 187.455 99.7847 188.42 100.474C189.115 100.972 190.062 100.941 190.719 100.394L191.494 99.7601L200.973 112.509L203.069 113.155L232.383 135.738C234.461 137.337 237.098 138.026 239.692 137.638L240.35 137.54C243.952 137.005 246.945 134.477 248.089 131.015C248.273 130.461 248.402 129.889 248.476 129.317V129.305C248.648 128.063 246.927 102.774 246.927 102.774L246.939 102.78Z" fill="#FFE2CC"/>
<path d="M192.557 100.215C192.588 100.627 192.717 101.039 192.957 101.402C193.609 102.417 194.899 102.841 196.073 102.398L198.932 101.156C198.932 101.156 202.208 104.754 202.54 104.754L199.307 99.883L195.668 101.464C194.979 101.722 194.211 101.464 193.811 100.849C193.4 100.215 193.522 99.4095 194.027 98.9052C193.51 98.6038 192.859 98.6407 192.391 99.0282L191.5 99.76L192.109 100.578L192.551 100.215H192.557Z" fill="#3A222B"/>
<path d="M229.125 113.665L241.641 117.958L229.125 111.132V113.665Z" fill="#3A222B"/>
<path d="M185.593 66.2415L178.34 82.9389L190.578 78.64L201.44 86.549L188.82 65.3497L185.593 66.2415Z" fill="#119559"/>
<path d="M217.293 66.2415L224.546 82.9389L212.307 78.64L201.44 86.549L214.065 65.3497L217.293 66.2415Z" fill="#119559"/>
<path d="M178.149 27.2009C177.663 29.538 177.577 33.0681 178.358 38.3756C178.77 37.4839 179.391 36.8381 180.171 36.629C179.975 33.9845 180.03 32.2317 180.03 32.2317C180.03 28.7384 181.099 25.4974 182.974 22.779H182.937C181.419 23.0988 180.448 23.517 179.753 24.1751C178.813 25.0607 178.358 26.3399 178.149 27.2009Z" fill="#3A222B"/>
<path d="M217.791 29.1939C217.993 30.1841 218.104 31.205 218.104 32.2443C218.104 32.2443 218.116 33.9602 217.852 36.5494C218.03 36.5371 218.209 36.5248 218.393 36.5555C219.192 36.6908 219.831 37.2751 220.28 38.1115C220.889 35.5162 221.018 33.339 220.87 31.4817C220.723 31.3526 219.647 30.4301 217.797 29.1877L217.791 29.1939Z" fill="#3A222B"/>
<path d="M222.155 21.2787C222.069 21.2787 221.983 21.2602 221.903 21.211C216.709 18.259 210.58 15.6575 204.187 13.6833C197.321 11.5677 190.363 10.2393 184.05 9.83951C183.767 9.82106 183.558 9.58121 183.577 9.29831C183.595 9.02155 183.81 8.794 184.118 8.82475C190.504 9.23066 197.549 10.5714 204.489 12.7116C210.955 14.7042 217.151 17.3365 222.407 20.3254C222.653 20.4607 222.739 20.7744 222.597 21.0204C222.505 21.1864 222.333 21.2787 222.155 21.2787Z" fill="#3A222B"/>
<path d="M298 288.492C299.389 281.365 306.863 273.987 319.486 273.365C314.551 281.413 308.743 286.503 298 288.492Z" fill="#22B573"/>
<path d="M257.329 274.371C264.383 276.096 271.389 283.917 271.413 296.564C263.604 291.247 258.802 285.21 257.329 274.371Z" fill="#22B573"/>
<path d="M292.276 294.205C300.611 283.881 294.862 271.832 294.862 271.832C290.527 277.904 288.838 285.641 292.276 294.205Z" fill="#22B573"/>
<path d="M289.401 297.63C301.713 302.565 311.545 293.51 311.545 293.51C304.467 291.151 296.575 291.821 289.401 297.63Z" fill="#22B573"/>
<path d="M283.569 305.343C289.964 293.714 282.168 282.863 282.168 282.863C278.97 289.594 278.67 297.522 283.569 305.343Z" fill="#22B573"/>
<path d="M280.371 310.985C292.683 315.919 302.515 306.865 302.515 306.865C295.437 304.505 287.545 305.176 280.371 310.985Z" fill="#22B573"/>
<path d="M275.856 313.991C273.245 300.984 260.299 297.714 260.299 297.714C262.191 304.924 267.077 311.176 275.856 313.991Z" fill="#22B573"/>
<path d="M272.191 339.849C272.191 339.777 272.515 333.058 274.096 326.914C274.611 324.974 275.305 322.698 276.263 320.183C276.263 320.183 276.275 320.171 276.287 320.159C276.287 320.147 276.287 320.135 276.287 320.123C277.317 317.392 278.659 314.386 280.371 311.2C280.383 311.2 280.395 311.2 280.419 311.2C280.515 311.188 290.276 309.727 294.779 308.745C294.898 308.721 294.97 308.601 294.946 308.481C294.922 308.361 294.803 308.29 294.683 308.314C290.611 309.2 282.239 310.481 280.623 310.721C282.85 306.637 285.713 302.265 289.377 297.834C289.401 297.834 289.425 297.834 289.449 297.834C289.545 297.822 299.306 296.361 303.809 295.378C303.929 295.355 304 295.235 303.976 295.115C303.953 294.995 303.833 294.923 303.713 294.947C299.737 295.81 291.665 297.055 289.785 297.343C290.611 296.361 291.473 295.366 292.383 294.384C292.419 294.36 292.431 294.336 292.455 294.313C296.934 289.462 302.408 284.599 309.126 280.036C309.222 279.964 309.258 279.832 309.186 279.737C309.114 279.641 308.983 279.605 308.887 279.677C302.372 284.108 297.018 288.803 292.611 293.51C292.958 291.151 294.048 283.653 294.383 279.784C294.383 279.665 294.3 279.557 294.18 279.545C294.06 279.545 293.952 279.629 293.94 279.749C293.581 284.084 292.24 293.031 292.084 294.073C288.802 297.642 286.072 301.211 283.784 304.661C283.713 302.337 283.473 294.672 283.114 290.779C283.102 290.66 282.994 290.564 282.874 290.576C282.754 290.576 282.671 290.695 282.683 290.815C283.09 295.223 283.353 304.493 283.377 305.283C280.299 310.014 278.072 314.53 276.467 318.506C276.682 311.092 271.928 290.959 261.496 278.371C261.425 278.275 261.281 278.263 261.185 278.347C261.089 278.419 261.089 278.563 261.161 278.659C269.664 288.923 274.371 304.217 275.664 313.416C274.215 311.799 268.958 305.954 266.119 303.163C266.035 303.08 265.892 303.08 265.808 303.163C265.736 303.235 265.724 303.355 265.784 303.439C265.784 303.439 265.796 303.463 265.808 303.475C269.089 306.697 275.64 314.063 275.712 314.134C275.724 314.146 275.748 314.158 275.76 314.17C276.084 316.745 276.12 318.781 275.88 320.003C274.922 322.542 274.215 324.842 273.688 326.806C272.095 332.998 271.772 339.765 271.772 339.837C271.772 339.885 271.784 339.933 271.808 339.981C271.844 340.029 271.904 340.064 271.976 340.076C272.095 340.076 272.203 339.993 272.203 339.873L272.191 339.849Z" fill="#5D9C3D"/>
<path d="M84.5206 298.307C85.7921 297.426 85.9761 295.477 84.9315 293.953C83.8869 292.429 82.0094 291.908 80.7378 292.789C79.4663 293.67 79.2823 295.619 80.3269 297.142C81.3715 298.666 83.249 299.187 84.5206 298.307Z" fill="#CF9B7C"/>
<path d="M81.6032 294.71C80.4391 293.997 80.3916 293.33 80.4406 293.042C80.5314 292.954 80.6301 292.873 80.7366 292.799C82.0078 291.919 83.886 292.44 84.9302 293.964C85.8423 295.295 85.8174 296.95 84.9486 297.935C84.9039 297.762 84.8272 297.555 84.7073 297.31C83.9371 295.735 83.1549 295.66 81.6032 294.71Z" fill="#99534E"/>
<path d="M80.3258 297.153C79.4634 295.895 79.4386 294.348 80.1718 293.35C80.34 294.718 82.2984 295.126 83.4647 296.194C84.2384 296.901 84.4357 297.795 84.4775 298.346C83.207 299.187 81.3593 298.66 80.3265 297.153H80.3258Z" fill="#99534E"/>
<path d="M86.7605 296.089C88.2875 295.858 89.3032 294.188 89.0292 292.358C88.7552 290.528 87.2952 289.232 85.7682 289.463C84.2413 289.694 83.2255 291.365 83.4996 293.195C83.7736 295.024 85.2336 296.32 86.7605 296.089Z" fill="#CF9B7C"/>
<path d="M85.708 291.573C84.9733 290.419 85.2211 289.799 85.3907 289.561C85.5107 289.523 85.6349 289.493 85.7626 289.473C87.2895 289.242 88.7495 290.539 89.0235 292.368C89.2627 293.966 88.5174 295.444 87.3072 295.945C87.3427 295.77 87.364 295.55 87.3633 295.277C87.3583 293.522 86.6875 293.111 85.708 291.572V291.573Z" fill="#99534E"/>
<path d="M83.4943 293.205C83.2679 291.695 83.9209 290.293 85.0147 289.72C84.5697 291.023 86.1511 292.253 86.7339 293.727C87.12 294.704 86.9078 295.594 86.7048 296.108C85.1964 296.302 83.7654 295.015 83.4943 293.206V293.205Z" fill="#99534E"/>
<path d="M93.0375 295.848C93.7778 294.154 93.2317 292.274 91.8179 291.65C90.4041 291.026 88.6579 291.893 87.9176 293.588C87.1774 295.282 87.7234 297.161 89.1372 297.785C90.5511 298.409 92.2973 297.542 93.0375 295.848Z" fill="#CF9B7C"/>
<path d="M90.6587 293.4C90.6501 292.03 91.1889 291.639 91.4586 291.529C91.5807 291.56 91.7014 291.602 91.8199 291.654C93.2339 292.279 93.7797 294.158 93.0394 295.852C92.3928 297.331 90.9781 298.18 89.6884 297.956C89.8119 297.826 89.946 297.652 90.0901 297.421C91.0178 295.934 90.6693 295.226 90.6587 293.399V293.4Z" fill="#99534E"/>
<path d="M87.9188 293.59C88.53 292.192 89.8261 291.356 91.0555 291.459C89.9865 292.322 90.6715 294.211 90.3812 295.769C90.1888 296.803 89.5365 297.441 89.0921 297.767C87.713 297.123 87.187 295.266 87.9188 293.59Z" fill="#99534E"/>
<path d="M96.3155 297.973C97.7543 297.41 98.3788 295.555 97.7104 293.831C97.042 292.107 95.3337 291.166 93.895 291.73C92.4562 292.293 91.8317 294.148 92.5001 295.872C93.1685 297.596 94.8767 298.537 96.3155 297.973Z" fill="#CF9B7C"/>
<path d="M94.3018 293.793C93.3322 292.829 93.4373 292.17 93.5508 291.9C93.6594 291.836 93.7744 291.78 93.8944 291.733C95.3332 291.169 97.0417 292.11 97.7097 293.834C98.2938 295.34 97.8907 296.946 96.8203 297.703C96.8167 297.524 96.789 297.305 96.728 297.04C96.3383 295.329 95.5937 295.076 94.3011 293.793H94.3018Z" fill="#99534E"/>
<path d="M92.4995 295.876C91.948 294.453 92.2773 292.941 93.2178 292.14C93.0695 293.51 94.8823 294.359 95.7732 295.667C96.3644 296.535 96.3524 297.45 96.2672 297.996C94.8383 298.521 93.1603 297.582 92.4995 295.876Z" fill="#99534E"/>
<path d="M102.606 294.84C102.686 292.992 101.501 291.438 99.9588 291.37C98.4161 291.301 97.0999 292.745 97.019 294.593C96.9381 296.442 98.123 297.996 99.6657 298.064C101.208 298.132 102.525 296.689 102.606 294.84Z" fill="#CF9B7C"/>
<path d="M99.5151 293.427C99.0147 292.153 99.376 291.592 99.5882 291.392C99.7131 291.377 99.8409 291.372 99.9701 291.377C101.513 291.446 102.698 293 102.616 294.848C102.545 296.463 101.532 297.769 100.248 298.028C100.317 297.862 100.38 297.651 100.431 297.383C100.762 295.66 100.182 295.126 99.5151 293.427Z" fill="#99534E"/>
<path d="M97.0304 294.602C97.0971 293.076 98.0056 291.827 99.1889 291.476C98.5025 292.669 99.8199 294.181 100.11 295.74C100.302 296.773 99.9229 297.605 99.6262 298.071C98.1086 297.971 96.9509 296.431 97.0304 294.602Z" fill="#99534E"/>
<path d="M104.081 297.811C105.901 297.535 107.19 296.068 106.961 294.533C106.731 292.998 105.069 291.977 103.248 292.253C101.428 292.528 100.138 293.995 100.368 295.53C100.598 297.065 102.26 298.086 104.081 297.811Z" fill="#CF9B7C"/>
<path d="M104.866 294.491C106.014 293.753 106.631 294.002 106.867 294.173C106.906 294.293 106.935 294.418 106.955 294.546C107.185 296.081 105.895 297.549 104.075 297.824C102.485 298.065 101.015 297.315 100.516 296.099C100.691 296.135 100.909 296.156 101.18 296.155C102.927 296.15 103.335 295.476 104.866 294.491H104.866Z" fill="#99534E"/>
<path d="M103.242 292.266C104.745 292.038 106.14 292.694 106.71 293.794C105.414 293.346 104.189 294.936 102.723 295.522C101.751 295.91 100.866 295.697 100.355 295.493C100.161 293.976 101.442 292.538 103.242 292.266H103.242Z" fill="#99534E"/>
<path d="M107.459 297.622C109.279 297.347 110.569 295.879 110.339 294.345C110.109 292.81 108.447 291.789 106.626 292.064C104.806 292.34 103.517 293.807 103.746 295.342C103.976 296.877 105.638 297.898 107.459 297.622Z" fill="#CF9B7C"/>
<path d="M108.245 294.302C109.394 293.563 110.011 293.812 110.247 293.983C110.285 294.103 110.314 294.228 110.334 294.357C110.564 295.891 109.275 297.359 107.455 297.634C105.865 297.875 104.395 297.126 103.896 295.909C104.07 295.945 104.289 295.966 104.56 295.966C106.306 295.961 106.715 295.286 108.246 294.302H108.245Z" fill="#99534E"/>
<path d="M106.621 292.077C108.124 291.85 109.519 292.506 110.089 293.605C108.793 293.158 107.568 294.748 106.102 295.333C105.13 295.722 104.245 295.508 103.734 295.304C103.54 293.788 104.82 292.35 106.621 292.077H106.621Z" fill="#99534E"/>
<path d="M45.0875 283.053C46.7021 281.882 46.8844 279.363 45.4947 277.429C44.1049 275.494 41.6694 274.876 40.0548 276.047C38.4402 277.219 38.258 279.737 39.6477 281.672C41.0374 283.607 43.4729 284.225 45.0875 283.053Z" fill="#CF9B7C"/>
<path d="M41.2257 278.49C39.7045 277.604 39.6243 276.746 39.679 276.373C39.794 276.257 39.9189 276.15 40.0538 276.052C41.6686 274.88 44.104 275.499 45.4938 277.434C46.7076 279.124 46.7225 281.26 45.6294 282.554C45.5669 282.331 45.4619 282.067 45.3007 281.755C44.263 279.746 43.2529 279.673 41.225 278.49H41.2257Z" fill="#99534E"/>
<path d="M39.6468 281.676C38.4997 280.079 38.4238 278.084 39.3401 276.778C39.5957 278.536 42.1326 279.007 43.6665 280.349C44.6836 281.241 44.9633 282.386 45.0329 283.096C43.418 284.216 41.021 283.59 39.6468 281.676Z" fill="#99534E"/>
<path d="M47.909 280.133C49.8713 279.792 51.1338 277.609 50.7289 275.257C50.324 272.906 48.405 271.277 46.4427 271.618C44.4804 271.96 43.2179 274.142 43.6228 276.494C44.0277 278.845 45.9467 280.474 47.909 280.133Z" fill="#CF9B7C"/>
<path d="M46.43 274.33C45.4497 272.863 45.7514 272.056 45.9636 271.745C46.1177 271.692 46.2767 271.65 46.4406 271.622C48.4033 271.281 50.3219 272.91 50.7272 275.261C51.0807 277.315 50.1622 279.241 48.6155 279.923C48.6567 279.695 48.6773 279.412 48.6687 279.06C48.6127 276.798 47.7368 276.286 46.43 274.331V274.33Z" fill="#99534E"/>
<path d="M43.6205 276.497C43.2862 274.555 44.0883 272.729 45.4824 271.959C44.945 273.652 47.0198 275.193 47.812 277.076C48.3372 278.325 48.0888 279.478 47.8418 280.147C45.9019 280.441 44.0209 278.822 43.6205 276.497Z" fill="#99534E"/>
<path d="M56.0039 279.637C56.9105 277.431 56.1534 275.024 54.3128 274.259C52.4723 273.495 50.2453 274.663 49.3387 276.869C48.4321 279.074 49.1892 281.482 51.0297 282.246C52.8703 283.01 55.0973 281.842 56.0039 279.637Z" fill="#CF9B7C"/>
<path d="M52.8638 276.541C52.8141 274.775 53.4977 274.254 53.8426 274.105C54.0009 274.142 54.1578 274.193 54.3118 274.257C56.1524 275.021 56.9098 277.429 56.0033 279.635C55.2112 281.563 53.4111 282.698 51.7416 282.444C51.897 282.273 52.0653 282.045 52.2448 281.742C53.399 279.799 52.9298 278.896 52.8638 276.541Z" fill="#99534E"/>
<path d="M49.337 276.867C50.0852 275.046 51.7334 273.932 53.3212 274.029C51.9676 275.172 52.9031 277.589 52.5731 279.606C52.3537 280.945 51.5311 281.787 50.9675 282.219C49.1709 281.427 48.4405 279.048 49.337 276.867V276.867Z" fill="#99534E"/>
<path d="M60.2849 282.283C62.1241 281.516 62.877 279.107 61.9666 276.903C61.0561 274.699 58.8271 273.535 56.9879 274.302C55.1487 275.07 54.3958 277.479 55.3062 279.683C56.2166 281.887 58.4457 283.051 60.2849 282.283Z" fill="#CF9B7C"/>
<path d="M57.5715 276.945C56.2939 275.731 56.411 274.877 56.5501 274.527C56.6885 274.441 56.8348 274.365 56.9888 274.301C58.8279 273.533 61.0574 274.697 61.9681 276.901C62.7638 278.827 62.2897 280.909 60.9304 281.916C60.9205 281.685 60.8786 281.404 60.7934 281.063C60.2426 278.868 59.2758 278.564 57.5722 276.946L57.5715 276.945Z" fill="#99534E"/>
<path d="M55.3063 279.681C54.5546 277.862 54.9365 275.902 56.1275 274.842C55.9742 276.612 58.3358 277.656 59.5219 279.317C60.3084 280.419 60.319 281.599 60.2246 282.306C58.3975 283.023 56.207 281.86 55.307 279.68L55.3063 279.681Z" fill="#99534E"/>
<path d="M68.32 278.065C68.3722 275.68 66.8005 273.71 64.8095 273.666C62.8186 273.622 61.1622 275.52 61.11 277.906C61.0578 280.292 62.6295 282.261 64.6205 282.305C66.6115 282.349 68.2678 280.451 68.32 278.065Z" fill="#CF9B7C"/>
<path d="M64.2859 276.325C63.6045 274.696 64.0552 273.962 64.3228 273.698C64.484 273.675 64.6479 273.665 64.8147 273.669C66.8058 273.713 68.3773 275.683 68.3255 278.069C68.2801 280.153 67.0095 281.865 65.362 282.236C65.4458 282.02 65.5203 281.746 65.5792 281.399C65.9568 279.168 65.1945 278.497 64.2866 276.325L64.2859 276.325Z" fill="#99534E"/>
<path d="M61.1144 277.909C61.1577 275.94 62.2934 274.302 63.8089 273.816C62.9578 275.373 64.699 277.286 65.1171 279.287C65.3939 280.614 64.9297 281.699 64.5592 282.307C62.5994 282.221 61.0626 280.268 61.1144 277.909Z" fill="#99534E"/>
<path d="M70.2907 281.862C72.63 281.455 74.251 279.527 73.9114 277.554C73.5717 275.582 71.4 274.313 69.0607 274.72C66.7214 275.127 65.1004 277.056 65.4401 279.028C65.7797 281 67.9514 282.269 70.2907 281.862Z" fill="#CF9B7C"/>
<path d="M71.2157 277.546C72.6751 276.561 73.4779 276.864 73.7874 277.078C73.8406 277.232 73.8818 277.392 73.9102 277.557C74.2495 279.53 72.629 281.458 70.2894 281.866C68.2459 282.221 66.3301 281.298 65.6515 279.743C65.8779 279.784 66.1597 279.805 66.5097 279.797C68.7605 279.74 69.2694 278.86 71.215 277.546H71.2157Z" fill="#99534E"/>
<path d="M69.059 274.722C70.9904 274.386 72.8069 275.193 73.5735 276.594C71.8891 276.054 70.3559 278.139 68.4827 278.936C67.2398 279.463 66.0927 279.214 65.4276 278.965C65.1344 277.016 66.7457 275.125 69.059 274.722Z" fill="#99534E"/>
<path d="M74.6434 281.521C76.9827 281.114 78.6037 279.185 78.264 277.213C77.9244 275.24 75.7527 273.971 73.4134 274.378C71.0741 274.785 69.4531 276.714 69.7927 278.687C70.1324 280.659 72.3041 281.928 74.6434 281.521Z" fill="#CF9B7C"/>
<path d="M75.568 277.205C77.0274 276.22 77.8302 276.523 78.1397 276.736C78.1929 276.891 78.2341 277.051 78.2625 277.216C78.6018 279.188 76.9813 281.117 74.6417 281.524C72.5982 281.88 70.6824 280.956 70.0038 279.402C70.2302 279.443 70.512 279.464 70.862 279.455C73.1128 279.399 73.6217 278.518 75.5673 277.205H75.568Z" fill="#99534E"/>
<path d="M73.412 274.381C75.3435 274.045 77.1599 274.851 77.9265 276.253C76.2421 275.712 74.7089 277.798 72.8357 278.594C71.5928 279.122 70.4457 278.872 69.7806 278.624C69.4875 276.674 71.0988 274.784 73.412 274.381Z" fill="#99534E"/>
<path d="M77.7405 348.763H37.6097C35.1885 348.763 33.0278 347.767 31.4761 346.181C29.6633 344.329 28.683 341.672 29.0919 338.859L36.4456 288.292H78.3219L86.2441 338.763C87.0682 344.014 83.0301 348.763 77.7405 348.763V348.763Z" fill="#DEAB8D"/>
<path d="M78.7366 288.291H36.5423C34.8742 288.291 33.6604 286.7 34.0934 285.081L34.2269 284.583L35.0233 281.602L35.4158 280.135C35.6124 279.401 36.274 278.891 37.0307 278.891H78.1758C78.9233 278.891 79.5799 279.39 79.7836 280.113L81.1762 285.048C81.6348 286.674 80.4189 288.292 78.7373 288.292L78.7366 288.291Z" fill="#CF9B7C"/>
<path d="M77.9003 348.76C77.8471 348.76 77.7938 348.762 77.7406 348.762H37.6097C35.1885 348.762 33.0279 347.766 31.4762 346.18C34.7591 346.175 49.5041 345.794 60.5843 334.363C71.7654 322.828 74.7352 304.664 68.0686 288.29H78.3219L86.2442 338.761C87.0598 343.959 83.1111 348.666 77.9003 348.76Z" fill="#D49E7F"/>
<path d="M54.2063 348.762C58.7065 345.545 65.7635 339.54 70.9956 329.797C80.8421 311.46 77.0141 293.308 75.7776 288.29H78.3223L86.2445 338.761C86.3673 340.221 86.4199 343.422 84.3323 345.674C83.1306 346.971 81.6442 347.494 80.4531 347.797C73.3692 349.596 56.0447 348.846 54.2056 348.762H54.2063Z" fill="#BF8A6B"/>
<path d="M78.7369 288.291H36.5425C34.8745 288.291 33.6607 286.7 34.0937 285.081L34.2271 284.583C44.3129 284.87 78.8419 285.761 79.0208 284.503C79.1642 283.494 78.2272 280.609 77.6225 278.891H78.1768C78.9243 278.891 79.5808 279.389 79.7846 280.113L81.1772 285.047C81.6357 286.674 80.4198 288.291 78.7383 288.291L78.7369 288.291Z" fill="#BA8668"/>
<path d="M67.8531 281.555C67.0581 281.696 47.7022 281.648 35.0227 281.6L35.4152 280.134C35.6118 279.399 36.2734 278.889 37.0301 278.889H68.2762C68.4451 280.124 68.4742 281.445 67.8531 281.555Z" fill="#DAA88B"/>
<path d="M110.697 350.92H78.2234C76.2643 350.92 74.5153 350.113 73.2604 348.83C71.7939 347.331 71.0003 345.181 71.3311 342.905L77.2815 301.986H111.168L117.579 342.827C118.246 347.076 114.978 350.92 110.698 350.92H110.697Z" fill="#DEAA8D"/>
<path d="M111.504 301.984H77.3594C76.0094 301.984 75.0277 300.696 75.3776 299.386L75.4855 298.983L76.13 296.571L76.4473 295.384C76.6063 294.789 77.1422 294.376 77.7541 294.376H111.049C111.654 294.376 112.186 294.78 112.351 295.365L113.477 299.358C113.848 300.675 112.864 301.983 111.503 301.983L111.504 301.984Z" fill="#CF9B7C"/>
<path d="M110.828 350.917C110.786 350.917 110.742 350.919 110.699 350.919H78.2249C76.2658 350.919 74.5168 350.113 73.2618 348.83C74.1385 349.03 90.5743 352.498 101.403 341.201C110.804 331.394 111.856 314.763 102.873 301.984H111.17L117.581 342.825C118.241 347.032 115.045 350.84 110.829 350.917L110.828 350.917Z" fill="#CF9B7C"/>
<path d="M99.3831 350.92C100.956 350.403 102.308 349.707 103.476 348.895C118.258 338.609 109.935 305.167 109.11 301.986H111.169L117.58 342.827C117.659 343.769 117.75 346.38 116.033 348.421C115.352 349.229 114.175 350.201 110.698 350.92C108.338 351.407 104.423 351.88 99.3831 350.92Z" fill="#B58265"/>
<path d="M111.504 301.985H77.3594C76.0094 301.985 75.0277 300.697 75.3776 299.387L75.4855 298.984C83.647 299.216 111.588 299.937 111.733 298.919C111.849 298.103 111.091 295.767 110.601 294.378H111.049C111.654 294.378 112.186 294.781 112.351 295.366L113.477 299.36C113.848 300.676 112.864 301.985 111.503 301.985H111.504Z" fill="#AB7B5F"/>
<path d="M102.697 296.535C102.053 296.649 86.3899 296.611 76.1302 296.572L76.4475 295.385C76.6065 294.791 77.1424 294.378 77.7543 294.378H103.039C103.176 295.376 103.199 296.446 102.697 296.535Z" fill="#DAA88B"/>
<path d="M63.7583 317.104C63.9305 309.235 59.7278 302.76 54.3713 302.642C49.0149 302.523 44.533 308.807 44.3609 316.676C44.1887 324.545 48.3913 331.02 53.7478 331.138C59.1042 331.256 63.5861 324.973 63.7583 317.104Z" fill="#99534E"/>
<path d="M53.898 305.179C54.2948 305.54 54.6398 305.956 54.9606 306.391C55.2815 306.827 55.5647 307.295 55.816 307.783C56.3128 308.759 56.6706 309.837 56.7976 310.972C56.9339 312.103 56.8232 313.291 56.4619 314.4C56.1077 315.514 55.493 316.525 54.7654 317.402L54.2863 317.984C54.1415 318.182 53.9825 318.374 53.8498 318.577C53.558 318.972 53.3202 319.391 53.0981 319.812C52.6615 320.659 52.401 321.561 52.379 322.492C52.3542 323.423 52.5934 324.38 52.9959 325.313C53.1925 325.783 53.4288 326.245 53.6716 326.713C53.9151 327.18 54.177 327.649 54.3892 328.142C53.6496 327.378 52.8844 326.64 52.2555 325.729C51.6252 324.831 51.1425 323.743 51.024 322.559C50.8969 321.376 51.1503 320.166 51.6167 319.112C52.0809 318.054 52.746 317.111 53.4501 316.28C53.7561 315.909 54.0513 315.529 54.2898 315.118C54.5475 314.718 54.747 314.289 54.923 313.851C55.2666 312.972 55.4426 312.026 55.4476 311.051C55.4618 310.076 55.2999 309.079 55.0309 308.094C54.759 307.108 54.3807 306.132 53.8973 305.18L53.898 305.179Z" fill="#DEAA8D"/>
<path d="M98.3661 325.409C98.4879 319.844 95.5159 315.265 91.7279 315.182C87.9399 315.098 84.7705 319.541 84.6487 325.106C84.5269 330.671 87.499 335.25 91.2869 335.334C95.0749 335.417 98.2444 330.974 98.3661 325.409Z" fill="#99534E"/>
<path d="M91.3938 316.978C91.6742 317.233 91.9183 317.527 92.1455 317.835C92.3726 318.143 92.5728 318.473 92.7502 318.819C93.1016 319.509 93.3543 320.271 93.4444 321.074C93.541 321.875 93.4622 322.714 93.2074 323.498C92.9568 324.287 92.5224 325.002 92.0078 325.622L91.6692 326.033C91.5663 326.173 91.4541 326.309 91.3604 326.453C91.1539 326.732 90.9857 327.028 90.8288 327.326C90.52 327.925 90.3355 328.563 90.3205 329.221C90.3028 329.88 90.4725 330.556 90.7564 331.216C90.8955 331.548 91.0623 331.874 91.2348 332.206C91.4066 332.536 91.5925 332.868 91.7423 333.217C91.2192 332.676 90.6783 332.155 90.2332 331.51C89.7875 330.875 89.4461 330.106 89.3623 329.267C89.2721 328.431 89.4517 327.576 89.7818 326.83C90.1097 326.082 90.5804 325.415 91.0779 324.828C91.2944 324.566 91.5031 324.296 91.672 324.006C91.8545 323.723 91.9957 323.42 92.1199 323.11C92.3634 322.489 92.4876 321.819 92.4912 321.13C92.5011 320.44 92.3868 319.736 92.1966 319.038C92.0042 318.341 91.7366 317.651 91.3952 316.977L91.3938 316.978Z" fill="#DEAA8D"/>
<circle cx="260.362" cy="215.363" r="4.6357" fill="url(#paint0_radial_1_132)"/>
<circle cx="252.636" cy="212.271" r="4.6357" fill="url(#paint1_radial_1_132)"/>
<circle cx="258.817" cy="207.636" r="4.6357" fill="url(#paint2_radial_1_132)"/>
<circle cx="308.362" cy="212.363" r="4.6357" fill="url(#paint3_radial_1_132)"/>
<circle cx="300.636" cy="209.271" r="4.6357" fill="url(#paint4_radial_1_132)"/>
<circle cx="306.817" cy="204.636" r="4.6357" fill="url(#paint5_radial_1_132)"/>
<mask id="mask1_1_132" style="mask-type:alpha" maskUnits="userSpaceOnUse" x="171" y="175" width="67" height="137">
<path fill-rule="evenodd" clip-rule="evenodd" d="M171.006 175.006L171.006 175L171 175.006H171.006ZM200.677 175.006H171.006L173.791 305.271C173.864 308.813 176.76 311.649 180.3 311.649H197.18C200.696 311.649 203.573 308.863 203.689 305.351L204.341 285.667L204.993 305.351C205.109 308.863 207.986 311.649 211.502 311.649H228.382C231.922 311.649 234.818 308.813 234.891 305.271L237.676 175.006H237.682L237.676 175L237.676 175.006H208.004H200.677Z" fill="#DD9729"/>
</mask>
<g mask="url(#mask1_1_132)">
<path d="M171.5 190L244.679 324.25H98.3209L171.5 190Z" fill="white" fill-opacity="0.17"/>
</g>
<circle cx="117.909" cy="269.909" r="4.09101" fill="url(#paint6_radial_1_132)"/>
<circle cx="111.091" cy="267.182" r="4.09101" fill="url(#paint7_radial_1_132)"/>
<circle cx="116.545" cy="263.091" r="4.09101" fill="url(#paint8_radial_1_132)"/>
<circle cx="110.388" cy="261.902" r="3.53405" transform="rotate(69.3798 110.388 261.902)" fill="url(#paint9_radial_1_132)"/>
<circle cx="110.519" cy="255.56" r="3.53405" transform="rotate(69.3798 110.519 255.56)" fill="url(#paint10_radial_1_132)"/>
<circle cx="115.486" cy="258.725" r="3.53405" transform="rotate(69.3798 115.486 258.725)" fill="url(#paint11_radial_1_132)"/>
<circle cx="101.581" cy="262.147" r="3.5628" transform="rotate(110.394 101.581 262.147)" fill="url(#paint12_radial_1_132)"/>
<circle cx="105.877" cy="257.409" r="3.5628" transform="rotate(110.394 105.877 257.409)" fill="url(#paint13_radial_1_132)"/>
<circle cx="107.561" cy="263.103" r="3.5628" transform="rotate(110.394 107.561 263.103)" fill="url(#paint14_radial_1_132)"/>
<circle cx="138.455" cy="292.455" r="3.54574" fill="url(#paint15_radial_1_132)"/>
<circle cx="132.546" cy="290.092" r="3.54574" fill="url(#paint16_radial_1_132)"/>
<circle cx="137.273" cy="286.546" r="3.54574" fill="url(#paint17_radial_1_132)"/>
<circle cx="288.818" cy="310.819" r="5.18191" fill="url(#paint18_radial_1_132)"/>
<circle cx="280.182" cy="307.364" r="5.18191" fill="url(#paint19_radial_1_132)"/>
<circle cx="287.091" cy="302.182" r="5.18191" fill="url(#paint20_radial_1_132)"/>
<defs>
<radialGradient id="paint0_radial_1_132" cx="0" cy="0" r="1" gradientUnits="userSpaceOnUse" gradientTransform="translate(260.362 215.362) scale(6.18094)">
<stop stop-color="white"/>
<stop offset="1" stop-color="#B9B9B9"/>
</radialGradient>
<radialGradient id="paint1_radial_1_132" cx="0" cy="0" r="1" gradientUnits="userSpaceOnUse" gradientTransform="translate(252.636 212.271) scale(6.18094)">
<stop stop-color="white"/>
<stop offset="1" stop-color="#B9B9B9"/>
</radialGradient>
<radialGradient id="paint2_radial_1_132" cx="0" cy="0" r="1" gradientUnits="userSpaceOnUse" gradientTransform="translate(258.817 207.636) scale(6.18094)">
<stop stop-color="white"/>
<stop offset="1" stop-color="#B9B9B9"/>
</radialGradient>
<radialGradient id="paint3_radial_1_132" cx="0" cy="0" r="1" gradientUnits="userSpaceOnUse" gradientTransform="translate(308.362 212.362) scale(6.18094)">
<stop stop-color="white"/>
<stop offset="1" stop-color="#B9B9B9"/>
</radialGradient>
<radialGradient id="paint4_radial_1_132" cx="0" cy="0" r="1" gradientUnits="userSpaceOnUse" gradientTransform="translate(300.636 209.271) scale(6.18094)">
<stop stop-color="white"/>
<stop offset="1" stop-color="#B9B9B9"/>
</radialGradient>
<radialGradient id="paint5_radial_1_132" cx="0" cy="0" r="1" gradientUnits="userSpaceOnUse" gradientTransform="translate(306.817 204.636) scale(6.18094)">
<stop stop-color="white"/>
<stop offset="1" stop-color="#B9B9B9"/>
</radialGradient>
<radialGradient id="paint6_radial_1_132" cx="0" cy="0" r="1" gradientUnits="userSpaceOnUse" gradientTransform="translate(117.909 269.909) rotate(94.7636) scale(8.21039)">
<stop stop-color="#F8FD75"/>
<stop offset="1" stop-color="#FBB03B"/>
</radialGradient>
<radialGradient id="paint7_radial_1_132" cx="0" cy="0" r="1" gradientUnits="userSpaceOnUse" gradientTransform="translate(111.091 267.182) rotate(94.7636) scale(8.21039)">
<stop stop-color="#F79393"/>
<stop offset="1" stop-color="#FF0202"/>
</radialGradient>
<radialGradient id="paint8_radial_1_132" cx="0" cy="0" r="1" gradientUnits="userSpaceOnUse" gradientTransform="translate(116.545 263.091) scale(5.45468)">
<stop stop-color="#9F546D"/>
<stop offset="1" stop-color="#391E27"/>
</radialGradient>
<radialGradient id="paint9_radial_1_132" cx="0" cy="0" r="1" gradientUnits="userSpaceOnUse" gradientTransform="translate(110.388 261.902) rotate(94.7636) scale(7.0926)">
<stop stop-color="#F8FD75"/>
<stop offset="1" stop-color="#FBB03B"/>
</radialGradient>
<radialGradient id="paint10_radial_1_132" cx="0" cy="0" r="1" gradientUnits="userSpaceOnUse" gradientTransform="translate(110.519 255.56) rotate(94.7636) scale(7.0926)">
<stop stop-color="#F79393"/>
<stop offset="1" stop-color="#FF0202"/>
</radialGradient>
<radialGradient id="paint11_radial_1_132" cx="0" cy="0" r="1" gradientUnits="userSpaceOnUse" gradientTransform="translate(115.486 258.725) scale(4.71206)">
<stop stop-color="#9F546D"/>
<stop offset="1" stop-color="#391E27"/>
</radialGradient>
<radialGradient id="paint12_radial_1_132" cx="0" cy="0" r="1" gradientUnits="userSpaceOnUse" gradientTransform="translate(101.581 262.147) rotate(94.7636) scale(7.1503)">
<stop stop-color="#F8FD75"/>
<stop offset="1" stop-color="#FBB03B"/>
</radialGradient>
<radialGradient id="paint13_radial_1_132" cx="0" cy="0" r="1" gradientUnits="userSpaceOnUse" gradientTransform="translate(105.877 257.409) rotate(94.7636) scale(7.1503)">
<stop stop-color="#F79393"/>
<stop offset="1" stop-color="#FF0202"/>
</radialGradient>
<radialGradient id="paint14_radial_1_132" cx="0" cy="0" r="1" gradientUnits="userSpaceOnUse" gradientTransform="translate(107.561 263.103) scale(4.7504)">
<stop stop-color="#9F546D"/>
<stop offset="1" stop-color="#391E27"/>
</radialGradient>
<radialGradient id="paint15_radial_1_132" cx="0" cy="0" r="1" gradientUnits="userSpaceOnUse" gradientTransform="translate(138.455 292.455) rotate(94.7636) scale(7.11607)">
<stop stop-color="#F8FD75"/>
<stop offset="1" stop-color="#FBB03B"/>
</radialGradient>
<radialGradient id="paint16_radial_1_132" cx="0" cy="0" r="1" gradientUnits="userSpaceOnUse" gradientTransform="translate(132.546 290.092) rotate(94.7636) scale(7.11607)">
<stop stop-color="#F79393"/>
<stop offset="1" stop-color="#FF0202"/>
</radialGradient>
<radialGradient id="paint17_radial_1_132" cx="0" cy="0" r="1" gradientUnits="userSpaceOnUse" gradientTransform="translate(137.273 286.546) scale(4.72766)">
<stop stop-color="#9F546D"/>
<stop offset="1" stop-color="#391E27"/>
</radialGradient>
<radialGradient id="paint18_radial_1_132" cx="0" cy="0" r="1" gradientUnits="userSpaceOnUse" gradientTransform="translate(288.818 310.819) rotate(94.7636) scale(10.3997)">
<stop stop-color="#F8FD75"/>
<stop offset="1" stop-color="#FBB03B"/>
</radialGradient>
<radialGradient id="paint19_radial_1_132" cx="0" cy="0" r="1" gradientUnits="userSpaceOnUse" gradientTransform="translate(280.182 307.364) rotate(94.7636) scale(10.3997)">
<stop stop-color="#F79393"/>
<stop offset="1" stop-color="#FF0202"/>
</radialGradient>
<radialGradient id="paint20_radial_1_132" cx="0" cy="0" r="1" gradientUnits="userSpaceOnUse" gradientTransform="translate(287.091 302.182) scale(6.90921)">
<stop stop-color="#9F546D"/>
<stop offset="1" stop-color="#391E27"/>
</radialGradient>
</defs>
</svg>
