<svg width="27" height="31" viewBox="0 0 27 31" fill="none" xmlns="http://www.w3.org/2000/svg">
<path d="M18.5976 15.4698C17.2193 15.4698 16.0889 14.231 16.0889 12.6979C16.0889 11.1648 17.2038 9.92597 18.5976 9.92597C19.9913 9.92597 21.1062 11.1648 21.1062 12.6979C21.1062 14.231 19.9913 15.4698 18.5976 15.4698ZM18.5976 11.4745C18.0865 11.4745 17.6374 12.032 17.6374 12.6979C17.6374 13.3638 18.071 13.9213 18.5976 13.9213C19.1241 13.9213 19.5577 13.3638 19.5577 12.6979C19.5577 12.032 19.1241 11.4745 18.5976 11.4745Z" fill="black"/>
<path d="M14.7259 21.0758C14.2923 21.0758 13.9517 20.7352 13.9517 20.3016C13.9517 19.1401 14.4472 18.0561 15.3454 17.2354C16.3829 16.2908 17.8695 15.8262 19.2942 15.9656C21.5397 16.1978 23.2276 17.9013 23.2276 19.9454C23.2276 20.379 22.8869 20.7197 22.4533 20.7197C22.0197 20.7197 21.679 20.379 21.679 19.9454C21.679 18.691 20.5795 17.638 19.1394 17.4986C18.1173 17.3902 17.0953 17.7309 16.3829 18.3658C15.9803 18.7375 15.5002 19.3569 15.5002 20.2861C15.5002 20.7197 15.1595 21.0604 14.7259 21.0604V21.0758Z" fill="black"/>
<path d="M23.3056 1.80946L15.5628 0.0905448C14.4168 -0.157226 13.2244 0.106031 12.2953 0.849344C11.7998 1.25197 11.4281 1.763 11.1803 2.33597H3.88656C1.74953 2.33597 0.0151367 4.07037 0.0151367 6.2074V10.8531C0.0151367 11.2867 0.355822 11.6274 0.789422 11.6274C1.22302 11.6274 1.56371 11.2867 1.56371 10.8531V6.2074C1.56371 4.92208 2.60125 3.88454 3.88656 3.88454H10.8551V27.1131H3.88656C2.60125 27.1131 1.56371 26.0755 1.56371 24.7902V20.1445C1.56371 19.7109 1.22302 19.3702 0.789422 19.3702C0.355822 19.3702 0.0151367 19.7109 0.0151367 20.1445V24.7902C0.0151367 26.9273 1.74953 28.6617 3.88656 28.6617H11.1803C11.4281 29.2346 11.7998 29.7457 12.2953 30.1483C12.9922 30.7058 13.8439 31 14.7111 31C14.9898 31 15.2685 30.969 15.5628 30.9071L23.3056 29.1882C25.0865 28.7855 26.3408 27.237 26.3408 25.4097V5.58797C26.3408 3.76066 25.102 2.21209 23.3056 1.80946ZM24.7923 25.4097C24.7923 26.5091 24.0489 27.4383 22.9804 27.6706L15.2376 29.3895C14.5407 29.5443 13.8284 29.3895 13.2864 28.9404C12.7289 28.4913 12.4192 27.8409 12.4192 27.1286V3.86906C12.4192 3.15671 12.7289 2.50631 13.2864 2.05723C13.7045 1.71654 14.2155 1.5462 14.742 1.5462C14.9124 1.5462 15.0827 1.56169 15.2531 1.60814L22.9959 3.32706C24.0644 3.55934 24.8077 4.50397 24.8077 5.58797V25.3942L24.7923 25.4097Z" fill="black"/>
<path d="M4.42891 11.86C4.1192 11.5503 3.63914 11.5503 3.32942 11.86L0.232285 14.9572C-0.0774285 15.2669 -0.0774285 15.7469 0.232285 16.0567L3.32942 19.1538C3.48428 19.3086 3.6856 19.3861 3.87142 19.3861C4.05725 19.3861 4.27405 19.3086 4.41342 19.1538C4.72314 18.8441 4.72314 18.364 4.41342 18.0543L2.63257 16.2735H8.50165C8.93525 16.2735 9.27593 15.9328 9.27593 15.4992C9.27593 15.0656 8.93525 14.7249 8.50165 14.7249H2.63257L4.41342 12.944C4.72314 12.6343 4.72314 12.1543 4.41342 11.8445L4.42891 11.86Z" fill="black"/>
</svg>
