<svg width="367" height="52" viewBox="0 0 367 52" fill="none" xmlns="http://www.w3.org/2000/svg">
<rect x="367" width="52" height="367" rx="10" transform="rotate(90 367 0)" fill="#22B573"/>
<mask id="path-2-outside-1_1_352" maskUnits="userSpaceOnUse" x="153" y="15" width="60" height="26" fill="black">
<rect fill="white" x="153" y="15" width="60" height="26"/>
<path d="M156.78 33V19H158.74V31.2H165.24V33H156.78ZM171.328 33.24C170.328 33.24 169.448 33.02 168.688 32.58C167.928 32.1267 167.328 31.5067 166.888 30.72C166.462 29.9333 166.248 29.0267 166.248 28C166.248 26.9733 166.462 26.0667 166.888 25.28C167.315 24.4933 167.908 23.88 168.668 23.44C169.428 22.9867 170.302 22.76 171.288 22.76C172.275 22.76 173.148 22.9867 173.908 23.44C174.668 23.88 175.262 24.4933 175.688 25.28C176.115 26.0667 176.328 26.9733 176.328 28C176.328 29.0267 176.115 29.9333 175.688 30.72C175.262 31.5067 174.668 32.1267 173.908 32.58C173.162 33.02 172.302 33.24 171.328 33.24ZM171.328 31.5C171.928 31.5 172.462 31.3533 172.928 31.06C173.395 30.7533 173.755 30.34 174.008 29.82C174.275 29.3 174.408 28.6933 174.408 28C174.408 27.3067 174.275 26.7 174.008 26.18C173.755 25.66 173.388 25.2533 172.908 24.96C172.428 24.6533 171.888 24.5 171.288 24.5C170.675 24.5 170.135 24.6533 169.668 24.96C169.202 25.2533 168.835 25.66 168.568 26.18C168.302 26.7 168.168 27.3067 168.168 28C168.168 28.6933 168.302 29.3 168.568 29.82C168.835 30.34 169.208 30.7533 169.688 31.06C170.168 31.3533 170.715 31.5 171.328 31.5ZM182.55 37.26C181.883 37.26 181.277 37.1933 180.73 37.06C180.183 36.94 179.723 36.8 179.35 36.64C178.977 36.48 178.697 36.34 178.51 36.22L179.23 34.68C179.403 34.7867 179.65 34.9067 179.97 35.04C180.29 35.1867 180.663 35.3067 181.09 35.4C181.517 35.5067 181.99 35.56 182.51 35.56C183.123 35.56 183.67 35.4333 184.15 35.18C184.63 34.94 185.003 34.56 185.27 34.04C185.55 33.52 185.69 32.8533 185.69 32.04V23H187.59V32C187.59 33.1467 187.37 34.1067 186.93 34.88C186.503 35.6667 185.91 36.26 185.15 36.66C184.403 37.06 183.537 37.26 182.55 37.26ZM182.37 32.86C181.463 32.86 180.67 32.6533 179.99 32.24C179.323 31.8133 178.797 31.2267 178.41 30.48C178.037 29.72 177.85 28.8467 177.85 27.86C177.85 26.8333 178.037 25.94 178.41 25.18C178.797 24.42 179.323 23.8267 179.99 23.4C180.67 22.9733 181.463 22.76 182.37 22.76C183.197 22.76 183.917 22.9733 184.53 23.4C185.157 23.8267 185.637 24.4267 185.97 25.2C186.317 25.96 186.49 26.8533 186.49 27.88C186.49 28.8667 186.317 29.74 185.97 30.5C185.637 31.2467 185.157 31.8267 184.53 32.24C183.917 32.6533 183.197 32.86 182.37 32.86ZM182.85 31.26C183.41 31.26 183.897 31.1133 184.31 30.82C184.723 30.5133 185.05 30.1067 185.29 29.6C185.53 29.08 185.65 28.4867 185.65 27.82C185.65 27.1533 185.53 26.5667 185.29 26.06C185.05 25.5533 184.717 25.16 184.29 24.88C183.877 24.5867 183.39 24.44 182.83 24.44C182.243 24.44 181.723 24.5867 181.27 24.88C180.83 25.16 180.483 25.5533 180.23 26.06C179.977 26.5667 179.85 27.1533 179.85 27.82C179.85 28.4867 179.977 29.08 180.23 29.6C180.497 30.1067 180.85 30.5133 181.29 30.82C181.743 31.1133 182.263 31.26 182.85 31.26ZM195.569 33V19H197.529V33H195.569ZM200.636 33V23H202.416L202.536 24.84V33H200.636ZM207.556 33V27.88H209.456V33H207.556ZM207.556 27.88C207.556 26.9733 207.45 26.2867 207.236 25.82C207.036 25.34 206.75 25.0067 206.376 24.82C206.016 24.6333 205.596 24.5333 205.116 24.52C204.303 24.52 203.67 24.8067 203.216 25.38C202.763 25.9533 202.536 26.76 202.536 27.8H201.716C201.716 26.7467 201.87 25.8467 202.176 25.1C202.496 24.34 202.943 23.76 203.516 23.36C204.103 22.96 204.796 22.76 205.596 22.76C206.383 22.76 207.063 22.92 207.636 23.24C208.223 23.56 208.67 24.06 208.976 24.74C209.296 25.4067 209.456 26.2867 209.456 27.38V27.88H207.556Z"/>
</mask>
<path d="M156.78 33V19H158.74V31.2H165.24V33H156.78ZM171.328 33.24C170.328 33.24 169.448 33.02 168.688 32.58C167.928 32.1267 167.328 31.5067 166.888 30.72C166.462 29.9333 166.248 29.0267 166.248 28C166.248 26.9733 166.462 26.0667 166.888 25.28C167.315 24.4933 167.908 23.88 168.668 23.44C169.428 22.9867 170.302 22.76 171.288 22.76C172.275 22.76 173.148 22.9867 173.908 23.44C174.668 23.88 175.262 24.4933 175.688 25.28C176.115 26.0667 176.328 26.9733 176.328 28C176.328 29.0267 176.115 29.9333 175.688 30.72C175.262 31.5067 174.668 32.1267 173.908 32.58C173.162 33.02 172.302 33.24 171.328 33.24ZM171.328 31.5C171.928 31.5 172.462 31.3533 172.928 31.06C173.395 30.7533 173.755 30.34 174.008 29.82C174.275 29.3 174.408 28.6933 174.408 28C174.408 27.3067 174.275 26.7 174.008 26.18C173.755 25.66 173.388 25.2533 172.908 24.96C172.428 24.6533 171.888 24.5 171.288 24.5C170.675 24.5 170.135 24.6533 169.668 24.96C169.202 25.2533 168.835 25.66 168.568 26.18C168.302 26.7 168.168 27.3067 168.168 28C168.168 28.6933 168.302 29.3 168.568 29.82C168.835 30.34 169.208 30.7533 169.688 31.06C170.168 31.3533 170.715 31.5 171.328 31.5ZM182.55 37.26C181.883 37.26 181.277 37.1933 180.73 37.06C180.183 36.94 179.723 36.8 179.35 36.64C178.977 36.48 178.697 36.34 178.51 36.22L179.23 34.68C179.403 34.7867 179.65 34.9067 179.97 35.04C180.29 35.1867 180.663 35.3067 181.09 35.4C181.517 35.5067 181.99 35.56 182.51 35.56C183.123 35.56 183.67 35.4333 184.15 35.18C184.63 34.94 185.003 34.56 185.27 34.04C185.55 33.52 185.69 32.8533 185.69 32.04V23H187.59V32C187.59 33.1467 187.37 34.1067 186.93 34.88C186.503 35.6667 185.91 36.26 185.15 36.66C184.403 37.06 183.537 37.26 182.55 37.26ZM182.37 32.86C181.463 32.86 180.67 32.6533 179.99 32.24C179.323 31.8133 178.797 31.2267 178.41 30.48C178.037 29.72 177.85 28.8467 177.85 27.86C177.85 26.8333 178.037 25.94 178.41 25.18C178.797 24.42 179.323 23.8267 179.99 23.4C180.67 22.9733 181.463 22.76 182.37 22.76C183.197 22.76 183.917 22.9733 184.53 23.4C185.157 23.8267 185.637 24.4267 185.97 25.2C186.317 25.96 186.49 26.8533 186.49 27.88C186.49 28.8667 186.317 29.74 185.97 30.5C185.637 31.2467 185.157 31.8267 184.53 32.24C183.917 32.6533 183.197 32.86 182.37 32.86ZM182.85 31.26C183.41 31.26 183.897 31.1133 184.31 30.82C184.723 30.5133 185.05 30.1067 185.29 29.6C185.53 29.08 185.65 28.4867 185.65 27.82C185.65 27.1533 185.53 26.5667 185.29 26.06C185.05 25.5533 184.717 25.16 184.29 24.88C183.877 24.5867 183.39 24.44 182.83 24.44C182.243 24.44 181.723 24.5867 181.27 24.88C180.83 25.16 180.483 25.5533 180.23 26.06C179.977 26.5667 179.85 27.1533 179.85 27.82C179.85 28.4867 179.977 29.08 180.23 29.6C180.497 30.1067 180.85 30.5133 181.29 30.82C181.743 31.1133 182.263 31.26 182.85 31.26ZM195.569 33V19H197.529V33H195.569ZM200.636 33V23H202.416L202.536 24.84V33H200.636ZM207.556 33V27.88H209.456V33H207.556ZM207.556 27.88C207.556 26.9733 207.45 26.2867 207.236 25.82C207.036 25.34 206.75 25.0067 206.376 24.82C206.016 24.6333 205.596 24.5333 205.116 24.52C204.303 24.52 203.67 24.8067 203.216 25.38C202.763 25.9533 202.536 26.76 202.536 27.8H201.716C201.716 26.7467 201.87 25.8467 202.176 25.1C202.496 24.34 202.943 23.76 203.516 23.36C204.103 22.96 204.796 22.76 205.596 22.76C206.383 22.76 207.063 22.92 207.636 23.24C208.223 23.56 208.67 24.06 208.976 24.74C209.296 25.4067 209.456 26.2867 209.456 27.38V27.88H207.556Z" fill="white"/>
<path d="M156.78 33H153.669V36.1111H156.78V33ZM156.78 19V15.8889H153.669V19H156.78ZM158.74 19H161.851V15.8889H158.74V19ZM158.74 31.2H155.629V34.3111H158.74V31.2ZM165.24 31.2H168.351V28.0889H165.24V31.2ZM165.24 33V36.1111H168.351V33H165.24ZM159.891 33V19H153.669V33H159.891ZM156.78 22.1111H158.74V15.8889H156.78V22.1111ZM155.629 19V31.2H161.851V19H155.629ZM158.74 34.3111H165.24V28.0889H158.74V34.3111ZM162.129 31.2V33H168.351V31.2H162.129ZM165.24 29.8889H156.78V36.1111H165.24V29.8889ZM168.688 32.58L167.095 35.2519L167.112 35.2623L167.13 35.2724L168.688 32.58ZM166.888 30.72L164.154 32.2033L164.163 32.221L164.173 32.2387L166.888 30.72ZM166.888 25.28L169.623 26.7633L166.888 25.28ZM168.668 23.44L170.227 26.1324L170.245 26.1223L170.262 26.1119L168.668 23.44ZM173.908 23.44L172.315 26.1119L172.332 26.1223L172.35 26.1324L173.908 23.44ZM175.688 25.28L178.423 23.7967V23.7967L175.688 25.28ZM175.688 30.72L178.423 32.2033V32.2033L175.688 30.72ZM173.908 32.58L175.488 35.2603L175.495 35.2561L175.502 35.2519L173.908 32.58ZM172.928 31.06L174.584 33.694L174.611 33.6772L174.637 33.66L172.928 31.06ZM174.008 29.82L171.24 28.4003L171.225 28.4287L171.211 28.4574L174.008 29.82ZM174.008 26.18L171.211 27.5426L171.225 27.5713L171.24 27.5997L174.008 26.18ZM172.908 24.96L171.233 27.5817L171.259 27.5985L171.286 27.6147L172.908 24.96ZM169.668 24.96L171.324 27.594L171.351 27.5772L171.377 27.56L169.668 24.96ZM168.568 26.18L171.337 27.5997V27.5997L168.568 26.18ZM168.568 29.82L171.337 28.4003V28.4003L168.568 29.82ZM169.688 31.06L168.013 33.6817L168.039 33.6985L168.066 33.7147L169.688 31.06ZM171.328 30.1289C170.798 30.1289 170.471 30.017 170.247 29.8876L167.13 35.2724C168.426 36.023 169.858 36.3511 171.328 36.3511V30.1289ZM170.282 29.9081C170 29.7396 169.782 29.5212 169.604 29.2013L164.173 32.2387C164.874 33.4922 165.857 34.5137 167.095 35.2519L170.282 29.9081ZM169.623 29.2367C169.478 28.9686 169.359 28.5856 169.359 28H163.137C163.137 29.4677 163.446 30.898 164.154 32.2033L169.623 29.2367ZM169.359 28C169.359 27.4144 169.478 27.0314 169.623 26.7633L164.154 23.7967C163.446 25.102 163.137 26.5323 163.137 28H169.359ZM169.623 26.7633C169.782 26.4701 169.973 26.2796 170.227 26.1324L167.11 20.7476C165.844 21.4804 164.848 22.5165 164.154 23.7967L169.623 26.7633ZM170.262 26.1119C170.486 25.9781 170.797 25.8711 171.288 25.8711V19.6489C169.807 19.6489 168.37 19.9952 167.075 20.7681L170.262 26.1119ZM171.288 25.8711C171.78 25.8711 172.09 25.9781 172.315 26.1119L175.502 20.7681C174.206 19.9952 172.77 19.6489 171.288 19.6489V25.8711ZM172.35 26.1324C172.604 26.2796 172.795 26.4701 172.954 26.7633L178.423 23.7967C177.729 22.5165 176.733 21.4804 175.467 20.7476L172.35 26.1324ZM172.954 26.7633C173.099 27.0314 173.217 27.4144 173.217 28H179.439C179.439 26.5323 179.131 25.102 178.423 23.7967L172.954 26.7633ZM173.217 28C173.217 28.5856 173.099 28.9686 172.954 29.2367L178.423 32.2033C179.131 30.898 179.439 29.4677 179.439 28H173.217ZM172.954 29.2367C172.79 29.5377 172.589 29.7446 172.315 29.9081L175.502 35.2519C176.748 34.5087 177.733 33.4756 178.423 32.2033L172.954 29.2367ZM172.329 29.8997C172.118 30.0241 171.816 30.1289 171.328 30.1289V36.3511C172.787 36.3511 174.206 36.0159 175.488 35.2603L172.329 29.8997ZM171.328 34.6111C172.46 34.6111 173.578 34.3265 174.584 33.694L171.273 28.426C171.284 28.4191 171.297 28.4117 171.313 28.4049C171.328 28.398 171.342 28.3933 171.353 28.3903C171.377 28.3837 171.373 28.3889 171.328 28.3889V34.6111ZM174.637 33.66C175.588 33.0348 176.316 32.1865 176.805 31.1826L171.211 28.4574C171.204 28.4723 171.199 28.4797 171.198 28.4814C171.197 28.4831 171.198 28.481 171.202 28.4767C171.206 28.4723 171.211 28.4678 171.215 28.464C171.219 28.4602 171.221 28.4589 171.22 28.46L174.637 33.66ZM176.777 31.2397C177.307 30.2055 177.519 29.0955 177.519 28H171.297C171.297 28.2912 171.243 28.3945 171.24 28.4003L176.777 31.2397ZM177.519 28C177.519 26.9045 177.307 25.7945 176.777 24.7603L171.24 27.5997C171.243 27.6055 171.297 27.7088 171.297 28H177.519ZM176.805 24.8174C176.299 23.7794 175.532 22.9175 174.531 22.3053L171.286 27.6147C171.283 27.6129 171.275 27.6078 171.265 27.599C171.254 27.5901 171.243 27.5797 171.233 27.5683C171.21 27.5435 171.205 27.5296 171.211 27.5426L176.805 24.8174ZM174.583 22.3383C173.576 21.6946 172.449 21.3889 171.288 21.3889V27.6111C171.306 27.6111 171.313 27.6122 171.312 27.6121C171.311 27.612 171.305 27.611 171.293 27.6078C171.282 27.6046 171.27 27.6002 171.258 27.5948C171.246 27.5894 171.238 27.5845 171.233 27.5817L174.583 22.3383ZM171.288 21.3889C170.13 21.3889 168.983 21.6873 167.96 22.36L171.377 27.56C171.362 27.5696 171.345 27.5795 171.325 27.5884C171.305 27.5974 171.288 27.6037 171.273 27.6078C171.242 27.6165 171.243 27.6111 171.288 27.6111V21.3889ZM168.013 22.326C167.044 22.9349 166.306 23.7741 165.8 24.7603L171.337 27.5997C171.346 27.5809 171.353 27.5706 171.356 27.5667C171.358 27.563 171.358 27.5641 171.354 27.5683C171.35 27.5726 171.345 27.578 171.338 27.5834C171.332 27.5889 171.326 27.5924 171.324 27.594L168.013 22.326ZM165.8 24.7603C165.27 25.7945 165.057 26.9045 165.057 28H171.279C171.279 27.7088 171.334 27.6055 171.337 27.5997L165.8 24.7603ZM165.057 28C165.057 29.0955 165.27 30.2055 165.8 31.2397L171.337 28.4003C171.334 28.3945 171.279 28.2912 171.279 28H165.057ZM165.8 31.2397C166.311 32.2368 167.056 33.0703 168.013 33.6817L171.363 28.4383C171.357 28.434 171.354 28.4319 171.355 28.4322C171.355 28.4325 171.356 28.4336 171.357 28.4347C171.358 28.4357 171.357 28.4348 171.354 28.4306C171.351 28.4263 171.345 28.4167 171.337 28.4003L165.8 31.2397ZM168.066 33.7147C169.078 34.3332 170.196 34.6111 171.328 34.6111V28.3889C171.299 28.3889 171.28 28.3872 171.271 28.386C171.262 28.3848 171.26 28.384 171.264 28.3852C171.269 28.3864 171.277 28.3888 171.286 28.3929C171.296 28.3971 171.304 28.4015 171.311 28.4053L168.066 33.7147ZM180.73 37.06L181.467 34.0375L181.432 34.029L181.397 34.0212L180.73 37.06ZM179.35 36.64L178.124 39.4996L179.35 36.64ZM178.51 36.22L175.692 34.9024L174.54 37.3662L176.827 38.837L178.51 36.22ZM179.23 34.68L180.86 32.0304L177.889 30.2019L176.412 33.3624L179.23 34.68ZM179.97 35.04L181.266 32.2118L181.217 32.1891L181.166 32.1682L179.97 35.04ZM181.09 35.4L181.844 32.3818L181.8 32.3706L181.755 32.3608L181.09 35.4ZM184.15 35.18L182.759 32.3973L182.728 32.4126L182.698 32.4286L184.15 35.18ZM185.27 34.04L182.531 32.565L182.516 32.5925L182.502 32.6203L185.27 34.04ZM185.69 23V19.8889H182.579V23H185.69ZM187.59 23H190.701V19.8889H187.59V23ZM186.93 34.88L184.226 33.3415L184.21 33.369L184.195 33.3967L186.93 34.88ZM185.15 36.66L183.701 33.9069L183.691 33.9122L183.681 33.9176L185.15 36.66ZM179.99 32.24L178.313 34.8604L178.343 34.8798L178.374 34.8985L179.99 32.24ZM178.41 30.48L175.617 31.8517L175.632 31.8813L175.647 31.9107L178.41 30.48ZM178.41 25.18L175.637 23.7692L175.627 23.7887L175.617 23.8083L178.41 25.18ZM179.99 23.4L178.336 20.7647L178.325 20.7721L178.313 20.7796L179.99 23.4ZM184.53 23.4L182.753 25.9539L182.766 25.9628L182.779 25.9716L184.53 23.4ZM185.97 25.2L183.113 26.4315L183.126 26.4614L183.139 26.4911L185.97 25.2ZM185.97 30.5L183.139 29.2089L183.134 29.2203L183.129 29.2318L185.97 30.5ZM184.53 32.24L182.817 29.6429L182.804 29.6514L182.791 29.6601L184.53 32.24ZM184.31 30.82L186.11 33.3571L186.137 33.3381L186.164 33.3185L184.31 30.82ZM185.29 29.6L188.101 30.9318L188.108 30.9178L188.115 30.9037L185.29 29.6ZM185.29 26.06L182.478 27.3918V27.3918L185.29 26.06ZM184.29 24.88L182.489 27.4171L182.536 27.4499L182.583 27.481L184.29 24.88ZM181.27 24.88L182.94 27.5047L182.95 27.4984L182.96 27.492L181.27 24.88ZM180.23 29.6L177.433 30.9626L177.454 31.0061L177.477 31.049L180.23 29.6ZM181.29 30.82L179.511 33.3724L179.555 33.4029L179.6 33.432L181.29 30.82ZM182.55 34.1489C182.087 34.1489 181.733 34.1023 181.467 34.0375L179.993 40.0825C180.82 40.2843 181.679 40.3711 182.55 40.3711V34.1489ZM181.397 34.0212C180.976 33.9287 180.716 33.8405 180.575 33.7804L178.124 39.4996C178.731 39.7595 179.391 39.9513 180.063 40.0988L181.397 34.0212ZM180.575 33.7804C180.429 33.7178 180.323 33.6685 180.251 33.6323C180.174 33.5938 180.162 33.5837 180.192 33.603L176.827 38.837C177.233 39.0974 177.7 39.3175 178.124 39.4996L180.575 33.7804ZM181.328 37.5376L182.048 35.9976L176.412 33.3624L175.692 34.9024L181.328 37.5376ZM177.599 37.3296C177.974 37.5604 178.392 37.7528 178.773 37.9118L181.166 32.1682C181.048 32.119 180.963 32.0803 180.906 32.0524C180.845 32.0229 180.836 32.0152 180.86 32.0304L177.599 37.3296ZM178.674 37.8682C179.237 38.1266 179.831 38.3092 180.425 38.4392L181.755 32.3608C181.496 32.3041 181.342 32.2467 181.266 32.2118L178.674 37.8682ZM180.335 38.4182C181.049 38.5966 181.78 38.6711 182.51 38.6711V32.4489C182.199 32.4489 181.984 32.4168 181.844 32.3818L180.335 38.4182ZM182.51 38.6711C183.563 38.6711 184.619 38.4502 185.602 37.9314L182.698 32.4286C182.703 32.426 182.699 32.4293 182.678 32.4342C182.655 32.4395 182.602 32.4489 182.51 32.4489V38.6711ZM185.541 37.9627C186.667 37.3998 187.498 36.5136 188.038 35.4597L182.502 32.6203C182.498 32.6274 182.517 32.5896 182.571 32.5347C182.627 32.4777 182.693 32.4299 182.759 32.3973L185.541 37.9627ZM188.009 35.515C188.608 34.4031 188.801 33.1836 188.801 32.04H182.579C182.579 32.523 182.492 32.6369 182.531 32.565L188.009 35.515ZM188.801 32.04V23H182.579V32.04H188.801ZM185.69 26.1111H187.59V19.8889H185.69V26.1111ZM184.479 23V32H190.701V23H184.479ZM184.479 32C184.479 32.7594 184.333 33.1536 184.226 33.3415L189.634 36.4185C190.407 35.0597 190.701 33.5339 190.701 32H184.479ZM184.195 33.3967C184.049 33.6663 183.892 33.8061 183.701 33.9069L186.599 39.4131C187.927 38.7139 188.957 37.6671 189.665 36.3633L184.195 33.3967ZM183.681 33.9176C183.455 34.0384 183.109 34.1489 182.55 34.1489V40.3711C183.964 40.3711 185.351 40.0816 186.619 39.4024L183.681 33.9176ZM182.37 29.7489C181.952 29.7489 181.734 29.6593 181.606 29.5815L178.374 34.8985C179.606 35.6474 180.974 35.9711 182.37 35.9711V29.7489ZM181.667 29.6196C181.489 29.5058 181.324 29.3424 181.172 29.0493L175.647 31.9107C176.269 33.111 177.157 34.1209 178.313 34.8604L181.667 29.6196ZM181.202 29.1083C181.071 28.8403 180.961 28.4495 180.961 27.86H174.739C174.739 29.2439 175.002 30.5997 175.617 31.8517L181.202 29.1083ZM180.961 27.86C180.961 27.2093 181.078 26.8037 181.202 26.5517L175.617 23.8083C174.995 25.0763 174.739 26.4573 174.739 27.86H180.961ZM181.183 26.5908C181.338 26.2848 181.503 26.1256 181.667 26.0204L178.313 20.7796C177.144 21.5278 176.255 22.5552 175.637 23.7692L181.183 26.5908ZM181.643 26.0353C181.766 25.9584 181.97 25.8711 182.37 25.8711V19.6489C180.956 19.6489 179.574 19.9882 178.336 20.7647L181.643 26.0353ZM182.37 25.8711C182.632 25.8711 182.716 25.9283 182.753 25.9539L186.306 20.8461C185.117 20.0183 183.761 19.6489 182.37 19.6489V25.8711ZM182.779 25.9716C182.864 26.0296 182.987 26.1387 183.113 26.4315L188.827 23.9685C188.286 22.7146 187.449 21.6238 186.281 20.8284L182.779 25.9716ZM183.139 26.4911C183.264 26.764 183.379 27.1992 183.379 27.88H189.601C189.601 26.5075 189.369 25.156 188.8 23.9089L183.139 26.4911ZM183.379 27.88C183.379 28.501 183.271 28.921 183.139 29.2089L188.8 31.7911C189.362 30.559 189.601 29.2324 189.601 27.88H183.379ZM183.129 29.2318C183.015 29.4873 182.905 29.585 182.817 29.6429L186.243 34.8371C187.408 34.0683 188.258 33.0061 188.811 31.7682L183.129 29.2318ZM182.791 29.6601C182.751 29.6872 182.653 29.7489 182.37 29.7489V35.9711C183.74 35.9711 185.082 35.6195 186.268 34.8199L182.791 29.6601ZM182.85 34.3711C183.984 34.3711 185.116 34.0629 186.11 33.3571L182.509 28.2829C182.578 28.2338 182.659 28.1949 182.737 28.1712C182.813 28.1484 182.856 28.1489 182.85 28.1489V34.3711ZM186.164 33.3185C187.023 32.6808 187.663 31.8579 188.101 30.9318L182.478 28.2682C182.455 28.3179 182.439 28.3366 182.439 28.3367C182.439 28.3371 182.441 28.335 182.444 28.3314C182.448 28.3277 182.452 28.3243 182.456 28.3215L186.164 33.3185ZM188.115 30.9037C188.572 29.9132 188.761 28.8635 188.761 27.82H182.539C182.539 28.1099 182.488 28.2468 182.465 28.2963L188.115 30.9037ZM188.761 27.82C188.761 26.7788 188.572 25.7225 188.101 24.7282L182.478 27.3918C182.487 27.4108 182.539 27.5278 182.539 27.82H188.761ZM188.101 24.7282C187.642 23.7576 186.948 22.903 185.997 22.279L182.583 27.481C182.544 27.4558 182.51 27.4248 182.486 27.3964C182.464 27.3694 182.464 27.3619 182.478 27.3918L188.101 24.7282ZM186.09 22.3429C185.096 21.6371 183.964 21.3289 182.83 21.3289V27.5511C182.836 27.5511 182.793 27.5516 182.717 27.5288C182.639 27.5051 182.558 27.4662 182.489 27.4171L186.09 22.3429ZM182.83 21.3289C181.698 21.3289 180.58 21.6207 179.58 22.268L182.96 27.492C182.925 27.5144 182.884 27.5332 182.844 27.5443C182.807 27.5548 182.798 27.5511 182.83 27.5511V21.3289ZM179.6 22.2553C178.643 22.8639 177.93 23.7026 177.447 24.6687L183.013 27.4513C183.029 27.4192 183.032 27.4217 183.014 27.4421C183.005 27.4517 182.994 27.463 182.98 27.4748C182.967 27.4866 182.953 27.4967 182.94 27.5047L179.6 22.2553ZM177.447 24.6687C176.943 25.6775 176.739 26.7554 176.739 27.82H182.961C182.961 27.5513 183.01 27.4559 183.013 27.4513L177.447 24.6687ZM176.739 27.82C176.739 28.8868 176.943 29.9578 177.433 30.9626L183.027 28.2374C183.01 28.2022 182.961 28.0866 182.961 27.82H176.739ZM177.477 31.049C177.959 31.9655 178.635 32.762 179.511 33.3724L183.069 28.2676C183.064 28.2647 183.034 28.2478 182.983 28.151L177.477 31.049ZM179.6 33.432C180.6 34.0793 181.718 34.3711 182.85 34.3711V28.1489C182.818 28.1489 182.827 28.1452 182.864 28.1557C182.904 28.1668 182.945 28.1856 182.98 28.208L179.6 33.432ZM195.569 33H192.458V36.1111H195.569V33ZM195.569 19V15.8889H192.458V19H195.569ZM197.529 19H200.64V15.8889H197.529V19ZM197.529 33V36.1111H200.64V33H197.529ZM198.68 33V19H192.458V33H198.68ZM195.569 22.1111H197.529V15.8889H195.569V22.1111ZM194.418 19V33H200.64V19H194.418ZM197.529 29.8889H195.569V36.1111H197.529V29.8889ZM200.636 33H197.525V36.1111H200.636V33ZM200.636 23V19.8889H197.525V23H200.636ZM202.416 23L205.521 22.7975L205.331 19.8889H202.416V23ZM202.536 24.84H205.648V24.7387L205.641 24.6375L202.536 24.84ZM202.536 33V36.1111H205.648V33H202.536ZM207.556 33H204.445V36.1111H207.556V33ZM207.556 27.88V24.7689H204.445V27.88H207.556ZM209.456 27.88H212.568V24.7689H209.456V27.88ZM209.456 33V36.1111H212.568V33H209.456ZM207.556 27.88H204.445V30.9911H207.556V27.88ZM207.236 25.82L204.365 27.0166L204.385 27.0654L204.407 27.1135L207.236 25.82ZM206.376 24.82L204.944 27.5819L204.965 27.5924L204.985 27.6027L206.376 24.82ZM205.116 24.52L205.203 21.4101L205.16 21.4089H205.116V24.52ZM203.216 25.38L205.657 27.3096L203.216 25.38ZM202.536 27.8V30.9111H205.648V27.8H202.536ZM201.716 27.8H198.605V30.9111H201.716V27.8ZM202.176 25.1L199.309 23.8927L199.304 23.9053L199.299 23.918L202.176 25.1ZM203.516 23.36L201.764 20.7895L201.75 20.7989L201.736 20.8085L203.516 23.36ZM207.636 23.24L206.12 25.9566L206.133 25.964L206.147 25.9712L207.636 23.24ZM208.976 24.74L206.14 26.019L206.156 26.0528L206.172 26.0863L208.976 24.74ZM209.456 27.88V30.9911H212.568V27.88H209.456ZM203.748 33V23H197.525V33H203.748ZM200.636 26.1111H202.416V19.8889H200.636V26.1111ZM199.312 23.2025L199.432 25.0425L205.641 24.6375L205.521 22.7975L199.312 23.2025ZM199.425 24.84V33H205.648V24.84H199.425ZM202.536 29.8889H200.636V36.1111H202.536V29.8889ZM210.668 33V27.88H204.445V33H210.668ZM207.556 30.9911H209.456V24.7689H207.556V30.9911ZM206.345 27.88V33H212.568V27.88H206.345ZM209.456 29.8889H207.556V36.1111H209.456V29.8889ZM210.668 27.88C210.668 26.8181 210.556 25.5996 210.066 24.5265L204.407 27.1135C204.362 27.0141 204.378 27.0086 204.402 27.1626C204.425 27.3087 204.445 27.5413 204.445 27.88H210.668ZM210.108 24.6234C209.694 23.6295 208.961 22.634 207.768 22.0373L204.985 27.6027C204.783 27.5016 204.624 27.368 204.513 27.2386C204.407 27.116 204.368 27.0254 204.365 27.0166L210.108 24.6234ZM207.809 22.0581C206.962 21.6192 206.066 21.4341 205.203 21.4101L205.03 27.6299C205.08 27.6313 205.09 27.6362 205.071 27.6315C205.05 27.6265 205.004 27.6128 204.944 27.5819L207.809 22.0581ZM205.116 21.4089C203.474 21.4089 201.891 22.0399 200.776 23.4504L205.657 27.3096C205.592 27.392 205.474 27.4972 205.314 27.5693C205.165 27.6368 205.078 27.6311 205.116 27.6311V21.4089ZM200.776 23.4504C199.738 24.7635 199.425 26.3488 199.425 27.8H205.648C205.648 27.4991 205.681 27.3295 205.702 27.2566C205.72 27.1915 205.72 27.2301 205.657 27.3096L200.776 23.4504ZM202.536 24.6889H201.716V30.9111H202.536V24.6889ZM204.828 27.8C204.828 27.0344 204.941 26.5583 205.054 26.282L199.299 23.918C198.799 25.1351 198.605 26.4589 198.605 27.8H204.828ZM205.044 26.3073C205.177 25.9904 205.286 25.9187 205.297 25.9115L201.736 20.8085C200.6 21.6013 199.816 22.6896 199.309 23.8927L205.044 26.3073ZM205.269 25.9305C205.275 25.9263 205.34 25.8711 205.596 25.8711V19.6489C204.253 19.6489 202.931 19.9937 201.764 20.7895L205.269 25.9305ZM205.596 25.8711C205.957 25.8711 206.094 25.9421 206.12 25.9566L209.153 20.5234C208.032 19.8979 206.809 19.6489 205.596 19.6489V25.8711ZM206.147 25.9712C206.139 25.9672 206.128 25.9603 206.116 25.9508C206.104 25.9412 206.096 25.9327 206.091 25.9277C206.087 25.9228 206.09 25.9249 206.098 25.9379C206.106 25.951 206.121 25.9768 206.14 26.019L211.812 23.461C211.261 22.2388 210.377 21.1909 209.126 20.5088L206.147 25.9712ZM206.172 26.0863C206.217 26.1807 206.345 26.548 206.345 27.38H212.568C212.568 26.0254 212.376 24.6326 211.781 23.3937L206.172 26.0863ZM206.345 27.38V27.88H212.568V27.38H206.345ZM209.456 24.7689H207.556V30.9911H209.456V24.7689Z" fill="#7E7E7E" fill-opacity="0.05" mask="url(#path-2-outside-1_1_352)"/>
</svg>
