<svg width="37" height="32" viewBox="0 0 37 32" fill="none" xmlns="http://www.w3.org/2000/svg">
<g filter="url(#filter0_d_238_559)">
<path d="M5.11137 0.000146211C4.96617 -0.00259366 4.82201 0.0331982 4.68726 0.105441C4.55252 0.177685 4.42988 0.284939 4.32647 0.42097C4.22307 0.557002 4.14095 0.719098 4.08491 0.897839C4.02886 1.07658 4 1.2684 4 1.46215C4 1.65591 4.02886 1.84773 4.08491 2.02647C4.14095 2.20521 4.22307 2.3673 4.32647 2.50334C4.42988 2.63937 4.55252 2.74662 4.68726 2.81887C4.82201 2.89111 4.96617 2.9269 5.11137 2.92416H19.3099C19.4551 2.9269 19.5992 2.89111 19.734 2.81887C19.8687 2.74662 19.9914 2.63937 20.0948 2.50334C20.1982 2.3673 20.2803 2.20521 20.3363 2.02647C20.3924 1.84773 20.4213 1.65591 20.4213 1.46215C20.4213 1.2684 20.3924 1.07658 20.3363 0.897839C20.2803 0.719098 20.1982 0.557002 20.0948 0.42097C19.9914 0.284939 19.8687 0.177685 19.734 0.105441C19.5992 0.0331982 19.4551 -0.00259366 19.3099 0.000146211H5.11137ZM5.11137 10.2342C4.96617 10.2315 4.82201 10.2672 4.68726 10.3395C4.55252 10.4117 4.42988 10.519 4.32647 10.655C4.22307 10.7911 4.14095 10.9531 4.08491 11.1319C4.02886 11.3106 4 11.5024 4 11.6962C4 11.89 4.02886 12.0818 4.08491 12.2605C4.14095 12.4393 4.22307 12.6014 4.32647 12.7374C4.42988 12.8734 4.55252 12.9807 4.68726 13.0529C4.82201 13.1252 4.96617 13.1609 5.11137 13.1582H27.9526C28.0979 13.1609 28.242 13.1252 28.3768 13.0529C28.5115 12.9807 28.6341 12.8734 28.7376 12.7374C28.841 12.6014 28.9231 12.4393 28.9791 12.2605C29.0352 12.0818 29.064 11.89 29.064 11.6962C29.064 11.5024 29.0352 11.3106 28.9791 11.1319C28.9231 10.9531 28.841 10.7911 28.7376 10.655C28.6341 10.519 28.5115 10.4117 28.3768 10.3395C28.242 10.2672 28.0979 10.2315 27.9526 10.2342H5.11137ZM5.11137 20.4682C4.96617 20.4655 4.82201 20.5013 4.68726 20.5735C4.55252 20.6458 4.42988 20.753 4.32647 20.8891C4.22307 21.0251 4.14095 21.1872 4.08491 21.3659C4.02886 21.5447 4 21.7365 4 21.9303C4 22.124 4.02886 22.3158 4.08491 22.4946C4.14095 22.6733 4.22307 22.8354 4.32647 22.9714C4.42988 23.1075 4.55252 23.2147 4.68726 23.287C4.82201 23.3592 4.96617 23.395 5.11137 23.3923H31.4098C31.555 23.395 31.6991 23.3592 31.8339 23.287C31.9686 23.2147 32.0912 23.1075 32.1947 22.9714C32.2981 22.8354 32.3802 22.6733 32.4362 22.4946C32.4923 22.3158 32.5211 22.124 32.5211 21.9303C32.5211 21.7365 32.4923 21.5447 32.4362 21.3659C32.3802 21.1872 32.2981 21.0251 32.1947 20.8891C32.0912 20.753 31.9686 20.6458 31.8339 20.5735C31.6991 20.5013 31.555 20.4655 31.4098 20.4682H5.11137Z" fill="#1C1D1C"/>
</g>
<defs>
<filter id="filter0_d_238_559" x="0" y="0" width="36.5211" height="31.3924" filterUnits="userSpaceOnUse" color-interpolation-filters="sRGB">
<feFlood flood-opacity="0" result="BackgroundImageFix"/>
<feColorMatrix in="SourceAlpha" type="matrix" values="0 0 0 0 0 0 0 0 0 0 0 0 0 0 0 0 0 0 127 0" result="hardAlpha"/>
<feOffset dy="4"/>
<feGaussianBlur stdDeviation="2"/>
<feComposite in2="hardAlpha" operator="out"/>
<feColorMatrix type="matrix" values="0 0 0 0 0 0 0 0 0 0 0 0 0 0 0 0 0 0 0.25 0"/>
<feBlend mode="normal" in2="BackgroundImageFix" result="effect1_dropShadow_238_559"/>
<feBlend mode="normal" in="SourceGraphic" in2="effect1_dropShadow_238_559" result="shape"/>
</filter>
</defs>
</svg>
