<svg width="66" height="66" viewBox="0 0 66 66" fill="none" xmlns="http://www.w3.org/2000/svg">
<circle cx="33" cy="33" r="33" fill="white"/>
<mask id="mask0_263_546" style="mask-type:alpha" maskUnits="userSpaceOnUse" x="0" y="0" width="66" height="66">
<circle cx="33" cy="33" r="33" fill="white"/>
</mask>
<g mask="url(#mask0_263_546)">
<path d="M13.3831 58.3318C13.3831 58.3318 9.73554 60.1556 7.45581 66.5388H16.1188L16.5747 58.3318H13.3831Z" fill="url(#paint0_linear_263_546)"/>
<path d="M52.5944 58.3318C52.5944 58.3318 56.242 60.1556 58.5217 66.5388H49.8588L49.4028 58.3318H52.5944Z" fill="url(#paint1_linear_263_546)"/>
<path d="M38.4603 54.6841C37.2794 55.4934 35.3444 56.0501 32.989 56.0519C30.6335 56.0501 28.6985 55.4934 27.5176 54.6841C24.0702 55.1268 17.0309 56.0519 13.3833 58.3317L15.663 66.5387H49.8589L52.5946 58.3317C48.947 56.0519 41.9077 55.1268 38.4603 54.6841Z" fill="url(#paint2_linear_263_546)"/>
<path d="M27.5178 49.2135H38.4605V58.7884H27.5178V49.2135Z" fill="url(#paint3_linear_263_546)"/>
<path d="M31.1648 58.7874H34.8124V66.5385H31.1648V58.7874Z" fill="#24BE79"/>
<path d="M24.7815 56.5088C24.7815 58.8811 27.0357 62.4174 27.5172 62.892L32.9885 58.7885C28.6292 58.3093 27.5153 54.266 27.5153 53.3172C27.5153 53.3172 24.7815 53.6226 24.7815 56.5088Z" fill="#24BE79"/>
<path d="M41.1955 56.5085C41.1955 58.8808 38.9413 62.4171 38.4599 62.8918L32.9885 58.7883C37.3478 58.3091 38.4617 54.2657 38.4617 53.3169C38.4617 53.3169 41.1955 53.6224 41.1955 56.5085Z" fill="#24BE79"/>
<path d="M41.6519 11.826C40.9214 11.1461 40.1928 10.7476 39.3721 10.4581C37.9706 9.96342 35.0265 9.99762 32.9889 10.0022C30.9513 9.99762 28.0072 9.96342 26.6057 10.4581C25.785 10.7476 25.0564 11.1461 24.3259 11.826C22.4981 13.528 20.3227 17.4318 19.3105 21.8568H46.6673C45.6551 17.4318 43.4798 13.528 41.6519 11.826Z" fill="url(#paint4_linear_263_546)"/>
<path d="M58.9778 29.161C58.9778 34.2015 47.3416 38.2881 32.9889 38.2881C18.6353 38.2881 7 34.2015 7 29.161C7 24.1196 18.6353 20.033 32.9889 20.033C47.3416 20.033 58.9778 24.1196 58.9778 29.161Z" fill="url(#paint5_linear_263_546)"/>
<path d="M49.4028 38.6625C49.4028 40.6769 47.9738 42.8312 46.2111 42.8312C44.4485 42.8312 43.0195 40.6769 43.0195 38.6625C43.0195 36.6482 44.4485 35.5361 46.2111 35.5361C47.9738 35.5361 49.4028 36.6482 49.4028 38.6625Z" fill="url(#paint6_linear_263_546)"/>
<path d="M22.9579 38.6625C22.9579 40.6769 21.529 42.8312 19.7663 42.8312C18.0036 42.8312 16.5747 40.6769 16.5747 38.6625C16.5747 36.6482 18.0036 35.5361 19.7663 35.5361C21.529 35.5361 22.9579 36.6482 22.9579 38.6625Z" fill="url(#paint7_linear_263_546)"/>
<path d="M44.3874 29.1522H21.5901C20.5697 29.3998 19.7664 30.3819 19.7664 31.4319V38.7302C19.7664 46.4781 25.6936 52.4054 32.9888 52.4054C40.2839 52.4054 46.2112 46.4781 46.2112 38.7302V31.4319C46.2112 30.3787 45.4119 29.397 44.3874 29.1522Z" fill="url(#paint8_linear_263_546)"/>
<path d="M20.7234 27.3132C19.5904 28.5634 18.8545 30.171 18.8545 31.8859C18.8545 35.2184 19.7664 38.726 19.7664 38.726C20.3322 35.6146 21.1342 32.3427 23.4139 30.5709C24.3997 29.8049 25.38 28.966 26.6056 29.2031C28.505 29.5706 30.8062 30.1314 32.9888 30.115C35.1714 30.1314 37.4666 29.6025 39.3661 29.235C40.5917 28.9979 41.835 29.5573 42.5637 30.5709C43.8444 32.3518 45.6454 35.6146 46.2112 38.726C46.2112 38.726 47.1231 35.2184 47.1231 31.8859C47.1231 30.1715 46.3872 28.5638 45.2546 27.3136C37.5058 24.8898 28.1207 24.9108 20.7234 27.3132Z" fill="url(#paint9_linear_263_546)"/>
<path d="M48.6823 56.6567C47.4799 56.2842 46.206 55.9746 44.9458 55.7151L43.0199 63.8036C42.8626 64.4059 42.2744 64.7155 41.652 64.7155H32.9891H24.3261C23.7038 64.7155 23.1156 64.4059 22.9583 63.8036L21.0324 55.7151C19.7721 55.9741 18.4978 56.2842 17.2959 56.6567L18.8548 62.8917C19.1484 64.0667 19.3107 65.3283 19.3107 66.5393H32.9891H46.6674C46.6674 65.3283 46.8298 64.0667 47.1234 62.8917L48.6823 56.6567Z" fill="url(#paint10_linear_263_546)"/>
<path d="M32.9887 61.5235C33.2405 61.5235 33.4446 61.3193 33.4446 61.0675C33.4446 60.8157 33.2405 60.6116 32.9887 60.6116C32.7368 60.6116 32.5327 60.8157 32.5327 61.0675C32.5327 61.3193 32.7368 61.5235 32.9887 61.5235Z" fill="url(#paint11_linear_263_546)"/>
<path d="M32.9887 63.3473C33.2405 63.3473 33.4446 63.1432 33.4446 62.8914C33.4446 62.6396 33.2405 62.4354 32.9887 62.4354C32.7368 62.4354 32.5327 62.6396 32.5327 62.8914C32.5327 63.1432 32.7368 63.3473 32.9887 63.3473Z" fill="url(#paint12_linear_263_546)"/>
<path d="M27.0622 40.0944C27.8176 40.0944 28.43 39.2778 28.43 38.2706C28.43 37.2633 27.8176 36.4468 27.0622 36.4468C26.3067 36.4468 25.6943 37.2633 25.6943 38.2706C25.6943 39.2778 26.3067 40.0944 27.0622 40.0944Z" fill="url(#paint13_linear_263_546)"/>
<path d="M38.9167 40.0944C39.6721 40.0944 40.2845 39.2778 40.2845 38.2706C40.2845 37.2633 39.6721 36.4468 38.9167 36.4468C38.1612 36.4468 37.5488 37.2633 37.5488 38.2706C37.5488 39.2778 38.1612 40.0944 38.9167 40.0944Z" fill="url(#paint14_linear_263_546)"/>
<path d="M29.7974 34.1645C29.7148 34.1645 29.6319 34.1421 29.5566 34.0956C27.022 32.5176 25.371 33.579 24.6662 34.0327L24.5704 34.0943C24.357 34.2288 24.0757 34.1649 23.9412 33.9525C23.8067 33.7395 23.8701 33.4582 24.083 33.3233L24.1733 33.2658C24.9502 32.7656 27.0156 31.4388 30.039 33.3219C30.2529 33.455 30.3181 33.7363 30.1849 33.9497C30.0983 34.0883 29.9496 34.1645 29.7974 34.1645Z" fill="url(#paint15_linear_263_546)"/>
<path d="M36.1812 34.1649C36.0289 34.1649 35.8803 34.0888 35.7936 33.9502C35.6605 33.7363 35.7257 33.455 35.9395 33.3223C38.9634 31.4384 41.0284 32.7665 41.8057 33.2663L41.8956 33.3237C42.1085 33.4582 42.1714 33.74 42.0374 33.9529C41.9029 34.1658 41.6211 34.2292 41.4082 34.0947L41.3124 34.0336C40.608 33.5804 38.9561 32.5185 36.4215 34.0965C36.3467 34.1426 36.2637 34.1649 36.1812 34.1649Z" fill="url(#paint16_linear_263_546)"/>
<path d="M32.9891 45.5656C33.6352 46.2883 34.8836 46.4788 36.1807 46.4788C39.3723 46.4788 40.7402 43.7432 40.7402 43.7432C38.0902 44.0569 37.6397 43.7345 36.1807 42.8313C34.9634 42.0776 34.0045 42.2709 32.9891 43.2859C31.9737 42.2705 31.0149 42.0749 29.7975 42.8285C28.3385 43.7318 27.888 44.0541 25.238 43.7404C25.238 43.7404 26.6059 46.4761 29.7975 46.4761C31.0947 46.4761 32.343 46.2883 32.9891 45.5656Z" fill="url(#paint17_linear_263_546)"/>
<path d="M32.9891 52.4048C39.0819 52.4048 44.2272 48.2685 45.7555 42.3918C44.3444 43.8029 41.9657 47.2946 37.1022 48.3013C35.1977 48.6957 34.8129 47.8453 32.9891 47.8453C31.1653 47.8453 30.79 48.6957 28.8856 48.3013C24.022 47.2946 21.6433 43.8029 20.2322 42.3918C21.7605 48.2685 26.8963 52.4048 32.9891 52.4048Z" fill="url(#paint18_linear_263_546)"/>
<path d="M45.6664 18.539C45.1298 17.1077 44.4969 15.7974 43.834 14.6817C36.6236 13.3043 29.354 13.3043 22.1437 14.6817C21.4808 15.7978 20.8479 17.1077 20.3113 18.539C28.7695 16.8802 37.2848 16.883 45.6664 18.539Z" fill="url(#paint19_linear_263_546)"/>
</g>
<defs>
<linearGradient id="paint0_linear_263_546" x1="14.9105" y1="48.0406" x2="16.3923" y2="39.2637" gradientUnits="userSpaceOnUse">
<stop stop-color="#BADAF0"/>
<stop offset="1" stop-color="#9ECDEF"/>
</linearGradient>
<linearGradient id="paint1_linear_263_546" x1="49.9048" y1="41.155" x2="48.423" y2="32.378" gradientUnits="userSpaceOnUse">
<stop stop-color="#BADAF0"/>
<stop offset="1" stop-color="#9ECDEF"/>
</linearGradient>
<linearGradient id="paint2_linear_263_546" x1="-14.8379" y1="58.1894" x2="4.43355" y2="59.3033" gradientUnits="userSpaceOnUse">
<stop stop-color="#40E99D"/>
<stop offset="1" stop-color="#47E19C"/>
</linearGradient>
<linearGradient id="paint3_linear_263_546" x1="32.9892" y1="57.3444" x2="32.9892" y2="52.557" gradientUnits="userSpaceOnUse">
<stop stop-color="#F6CFBE"/>
<stop offset="1" stop-color="#EDAD99"/>
</linearGradient>
<linearGradient id="paint4_linear_263_546" x1="17.4681" y1="14.0542" x2="6.14558" y2="12.0781" gradientUnits="userSpaceOnUse">
<stop offset="0.0399" stop-color="#FB9E4B"/>
<stop offset="0.8094" stop-color="#F37E3E"/>
</linearGradient>
<linearGradient id="paint5_linear_263_546" x1="31.5973" y1="10.2379" x2="32.3574" y2="20.5728" gradientUnits="userSpaceOnUse">
<stop stop-color="#F5A519"/>
<stop offset="0.9973" stop-color="#FFB054"/>
</linearGradient>
<linearGradient id="paint6_linear_263_546" x1="46.2111" y1="25.3535" x2="46.2111" y2="47.5462" gradientUnits="userSpaceOnUse">
<stop stop-color="#F6CFBE"/>
<stop offset="1" stop-color="#EDAD99"/>
</linearGradient>
<linearGradient id="paint7_linear_263_546" x1="19.7663" y1="25.3535" x2="19.7663" y2="47.5462" gradientUnits="userSpaceOnUse">
<stop stop-color="#F6CFBE"/>
<stop offset="1" stop-color="#EDAD99"/>
</linearGradient>
<linearGradient id="paint8_linear_263_546" x1="32.9888" y1="51.3362" x2="32.9888" y2="65.9242" gradientUnits="userSpaceOnUse">
<stop stop-color="#F6CFBE"/>
<stop offset="1" stop-color="#EDAD99"/>
</linearGradient>
<linearGradient id="paint9_linear_263_546" x1="32.9888" y1="-41.2163" x2="32.9888" y2="27.9547" gradientUnits="userSpaceOnUse">
<stop stop-color="#92634D"/>
<stop offset="1" stop-color="#92634D"/>
</linearGradient>
<linearGradient id="paint10_linear_263_546" x1="33.7035" y1="81.7104" x2="31.8798" y2="17.7641" gradientUnits="userSpaceOnUse">
<stop stop-color="#22B573"/>
<stop offset="0.469195" stop-color="#25C17B"/>
</linearGradient>
<linearGradient id="paint11_linear_263_546" x1="34.9324" y1="61.0853" x2="37.0224" y2="61.104" gradientUnits="userSpaceOnUse">
<stop stop-color="#E2DCCA"/>
<stop offset="0.6667" stop-color="#F4EADD"/>
</linearGradient>
<linearGradient id="paint12_linear_263_546" x1="34.9159" y1="62.9087" x2="37.0055" y2="62.9278" gradientUnits="userSpaceOnUse">
<stop stop-color="#E2DCCA"/>
<stop offset="0.6667" stop-color="#F4EADD"/>
</linearGradient>
<linearGradient id="paint13_linear_263_546" x1="27.0622" y1="17.0691" x2="27.0622" y2="49.8972" gradientUnits="userSpaceOnUse">
<stop stop-color="#957E7F"/>
<stop offset="1" stop-color="#373638"/>
</linearGradient>
<linearGradient id="paint14_linear_263_546" x1="38.9167" y1="17.0691" x2="38.9167" y2="49.8972" gradientUnits="userSpaceOnUse">
<stop stop-color="#957E7F"/>
<stop offset="1" stop-color="#373638"/>
</linearGradient>
<linearGradient id="paint15_linear_263_546" x1="27.0621" y1="28.2372" x2="27.0621" y2="37.0137" gradientUnits="userSpaceOnUse">
<stop stop-color="#957E7F"/>
<stop offset="1" stop-color="#373638"/>
</linearGradient>
<linearGradient id="paint16_linear_263_546" x1="38.9164" y1="28.2376" x2="38.9164" y2="37.0141" gradientUnits="userSpaceOnUse">
<stop stop-color="#957E7F"/>
<stop offset="1" stop-color="#373638"/>
</linearGradient>
<linearGradient id="paint17_linear_263_546" x1="32.9891" y1="-41.2158" x2="32.9891" y2="27.9552" gradientUnits="userSpaceOnUse">
<stop stop-color="#92634D"/>
<stop offset="1" stop-color="#92634D"/>
</linearGradient>
<linearGradient id="paint18_linear_263_546" x1="32.9936" y1="-41.2158" x2="32.9936" y2="27.9552" gradientUnits="userSpaceOnUse">
<stop stop-color="#92634D"/>
<stop offset="1" stop-color="#92634D"/>
</linearGradient>
<linearGradient id="paint19_linear_263_546" x1="32.9888" y1="-5.50121" x2="32.9888" y2="47.6593" gradientUnits="userSpaceOnUse">
<stop offset="0.0487" stop-color="#F37E3E"/>
<stop offset="1" stop-color="#EA5C43"/>
</linearGradient>
</defs>
</svg>
