<svg width="39" height="39" viewBox="0 0 39 39" fill="none" xmlns="http://www.w3.org/2000/svg">
<g clip-path="url(#clip0_263_548)">
<path d="M30.123 18.1694L28.6 19.695V1.95C28.6 1.43283 28.3946 0.936838 28.0289 0.571142C27.6632 0.205446 27.1672 0 26.65 0L1.95 0C1.43283 0 0.936838 0.205446 0.571142 0.571142C0.205446 0.936838 0 1.43283 0 1.95L0 26.65C0 27.1672 0.205446 27.6632 0.571142 28.0289C0.936838 28.3946 1.43283 28.6 1.95 28.6H19.7002L18.1766 30.1236C17.6682 30.6 17.2607 31.1738 16.9783 31.8108C16.696 32.4478 16.5445 33.1351 16.533 33.8317C16.5214 34.5284 16.65 35.2203 16.9111 35.8663C17.1721 36.5123 17.5604 37.0993 18.0527 37.5923C18.545 38.0854 19.1315 38.4744 19.7771 38.7364C20.4227 38.9984 21.1145 39.1279 21.8112 39.1174C22.5078 39.1068 23.1953 38.9563 23.8327 38.6749C24.4701 38.3934 25.0444 37.9868 25.5216 37.479L30.1269 32.8796C30.5919 32.4059 30.9596 31.8457 31.2091 31.2305C31.8341 30.975 32.4019 30.5976 32.8796 30.1203L37.4751 25.5242C37.9582 25.0413 38.3414 24.468 38.6029 23.8369C38.8643 23.2059 38.9989 22.5296 38.9989 21.8465C38.9989 21.1634 38.8643 20.4871 38.6029 19.8561C38.3414 19.225 37.9582 18.6517 37.4751 18.1688C36.4975 17.1988 35.1761 16.6546 33.7989 16.6547C32.4217 16.6548 31.1004 17.1993 30.123 18.1694ZM1.95 27.3C1.77761 27.3 1.61228 27.2315 1.49038 27.1096C1.36848 26.9877 1.3 26.8224 1.3 26.65V1.95C1.3 1.77761 1.36848 1.61228 1.49038 1.49038C1.61228 1.36848 1.77761 1.3 1.95 1.3H26.65C26.8224 1.3 26.9877 1.36848 27.1096 1.49038C27.2315 1.61228 27.3 1.77761 27.3 1.95V20.995L25.5249 22.7701C25.0609 23.2429 24.6945 23.8024 24.4465 24.4166C23.8182 24.6699 23.2482 25.0488 22.7715 25.5301L21.0002 27.3H1.95ZM30.1262 25.5281C29.8139 25.2178 29.463 24.9489 29.0823 24.7279L32.8803 20.93C33.001 20.8093 33.1443 20.7135 33.3021 20.6481C33.4598 20.5828 33.6289 20.5492 33.7997 20.5492C33.9704 20.5492 34.1395 20.5828 34.2973 20.6481C34.455 20.7135 34.5984 20.8093 34.7191 20.93C34.8398 21.0507 34.9356 21.1941 35.001 21.3518C35.0663 21.5096 35.0999 21.6787 35.0999 21.8494C35.0999 22.0202 35.0663 22.1893 35.001 22.347C34.9356 22.5048 34.8398 22.6481 34.7191 22.7688L30.916 26.572C30.6999 26.1907 30.4344 25.8397 30.1262 25.5281ZM25.5249 30.1171C25.8345 30.4296 26.1842 30.6998 26.5649 30.9205L22.7663 34.7191C22.5199 34.95 22.1934 35.0759 21.8558 35.0703C21.5182 35.0647 21.196 34.928 20.9574 34.6891C20.7189 34.4502 20.5826 34.1278 20.5775 33.7902C20.5724 33.4526 20.6988 33.1263 20.93 32.8802L24.741 29.0693C24.955 29.4515 25.2186 29.8039 25.5249 30.1171ZM29.2065 31.9631L24.6045 36.5592C24.2466 36.9401 23.8159 37.2452 23.3379 37.4563C22.8599 37.6675 22.3443 37.7804 21.8218 37.7884C21.2992 37.7964 20.7804 37.6993 20.2962 37.5028C19.8119 37.3064 19.3721 37.0147 19.0028 36.6449C18.6335 36.2752 18.3422 35.835 18.1464 35.3505C17.9505 34.866 17.854 34.3471 17.8626 33.8246C17.8713 33.3021 17.9848 32.7866 18.1965 32.3089C18.4082 31.8311 18.7138 31.4007 19.0951 31.0433L23.6938 26.4446C23.8104 26.3284 23.9344 26.2198 24.065 26.1196C24.032 26.6701 24.083 27.2225 24.2164 27.7576L20.0109 31.9631C19.5233 32.4507 19.2494 33.112 19.2494 33.8016C19.2494 34.4912 19.5233 35.1525 20.0109 35.6401C20.4985 36.1278 21.1598 36.4017 21.8494 36.4017C22.539 36.4017 23.2003 36.1278 23.688 35.6401L28.2848 31.044C28.7711 30.5557 29.0442 29.8946 29.0442 29.2055C29.0442 28.5163 28.7711 27.8552 28.2848 27.3669C28.0685 27.1496 27.9359 26.8629 27.9106 26.5573C27.8853 26.2517 27.9688 25.9471 28.1463 25.6971C28.5401 25.8854 28.8986 26.1397 29.2065 26.4492C29.9202 27.1895 30.319 28.1778 30.319 29.2061C30.319 30.2345 29.9202 31.2228 29.2065 31.9631ZM36.558 24.6051L31.9625 29.2012C31.8472 29.3155 31.725 29.4225 31.5965 29.5217C31.63 28.9704 31.5785 28.4173 31.4438 27.8818L35.6382 23.6873C36.1258 23.1997 36.3997 22.5384 36.3997 21.8488C36.3997 21.1592 36.1258 20.4979 35.6382 20.0103C35.1506 19.5226 34.4893 19.2487 33.7997 19.2487C33.1101 19.2487 32.4488 19.5226 31.9612 20.0103L27.365 24.6064C26.878 25.0944 26.6045 25.7558 26.6045 26.4452C26.6045 27.1347 26.878 27.7961 27.365 28.2841C27.581 28.5015 27.7133 28.7881 27.7385 29.0935C27.7637 29.399 27.6803 29.7035 27.5028 29.9533C27.1107 29.7669 26.7541 29.5135 26.4492 29.2045C25.7497 28.4559 25.3603 27.4698 25.3597 26.4452C25.3591 25.4207 25.7473 24.4341 26.4459 23.6847L31.0408 19.0892C31.5861 18.5433 32.2811 18.1714 33.0378 18.0206C33.7946 17.8698 34.5791 17.9469 35.292 18.2421C36.0049 18.5372 36.6143 19.0373 37.0429 19.6789C37.4715 20.3205 37.7002 21.0749 37.7 21.8465C37.7015 22.359 37.6013 22.8667 37.4053 23.3402C37.2093 23.8137 36.9213 24.2436 36.558 24.6051Z" fill="black"/>
<path d="M5.2 12.35H10.4C10.9172 12.35 11.4132 12.1446 11.7789 11.7789C12.1446 11.4132 12.35 10.9172 12.35 10.4V5.2C12.35 4.68283 12.1446 4.18684 11.7789 3.82114C11.4132 3.45545 10.9172 3.25 10.4 3.25H5.2C4.68283 3.25 4.18684 3.45545 3.82114 3.82114C3.45545 4.18684 3.25 4.68283 3.25 5.2V10.4C3.25 10.9172 3.45545 11.4132 3.82114 11.7789C4.18684 12.1446 4.68283 12.35 5.2 12.35ZM4.55 5.2C4.55 5.02761 4.61848 4.86228 4.74038 4.74038C4.86228 4.61848 5.02761 4.55 5.2 4.55H10.4C10.5724 4.55 10.7377 4.61848 10.8596 4.74038C10.9815 4.86228 11.05 5.02761 11.05 5.2V10.4C11.05 10.5724 10.9815 10.7377 10.8596 10.8596C10.7377 10.9815 10.5724 11.05 10.4 11.05H5.2C5.02761 11.05 4.86228 10.9815 4.74038 10.8596C4.61848 10.7377 4.55 10.5724 4.55 10.4V5.2Z" fill="black"/>
<path d="M7.1501 9.75001H8.4501C8.79488 9.75001 9.12554 9.61304 9.36934 9.36925C9.61313 9.12545 9.7501 8.79479 9.7501 8.45001V7.15001C9.7501 6.80522 9.61313 6.47456 9.36934 6.23077C9.12554 5.98697 8.79488 5.85001 8.4501 5.85001H7.1501C6.80532 5.85001 6.47466 5.98697 6.23086 6.23077C5.98706 6.47456 5.8501 6.80522 5.8501 7.15001V8.45001C5.8501 8.79479 5.98706 9.12545 6.23086 9.36925C6.47466 9.61304 6.80532 9.75001 7.1501 9.75001ZM7.1501 7.15001H8.4501V8.45001H7.1501V7.15001Z" fill="black"/>
<path d="M20.1501 9.75001H21.4501C21.7949 9.75001 22.1255 9.61304 22.3693 9.36925C22.6131 9.12545 22.7501 8.79479 22.7501 8.45001V7.15001C22.7501 6.80522 22.6131 6.47456 22.3693 6.23077C22.1255 5.98697 21.7949 5.85001 21.4501 5.85001H20.1501C19.8053 5.85001 19.4747 5.98697 19.2309 6.23077C18.9871 6.47456 18.8501 6.80522 18.8501 7.15001V8.45001C18.8501 8.79479 18.9871 9.12545 19.2309 9.36925C19.4747 9.61304 19.8053 9.75001 20.1501 9.75001ZM20.1501 7.15001H21.4501V8.45001H20.1501V7.15001Z" fill="black"/>
<path d="M18.2 12.35H23.4C23.9172 12.35 24.4132 12.1446 24.7789 11.7789C25.1446 11.4132 25.35 10.9172 25.35 10.4V5.2C25.35 4.68283 25.1446 4.18684 24.7789 3.82114C24.4132 3.45545 23.9172 3.25 23.4 3.25H18.2C17.6828 3.25 17.1868 3.45545 16.8211 3.82114C16.4554 4.18684 16.25 4.68283 16.25 5.2V10.4C16.25 10.9172 16.4554 11.4132 16.8211 11.7789C17.1868 12.1446 17.6828 12.35 18.2 12.35ZM17.55 5.2C17.55 5.02761 17.6185 4.86228 17.7404 4.74038C17.8623 4.61848 18.0276 4.55 18.2 4.55H23.4C23.5724 4.55 23.7377 4.61848 23.8596 4.74038C23.9815 4.86228 24.05 5.02761 24.05 5.2V10.4C24.05 10.5724 23.9815 10.7377 23.8596 10.8596C23.7377 10.9815 23.5724 11.05 23.4 11.05H18.2C18.0276 11.05 17.8623 10.9815 17.7404 10.8596C17.6185 10.7377 17.55 10.5724 17.55 10.4V5.2Z" fill="black"/>
<path d="M10.4 16.25H5.2C4.68283 16.25 4.18684 16.4554 3.82114 16.8211C3.45545 17.1868 3.25 17.6828 3.25 18.2V23.4C3.25 23.9172 3.45545 24.4132 3.82114 24.7789C4.18684 25.1446 4.68283 25.35 5.2 25.35H10.4C10.9172 25.35 11.4132 25.1446 11.7789 24.7789C12.1446 24.4132 12.35 23.9172 12.35 23.4V18.2C12.35 17.6828 12.1446 17.1868 11.7789 16.8211C11.4132 16.4554 10.9172 16.25 10.4 16.25ZM11.05 23.4C11.05 23.5724 10.9815 23.7377 10.8596 23.8596C10.7377 23.9815 10.5724 24.05 10.4 24.05H5.2C5.02761 24.05 4.86228 23.9815 4.74038 23.8596C4.61848 23.7377 4.55 23.5724 4.55 23.4V18.2C4.55 18.0276 4.61848 17.8623 4.74038 17.7404C4.86228 17.6185 5.02761 17.55 5.2 17.55H10.4C10.5724 17.55 10.7377 17.6185 10.8596 17.7404C10.9815 17.8623 11.05 18.0276 11.05 18.2V23.4Z" fill="black"/>
<path d="M8.4501 18.85H7.1501C6.80532 18.85 6.47466 18.987 6.23086 19.2308C5.98706 19.4746 5.8501 19.8052 5.8501 20.15V21.45C5.8501 21.7948 5.98706 22.1254 6.23086 22.3692C6.47466 22.613 6.80532 22.75 7.1501 22.75H8.4501C8.79488 22.75 9.12554 22.613 9.36934 22.3692C9.61313 22.1254 9.7501 21.7948 9.7501 21.45V20.15C9.7501 19.8052 9.61313 19.4746 9.36934 19.2308C9.12554 18.987 8.79488 18.85 8.4501 18.85ZM8.4501 21.45H7.1501V20.15H8.4501V21.45Z" fill="black"/>
<path d="M14.2999 7.8C14.4723 7.8 14.6376 7.73152 14.7595 7.60962C14.8814 7.48772 14.9499 7.32239 14.9499 7.15V3.9C14.9499 3.72761 14.8814 3.56228 14.7595 3.44038C14.6376 3.31848 14.4723 3.25 14.2999 3.25C14.1275 3.25 13.9622 3.31848 13.8403 3.44038C13.7184 3.56228 13.6499 3.72761 13.6499 3.9V7.15C13.6499 7.32239 13.7184 7.48772 13.8403 7.60962C13.9622 7.73152 14.1275 7.8 14.2999 7.8Z" fill="black"/>
<path d="M24.7 14.95C24.8723 14.95 25.0377 14.8815 25.1596 14.7596C25.2815 14.6377 25.35 14.4724 25.35 14.3C25.35 14.1276 25.2815 13.9623 25.1596 13.8404C25.0377 13.7185 24.8723 13.65 24.7 13.65H14.95V9.75001C14.95 9.57762 14.8815 9.41229 14.7596 9.29039C14.6377 9.16849 14.4723 9.10001 14.3 9.10001C14.1276 9.10001 13.9622 9.16849 13.8403 9.29039C13.7184 9.41229 13.65 9.57762 13.65 9.75001V13.65H12.35C12.1776 13.65 12.0122 13.7185 11.8903 13.8404C11.7684 13.9623 11.7 14.1276 11.7 14.3C11.7 14.4724 11.7684 14.6377 11.8903 14.7596C12.0122 14.8815 12.1776 14.95 12.35 14.95H13.65V24.7C13.65 24.8724 13.7184 25.0377 13.8403 25.1596C13.9622 25.2815 14.1276 25.35 14.3 25.35C14.4723 25.35 14.6377 25.2815 14.7596 25.1596C14.8815 25.0377 14.95 24.8724 14.95 24.7V14.95H24.7Z" fill="black"/>
<path d="M3.9 14.95H9.75C9.92239 14.95 10.0877 14.8815 10.2096 14.7596C10.3315 14.6377 10.4 14.4724 10.4 14.3C10.4 14.1276 10.3315 13.9623 10.2096 13.8404C10.0877 13.7185 9.92239 13.65 9.75 13.65H3.9C3.72761 13.65 3.56228 13.7185 3.44038 13.8404C3.31848 13.9623 3.25 14.1276 3.25 14.3C3.25 14.4724 3.31848 14.6377 3.44038 14.7596C3.56228 14.8815 3.72761 14.95 3.9 14.95Z" fill="black"/>
<path d="M24.05 16.25H21.45C21.2777 16.25 21.1123 16.3185 20.9904 16.4404C20.8685 16.5623 20.8 16.7276 20.8 16.9C20.8 17.0724 20.8685 17.2377 20.9904 17.3596C21.1123 17.4815 21.2777 17.55 21.45 17.55H24.05V20.8C24.05 20.9724 24.1185 21.1377 24.2404 21.2596C24.3623 21.3815 24.5277 21.45 24.7 21.45C24.8724 21.45 25.0378 21.3815 25.1597 21.2596C25.2816 21.1377 25.35 20.9724 25.35 20.8V17.55C25.35 17.2052 25.2131 16.8746 24.9693 16.6308C24.7255 16.387 24.3948 16.25 24.05 16.25Z" fill="black"/>
<path d="M21.45 24.05H16.9C16.7276 24.05 16.5623 24.1185 16.4404 24.2404C16.3185 24.3623 16.25 24.5276 16.25 24.7C16.25 24.8724 16.3185 25.0377 16.4404 25.1596C16.5623 25.2815 16.7276 25.35 16.9 25.35H21.45C21.6224 25.35 21.7877 25.2815 21.9096 25.1596C22.0315 25.0377 22.1 24.8724 22.1 24.7C22.1 24.5276 22.0315 24.3623 21.9096 24.2404C21.7877 24.1185 21.6224 24.05 21.45 24.05Z" fill="black"/>
<path d="M17.55 16.25C17.2052 16.25 16.8746 16.387 16.6308 16.6308C16.387 16.8746 16.25 17.2052 16.25 17.55V22.1C16.25 22.2724 16.3185 22.4377 16.4404 22.5596C16.5623 22.6815 16.7276 22.75 16.9 22.75C17.0724 22.75 17.2377 22.6815 17.3596 22.5596C17.4815 22.4377 17.55 22.2724 17.55 22.1V17.55H18.85C19.0224 17.55 19.1877 17.4815 19.3096 17.3596C19.4315 17.2377 19.5 17.0724 19.5 16.9C19.5 16.7276 19.4315 16.5623 19.3096 16.4404C19.1877 16.3185 19.0224 16.25 18.85 16.25H17.55Z" fill="black"/>
<path d="M22.1001 18.85H20.1501C19.8053 18.85 19.4747 18.987 19.2309 19.2308C18.9871 19.4746 18.8501 19.8052 18.8501 20.15V22.1C18.8501 22.2724 18.9186 22.4377 19.0405 22.5596C19.1624 22.6815 19.3277 22.75 19.5001 22.75C19.6725 22.75 19.8378 22.6815 19.9597 22.5596C20.0816 22.4377 20.1501 22.2724 20.1501 22.1V20.15H22.1001C22.2725 20.15 22.4378 20.0815 22.5597 19.9596C22.6816 19.8377 22.7501 19.6724 22.7501 19.5C22.7501 19.3276 22.6816 19.1623 22.5597 19.0404C22.4378 18.9185 22.2725 18.85 22.1001 18.85Z" fill="black"/>
</g>
<defs>
<clipPath id="clip0_263_548">
<rect width="39" height="39" fill="white"/>
</clipPath>
</defs>
</svg>
