<svg width="46" height="46" viewBox="0 0 46 46" fill="none" xmlns="http://www.w3.org/2000/svg">
<g clip-path="url(#clip0_2_1283)">
<path d="M16.1943 14.1045C16.5653 14.1045 16.866 13.8038 16.866 13.4328C16.866 13.0619 16.5653 12.7612 16.1943 12.7612C15.8234 12.7612 15.5227 13.0619 15.5227 13.4328C15.5227 13.8038 15.8234 14.1045 16.1943 14.1045Z" fill="#1C1D1C"/>
<path d="M21.5674 14.1045C21.9383 14.1045 22.239 13.8038 22.239 13.4328C22.239 13.0619 21.9383 12.7612 21.5674 12.7612C21.1965 12.7612 20.8958 13.0619 20.8958 13.4328C20.8958 13.8038 21.1965 14.1045 21.5674 14.1045Z" fill="#1C1D1C"/>
<path d="M37.0152 14.1043C35.5336 14.1043 34.3286 15.3092 34.3286 16.7909V16.9145C33.5489 17.1925 32.9853 17.9313 32.9853 18.8058V20.3795C32.9853 21.2768 33.3353 22.1203 33.9693 22.7544L34.2749 23.06L33.1667 28.9711L30.3364 26.707C28.3147 25.0897 25.9183 23.9029 23.4064 23.2756L22.1215 22.9545L21.8495 21.8685C23.4393 21.2801 24.6234 19.8583 24.8719 18.1342H24.9256C26.4073 18.1342 27.6122 16.9292 27.6122 15.4476C27.6122 15.4254 27.6062 15.4053 27.6055 15.3831C30.2041 14.3851 31.6421 12.9921 31.6421 11.4177C31.6421 9.48946 29.4646 7.86072 26.0379 6.91774L25.3004 3.50043C24.9968 2.09132 23.8262 1.03281 22.3868 0.86759C20.1174 0.606321 17.643 0.606321 15.3742 0.86759C13.9349 1.03281 12.7642 2.09132 12.4606 3.50043L11.7239 6.91774C8.29714 7.86072 6.11967 9.48946 6.11967 11.4177C6.11967 12.9921 7.55766 14.3851 10.1562 15.3831C10.1556 15.4053 10.1495 15.4254 10.1495 15.4476C10.1495 16.9292 11.3544 18.1342 12.8361 18.1342H12.8898C13.1383 19.8583 14.3224 21.2795 15.9122 21.8685L15.6462 22.9324C14.3191 23.1755 13.0665 23.6396 11.9065 24.3146L7.74102 20.1491H7.46296C6.08072 20.1491 4.95236 21.2022 4.80594 22.5462C3.93415 23.5073 3.43311 24.778 3.43311 26.0783V31.567C3.43311 32.3078 4.03557 32.9103 4.77639 32.9103H6.21975C6.16064 33.3858 6.11967 33.8647 6.11967 34.3496V34.9252C6.11967 36.7769 7.62617 38.2834 9.47788 38.2834H10.1495V42.3133H29.9052L27.6122 40.0203V34.7136L33.168 37.7448C33.8155 38.0974 34.5469 38.2834 35.2837 38.2834C37.7197 38.2834 39.7018 36.3014 39.7018 33.8653V16.7909C39.7018 15.3092 38.4968 14.1043 37.0152 14.1043ZM17.4859 24.9043L15.8531 25.8836L15.2506 24.3777C15.5287 24.3086 15.8121 24.2568 16.0976 24.2105L17.4859 24.9043ZM21.6467 24.2192L22.4896 24.4301L21.9086 25.8836L20.2759 24.9043L21.6467 24.2192ZM19.9092 16.7909C20.9052 16.7909 21.7629 17.5344 21.9033 18.521L22.1444 20.2102C21.599 20.5924 20.9388 20.8207 20.2242 20.8207H17.5376C16.823 20.8207 16.1627 20.5924 15.6174 20.2102L15.8585 18.521C15.9989 17.5344 16.8559 16.7909 17.8526 16.7909H19.9092ZM24.9256 16.7909V14.1043C25.6665 14.1043 26.2689 14.7068 26.2689 15.4476C26.2689 16.1884 25.6665 16.7909 24.9256 16.7909ZM15.528 2.20147C17.6954 1.95363 20.067 1.95363 22.2337 2.20147C23.1001 2.30155 23.8053 2.93759 23.9874 3.78319L23.9907 3.79729C20.7796 3.23714 16.9815 3.23714 13.771 3.79729L13.7744 3.78319C13.9564 2.93759 14.6616 2.30222 15.528 2.20147ZM13.4641 5.22184C16.8015 4.55356 20.9609 4.55356 24.2983 5.22184L24.5912 6.58057C22.8892 6.23871 20.9623 6.0446 18.8809 6.0446C16.7994 6.0446 14.8725 6.23871 13.1706 6.58057L13.4641 5.22184ZM11.4928 15.4476C11.4928 14.7068 12.0953 14.1043 12.8361 14.1043V16.7909C12.0953 16.7909 11.4928 16.1884 11.4928 15.4476ZM12.8361 12.663V12.761C11.8508 12.761 10.9978 13.2997 10.5297 14.0915C8.6034 13.3333 7.46296 12.3554 7.46296 11.4177C7.46296 9.51162 12.1517 7.38789 18.8809 7.38789C25.61 7.38789 30.2988 9.51162 30.2988 11.4177C30.2988 12.3554 29.1583 13.3333 27.2321 14.0915C26.7639 13.2997 25.9109 12.761 24.9256 12.761V12.663C24.9256 10.4949 23.1619 8.73117 20.9939 8.73117C20.388 8.73117 19.7795 8.8749 19.2355 9.14625L18.8809 9.32356L18.5262 9.14625C17.9822 8.8749 17.3744 8.73117 16.7679 8.73117C14.5998 8.73117 12.8361 10.4949 12.8361 12.663ZM14.1794 17.4625V12.663C14.1794 11.2357 15.3406 10.0745 16.7679 10.0745C17.1668 10.0745 17.5671 10.1692 17.9258 10.3478L18.8809 10.8254L19.8353 10.3478C20.1939 10.1692 20.5949 10.0745 20.9939 10.0745C22.4211 10.0745 23.5824 11.2357 23.5824 12.663V17.4625C23.5824 17.9387 23.4796 18.3901 23.3003 18.8004L23.2331 18.3309C22.9987 16.6874 21.5695 15.4476 19.9092 15.4476H19.5525V14.1043H18.2092V15.4476H17.8526C16.1923 15.4476 14.763 16.6874 14.5286 18.3309L14.4615 18.8004C14.2821 18.3901 14.1794 17.9387 14.1794 17.4625ZM17.5376 22.164H20.2242C20.3289 22.164 20.4324 22.1553 20.5351 22.1486L20.785 23.1473L18.8809 24.0997L16.9768 23.1473L17.2266 22.1486C17.3294 22.1553 17.4328 22.164 17.5376 22.164ZM13.9705 24.7928L15.0277 27.4357L12.8898 25.2979C13.2411 25.1085 13.6004 24.9386 13.9705 24.7928ZM15.9975 32.1574L15.8585 32.2964L8.83176 25.2697C8.93452 24.7317 9.359 24.3072 9.89699 24.2045L17.2743 31.5818C16.7927 31.6167 16.3421 31.8121 15.9975 32.1574ZM7.20908 21.5165L8.86803 23.1755C8.41803 23.4227 8.04997 23.7907 7.80281 24.2407L6.14385 22.5818C6.24661 22.0438 6.67109 21.6193 7.20908 21.5165ZM6.46825 31.567H4.77639V26.0783C4.77639 25.2737 5.03363 24.4845 5.49236 23.8297L8.71288 27.0502C7.6349 28.3827 6.87326 29.9221 6.46825 31.567ZM7.46296 34.9252V34.3496C7.46296 32.0351 8.24542 29.8106 9.66594 28.0039L14.573 32.9103H11.4928V31.567H10.1495V32.9103H8.80624V34.2536H15.8007L16.9472 33.1071C17.0728 32.9815 17.2454 32.9103 17.4221 32.9103H18.8809C19.2516 32.9103 19.5525 33.2112 19.5525 33.5819V36.2685C19.5525 36.6392 19.2516 36.9401 18.8809 36.9401H9.47788C8.36699 36.9401 7.46296 36.0361 7.46296 34.9252ZM11.4928 38.2834H18.8809C19.1912 38.2834 19.4813 38.2075 19.7439 38.0812L22.6327 40.97H11.4928V38.2834ZM24.5321 40.97L20.6936 37.1315C20.8199 36.8689 20.8958 36.5788 20.8958 36.2685V35.2033L26.6625 40.97H24.5321ZM26.2689 31.567V38.677L20.8642 33.2723C20.7299 32.4099 20.0522 31.7322 19.1898 31.5979L15.346 27.7541L18.8809 25.6337L22.5695 27.8474L23.7973 24.778C25.8606 25.3946 27.8191 26.4128 29.4968 27.7561L31.3479 29.2364L28.797 33.8291L27.6122 33.1836V31.567H26.2689ZM38.3585 33.8653C38.3585 35.5606 36.9789 36.9401 35.2837 36.9401C34.7706 36.9401 34.2621 36.8105 33.8115 36.5647L29.9757 34.4718L32.4118 30.0867L32.8866 30.4668L32.3258 33.457L33.6456 33.7048L35.7263 22.61L34.9197 21.8033C34.5389 21.4239 34.3286 20.9181 34.3286 20.3795V18.8058C34.3286 18.4351 34.6295 18.1342 35.0003 18.1342C35.371 18.1342 35.6719 18.4351 35.6719 18.8058V19.4774H37.0152V18.8058C37.0152 17.9313 36.4517 17.1925 35.6719 16.9145V16.7909C35.6719 16.0501 36.2744 15.4476 37.0152 15.4476C37.756 15.4476 38.3585 16.0501 38.3585 16.7909V33.8653Z" fill="#1C1D1C"/>
<path d="M18.2092 27.5373H19.5525V28.8806H18.2092V27.5373Z" fill="#1C1D1C"/>
</g>
<circle cx="35.672" cy="36.2687" r="9.23134" fill="white" stroke="black"/>
<path d="M35.8398 32.2383V40.6338" stroke="black" stroke-width="2" stroke-linecap="round"/>
<path d="M31.6421 36.4369L40.0376 36.4369" stroke="black" stroke-width="2" stroke-linecap="round"/>
<defs>
<clipPath id="clip0_2_1283">
<rect width="42.9851" height="42.9851" fill="white" transform="translate(0.0749512)"/>
</clipPath>
</defs>
</svg>
