<svg width="68" height="68" viewBox="0 0 68 68" fill="none" xmlns="http://www.w3.org/2000/svg">
<g opacity="0.3" clip-path="url(#clip0_2_2025)">
<path d="M46.6423 3.71449H21.3577C18.2516 3.71449 15.7246 6.24152 15.7246 9.3476V58.6521C15.7246 61.7582 18.2516 64.2852 21.3577 64.2852H46.6423C49.7484 64.2852 52.2754 61.7582 52.2754 58.6521V9.34774C52.2755 6.24152 49.7485 3.71449 46.6423 3.71449ZM21.3577 5.55235H46.6423C48.735 5.55235 50.4377 7.25501 50.4377 9.34774V13.173H17.5623V9.34774C17.5623 7.25501 19.265 5.55235 21.3577 5.55235ZM50.4377 15.0109V50.3383H17.5623V15.0109H50.4377ZM46.6423 62.4476H21.3577C19.265 62.4476 17.5623 60.745 17.5623 58.6523V52.1762H50.4377V58.6523C50.4377 60.745 48.735 62.4476 46.6423 62.4476ZM68 34C68 37.9772 66.4511 41.7163 63.6387 44.528C63.4593 44.7075 63.2241 44.7973 62.989 44.7973C62.7539 44.7973 62.5187 44.7075 62.3393 44.528C61.9803 44.1691 61.9803 43.5876 62.3393 43.2286C64.8047 40.7637 66.1621 37.4859 66.1621 34C66.1621 30.5134 64.8047 27.2361 62.3393 24.7707C61.9803 24.4117 61.9803 23.8303 62.3393 23.4713C62.6983 23.1123 63.2797 23.1123 63.6387 23.4713C66.4511 26.2837 68 30.0228 68 34ZM59.0514 28.0588C60.6385 29.6459 61.5126 31.756 61.5126 34C61.5126 36.244 60.6386 38.3541 59.0514 39.9407C58.8719 40.1201 58.6367 40.2099 58.4016 40.2099C58.1666 40.2099 57.9314 40.1201 57.7519 39.9407C57.3929 39.5817 57.3929 39.0003 57.7519 38.6413C58.9915 37.4017 59.6746 35.7535 59.6746 34C59.6746 32.2465 58.9915 30.5983 57.7519 29.3582C57.3929 28.9992 57.3929 28.4178 57.7519 28.0588C58.1109 27.6998 58.6924 27.6998 59.0514 28.0588ZM5.66073 24.7707C3.19534 27.2361 1.83786 30.5134 1.83786 34C1.83786 37.4861 3.19534 40.7639 5.66073 43.2286C6.01973 43.5876 6.01973 44.1691 5.66073 44.528C5.48131 44.7075 5.24609 44.7973 5.01102 44.7973C4.77594 44.7973 4.54073 44.7075 4.3613 44.528C1.54886 41.7163 0 37.9772 0 34C0 30.0228 1.54886 26.2837 4.3613 23.4713C4.72029 23.1123 5.30174 23.1123 5.66073 23.4713C6.01959 23.8303 6.01959 24.4117 5.66073 24.7707ZM10.2481 29.3582C9.00854 30.5984 8.32535 32.2466 8.32535 34C8.32535 35.7534 9.00854 37.4017 10.2481 38.6413C10.6071 39.0003 10.6071 39.5817 10.2481 39.9407C10.0686 40.1201 9.83344 40.2099 9.59836 40.2099C9.36328 40.2099 9.12807 40.1201 8.94864 39.9407C7.36153 38.3541 6.48736 36.2441 6.48736 34C6.48736 31.7559 7.3614 29.6459 8.94864 28.0588C9.30763 27.6998 9.88909 27.6998 10.2481 28.0588C10.6071 28.4176 10.6071 28.9992 10.2481 29.3582ZM37.3119 56.7212C37.3119 57.2285 36.9004 57.6401 36.393 57.6401H31.607C31.0996 57.6401 30.6881 57.2285 30.6881 56.7212C30.6881 56.2138 31.0996 55.8022 31.607 55.8022H36.393C36.9004 55.8022 37.3119 56.2138 37.3119 56.7212ZM28.946 9.36261C28.946 8.85527 29.3575 8.44368 29.8649 8.44368H38.1351C38.6425 8.44368 39.054 8.85527 39.054 9.36261C39.054 9.86995 38.6425 10.2815 38.1351 10.2815H29.8649C29.3575 10.2815 28.946 9.86995 28.946 9.36261ZM22.3144 34.027C23.7675 39.1689 26.8013 41.8163 31.171 41.8163C31.7808 41.8163 32.4198 41.759 33.0812 41.6553V46.6256C33.0812 47.1329 33.4928 47.5445 34.0001 47.5445C34.5075 47.5445 34.9191 47.1329 34.9191 46.6256V41.6553C35.5805 41.7589 36.2194 41.8163 36.8293 41.8163C41.1983 41.8163 44.2333 39.1691 45.6859 34.027C45.7637 33.7523 45.7093 33.4568 45.5387 33.2282C45.3682 32.9991 45.1014 32.8627 44.8161 32.8579C40.1731 32.7967 36.8621 33.9486 34.9192 36.3024V34.5111C36.8512 32.6821 37.9246 30.5299 38.0092 28.2556C38.105 25.6849 36.9467 23.0837 34.659 20.7331C34.3132 20.3777 33.6875 20.3777 33.3416 20.7331C31.054 23.0836 29.8957 25.6849 29.9915 28.2556C30.0761 30.5299 31.1494 32.6821 33.0815 34.5111V36.3018C31.1977 34.0135 28.028 32.8549 23.5932 32.8549C23.4585 32.8549 23.3216 32.8561 23.1845 32.8579C22.8991 32.8627 22.6323 32.9991 22.4619 33.2282C22.291 33.4568 22.2365 33.7523 22.3144 34.027ZM43.5379 34.709C42.0178 38.889 39.3077 40.5377 35.1163 39.833C36.0933 36.5736 38.8615 34.889 43.5379 34.709ZM31.8277 28.1868C31.7601 26.38 32.5085 24.5123 34 22.7408C35.4915 24.5123 36.2399 26.38 36.1723 28.1868C36.1269 29.4184 35.6984 30.6201 34.9189 31.7375V27.7476C34.9189 27.2402 34.5073 26.8287 34 26.8287C33.4927 26.8287 33.0811 27.2402 33.0811 27.7476V31.7375C32.3016 30.6201 31.8731 29.4182 31.8277 28.1868ZM32.8837 39.833C28.6929 40.5384 25.9822 38.889 24.4621 34.709C29.138 34.889 31.9067 36.5743 32.8837 39.833Z" fill="black"/>
</g>
<defs>
<clipPath id="clip0_2_2025">
<rect width="68" height="68" fill="white"/>
</clipPath>
</defs>
</svg>
