<svg width="169" height="30" viewBox="0 0 169 30" fill="none" xmlns="http://www.w3.org/2000/svg">
<path d="M24.0741 19.4445H5.55561C4.8189 19.4445 4.11236 19.7372 3.59142 20.2581C3.07049 20.779 2.77783 21.4856 2.77783 22.2223V25.0001C2.77783 25.7368 3.07049 26.4433 3.59142 26.9643C4.11236 27.4852 4.8189 27.7779 5.55561 27.7779H24.0741C24.8108 27.7779 25.5174 27.4852 26.0383 26.9643C26.5592 26.4433 26.8519 25.7368 26.8519 25.0001V22.2223C26.8519 21.4856 26.5592 20.779 26.0383 20.2581C25.5174 19.7372 24.8108 19.4445 24.0741 19.4445ZM25.0001 25.0001C25.0001 25.2456 24.9025 25.4812 24.7289 25.6548C24.5552 25.8284 24.3197 25.926 24.0741 25.926H5.55561C5.31004 25.926 5.07453 25.8284 4.90088 25.6548C4.72724 25.4812 4.62968 25.2456 4.62968 25.0001V22.2223C4.62968 21.9767 4.72724 21.7412 4.90088 21.5676C5.07453 21.3939 5.31004 21.2964 5.55561 21.2964H24.0741C24.3197 21.2964 24.5552 21.3939 24.7289 21.5676C24.9025 21.7412 25.0001 21.9767 25.0001 22.2223V25.0001Z" fill="white"/>
<path d="M20.0187 14.3617C20.148 14.3614 20.2757 14.334 20.3937 14.2814C20.5117 14.2288 20.6174 14.1521 20.7039 14.0561C20.8681 13.8742 20.9534 13.6347 20.9412 13.39C20.9291 13.1453 20.8205 12.9153 20.6391 12.7506C19.0398 11.3132 16.9654 10.518 14.815 10.518C12.6647 10.518 10.5903 11.3132 8.99096 12.7506C8.80801 12.9151 8.69792 13.1456 8.68489 13.3913C8.67845 13.5129 8.69602 13.6347 8.73662 13.7496C8.77722 13.8644 8.84005 13.9702 8.92152 14.0608C9.00299 14.1513 9.1015 14.225 9.21143 14.2775C9.32137 14.33 9.44057 14.3604 9.56223 14.3668C9.80794 14.3799 10.0488 14.2947 10.2317 14.1302C11.4898 12.998 13.1225 12.3716 14.815 12.3716C16.5076 12.3716 18.1402 12.998 19.3984 14.1302C19.5696 14.2812 19.7905 14.3636 20.0187 14.3617Z" fill="white"/>
<path d="M11.8797 15.982C11.7144 16.1505 11.6197 16.3758 11.6149 16.6119C11.6102 16.8479 11.6958 17.0768 11.8543 17.2518C12.0127 17.4269 12.2321 17.5347 12.4674 17.5534C12.7028 17.5721 12.9364 17.5002 13.1204 17.3523C13.593 16.9493 14.1938 16.7279 14.8149 16.7279C15.436 16.7279 16.0368 16.9493 16.5093 17.3523C16.6791 17.5067 16.9002 17.5925 17.1297 17.5931C17.3164 17.5926 17.4986 17.5357 17.6523 17.4298C17.8061 17.324 17.9243 17.1741 17.9914 16.9999C18.0584 16.8257 18.0713 16.6352 18.0282 16.4536C17.9852 16.2719 17.8882 16.1075 17.7501 15.982C16.9319 15.2829 15.891 14.8988 14.8149 14.8988C13.7387 14.8988 12.6979 15.2829 11.8797 15.982Z" fill="white"/>
<path d="M22.9074 11.1116C23.0941 11.1111 23.2763 11.0542 23.43 10.9483C23.5838 10.8424 23.702 10.6926 23.7691 10.5184C23.8362 10.3441 23.849 10.1537 23.8059 9.97205C23.7629 9.7904 23.6659 9.62601 23.5278 9.50044C21.133 7.35439 18.0305 6.16763 14.8148 6.16763C11.5992 6.16763 8.49661 7.35439 6.10185 9.50044C5.9192 9.66393 5.80883 9.89317 5.79495 10.1379C5.78106 10.3826 5.86479 10.6229 6.02777 10.806C6.10885 10.8978 6.20734 10.9726 6.31753 11.0261C6.42772 11.0796 6.54743 11.1106 6.66971 11.1175C6.792 11.1244 6.91444 11.107 7.02994 11.0662C7.14544 11.0255 7.25171 10.9622 7.34259 10.8801C9.3952 9.0373 12.0564 8.018 14.8148 8.018C17.5733 8.018 20.2344 9.0373 22.287 10.8801C22.4582 11.0311 22.6791 11.1135 22.9074 11.1116Z" fill="white"/>
<path d="M4.44459 7.66712C7.29563 5.11434 10.9881 3.70283 14.815 3.70283C18.6419 3.70283 22.3343 5.11434 25.1853 7.66712C25.3541 7.81599 25.5714 7.89828 25.7964 7.8986C25.9831 7.89812 26.1653 7.84121 26.3191 7.73535C26.4728 7.62949 26.591 7.47962 26.6581 7.3054C26.7252 7.13118 26.738 6.94076 26.695 6.7591C26.6519 6.57745 26.555 6.41306 26.4168 6.28749C23.2276 3.43084 19.0965 1.85123 14.815 1.85123C10.5334 1.85123 6.40235 3.43084 3.21311 6.28749C3.11509 6.36615 3.0341 6.46395 2.9751 6.57492C2.91609 6.68589 2.88029 6.80771 2.86988 6.93296C2.85947 7.05821 2.87467 7.18427 2.91455 7.30346C2.95444 7.42265 3.01817 7.53247 3.10186 7.62623C3.18555 7.71999 3.28746 7.79573 3.40137 7.84884C3.51528 7.90195 3.63882 7.93131 3.76444 7.93514C3.89007 7.93896 4.01515 7.91717 4.13209 7.8711C4.24902 7.82502 4.35535 7.75562 4.44459 7.66712Z" fill="white"/>
<path d="M12.037 22.6853H7.40737C7.1618 22.6853 6.92629 22.7828 6.75264 22.9565C6.579 23.1301 6.48145 23.3656 6.48145 23.6112C6.48145 23.8568 6.579 24.0923 6.75264 24.2659C6.92629 24.4396 7.1618 24.5371 7.40737 24.5371H12.037C12.2826 24.5371 12.5181 24.4396 12.6917 24.2659C12.8654 24.0923 12.9629 23.8568 12.9629 23.6112C12.9629 23.3656 12.8654 23.1301 12.6917 22.9565C12.5181 22.7828 12.2826 22.6853 12.037 22.6853Z" fill="white"/>
<path d="M22.2225 22.6853H21.2965C21.051 22.6853 20.8154 22.7828 20.6418 22.9565C20.4682 23.1301 20.3706 23.3656 20.3706 23.6112C20.3706 23.8568 20.4682 24.0923 20.6418 24.2659C20.8154 24.4396 21.051 24.5371 21.2965 24.5371H22.2225C22.468 24.5371 22.7035 24.4396 22.8772 24.2659C23.0508 24.0923 23.1484 23.8568 23.1484 23.6112C23.1484 23.3656 23.0508 23.1301 22.8772 22.9565C22.7035 22.7828 22.468 22.6853 22.2225 22.6853Z" fill="white"/>
<path d="M43.3748 23.0317C42.1508 23.0317 41.0648 22.7557 40.1168 22.2037C39.1688 21.6397 38.4248 20.8717 37.8848 19.8997C37.3448 18.9157 37.0748 17.7877 37.0748 16.5157C37.0748 15.2437 37.3448 14.1217 37.8848 13.1497C38.4248 12.1657 39.1628 11.3977 40.0988 10.8457C41.0468 10.2817 42.1328 9.9997 43.3568 9.9997C44.2208 9.9997 45.0248 10.1557 45.7688 10.4677C46.5128 10.7677 47.1608 11.1937 47.7128 11.7457C48.2768 12.2857 48.7088 12.9097 49.0088 13.6177L46.7228 14.4637C46.5188 14.0197 46.2488 13.6357 45.9128 13.3117C45.5768 12.9757 45.1928 12.7177 44.7608 12.5377C44.3288 12.3457 43.8608 12.2497 43.3568 12.2497C42.6248 12.2497 41.9708 12.4357 41.3948 12.8077C40.8308 13.1677 40.3868 13.6657 40.0628 14.3017C39.7508 14.9377 39.5948 15.6757 39.5948 16.5157C39.5948 17.3557 39.7568 18.0997 40.0808 18.7477C40.4048 19.3837 40.8548 19.8877 41.4308 20.2597C42.0068 20.6197 42.6668 20.7997 43.4108 20.7997C43.9268 20.7997 44.3948 20.7037 44.8148 20.5117C45.2468 20.3077 45.6248 20.0317 45.9488 19.6837C46.2848 19.3357 46.5548 18.9337 46.7588 18.4777L49.0448 19.3057C48.7448 20.0377 48.3128 20.6857 47.7488 21.2497C47.1968 21.8137 46.5488 22.2517 45.8048 22.5637C45.0608 22.8757 44.2508 23.0317 43.3748 23.0317ZM54.7438 23.0317C53.8318 23.0317 53.0158 22.8337 52.2958 22.4377C51.5878 22.0297 51.0298 21.4717 50.6218 20.7637C50.2258 20.0557 50.0278 19.2397 50.0278 18.3157C50.0278 17.3917 50.2258 16.5757 50.6218 15.8677C51.0178 15.1597 51.5698 14.6077 52.2778 14.2117C52.9858 13.8037 53.7958 13.5997 54.7078 13.5997C55.6318 13.5997 56.4478 13.8037 57.1558 14.2117C57.8638 14.6077 58.4158 15.1597 58.8118 15.8677C59.2078 16.5757 59.4058 17.3917 59.4058 18.3157C59.4058 19.2397 59.2078 20.0557 58.8118 20.7637C58.4158 21.4717 57.8638 22.0297 57.1558 22.4377C56.4598 22.8337 55.6558 23.0317 54.7438 23.0317ZM54.7438 20.8357C55.1878 20.8357 55.5778 20.7277 55.9138 20.5117C56.2498 20.2957 56.5078 20.0017 56.6878 19.6297C56.8798 19.2457 56.9758 18.8077 56.9758 18.3157C56.9758 17.8237 56.8798 17.3917 56.6878 17.0197C56.4958 16.6357 56.2258 16.3357 55.8778 16.1197C55.5418 15.9037 55.1518 15.7957 54.7078 15.7957C54.2758 15.7957 53.8858 15.9037 53.5378 16.1197C53.2018 16.3357 52.9378 16.6357 52.7458 17.0197C52.5538 17.3917 52.4578 17.8237 52.4578 18.3157C52.4578 18.8077 52.5538 19.2457 52.7458 19.6297C52.9378 20.0017 53.2078 20.2957 53.5558 20.5117C53.9038 20.7277 54.2998 20.8357 54.7438 20.8357ZM60.9728 22.8157V13.8157H63.2048L63.3488 15.4717V22.8157H60.9728ZM66.9308 22.8157V18.2077H69.3068V22.8157H66.9308ZM66.9308 18.2077C66.9308 17.5957 66.8588 17.1217 66.7148 16.7857C66.5828 16.4497 66.3908 16.2097 66.1388 16.0657C65.8868 15.9097 65.5928 15.8317 65.2568 15.8317C64.6448 15.8197 64.1708 16.0057 63.8348 16.3897C63.5108 16.7737 63.3488 17.3437 63.3488 18.0997H62.5568C62.5568 17.1397 62.6948 16.3297 62.9708 15.6697C63.2588 14.9977 63.6548 14.4877 64.1588 14.1397C64.6748 13.7797 65.2748 13.5997 65.9588 13.5997C66.6668 13.5997 67.2728 13.7437 67.7768 14.0317C68.2808 14.3197 68.6648 14.7697 68.9288 15.3817C69.1928 15.9817 69.3188 16.7617 69.3068 17.7217V18.2077H66.9308ZM71.2032 22.8157V13.8157H73.4352L73.5792 15.4717V22.8157H71.2032ZM77.1612 22.8157V18.2077H79.5372V22.8157H77.1612ZM77.1612 18.2077C77.1612 17.5957 77.0892 17.1217 76.9452 16.7857C76.8132 16.4497 76.6212 16.2097 76.3692 16.0657C76.1172 15.9097 75.8232 15.8317 75.4872 15.8317C74.8752 15.8197 74.4012 16.0057 74.0652 16.3897C73.7412 16.7737 73.5792 17.3437 73.5792 18.0997H72.7872C72.7872 17.1397 72.9252 16.3297 73.2012 15.6697C73.4892 14.9977 73.8852 14.4877 74.3892 14.1397C74.9052 13.7797 75.5052 13.5997 76.1892 13.5997C76.8972 13.5997 77.5032 13.7437 78.0072 14.0317C78.5112 14.3197 78.8952 14.7697 79.1592 15.3817C79.4232 15.9817 79.5492 16.7617 79.5372 17.7217V18.2077H77.1612ZM85.5017 23.0317C84.6137 23.0317 83.8277 22.8337 83.1437 22.4377C82.4597 22.0297 81.9197 21.4717 81.5237 20.7637C81.1397 20.0557 80.9477 19.2397 80.9477 18.3157C80.9477 17.3917 81.1457 16.5757 81.5417 15.8677C81.9497 15.1597 82.5017 14.6077 83.1977 14.2117C83.9057 13.8037 84.7157 13.5997 85.6277 13.5997C86.4197 13.5997 87.1457 13.8097 87.8057 14.2297C88.4777 14.6377 89.0117 15.2437 89.4077 16.0477C89.8157 16.8397 90.0197 17.8057 90.0197 18.9457H83.1977L83.4137 18.7297C83.4137 19.1737 83.5217 19.5637 83.7377 19.8997C83.9657 20.2237 84.2537 20.4757 84.6017 20.6557C84.9617 20.8237 85.3457 20.9077 85.7537 20.9077C86.2457 20.9077 86.6477 20.8057 86.9597 20.6017C87.2717 20.3857 87.5117 20.1097 87.6797 19.7737L89.8037 20.6017C89.5517 21.1057 89.2217 21.5437 88.8137 21.9157C88.4177 22.2757 87.9437 22.5517 87.3917 22.7437C86.8397 22.9357 86.2097 23.0317 85.5017 23.0317ZM83.5397 17.3977L83.3237 17.1817H87.6617L87.4637 17.3977C87.4637 16.9657 87.3617 16.6237 87.1577 16.3717C86.9537 16.1077 86.7017 15.9157 86.4017 15.7957C86.1137 15.6757 85.8317 15.6157 85.5557 15.6157C85.2797 15.6157 84.9857 15.6757 84.6737 15.7957C84.3617 15.9157 84.0917 16.1077 83.8637 16.3717C83.6477 16.6237 83.5397 16.9657 83.5397 17.3977ZM95.7385 23.0317C94.8025 23.0317 93.9685 22.8337 93.2365 22.4377C92.5045 22.0297 91.9345 21.4717 91.5265 20.7637C91.1185 20.0437 90.9145 19.2277 90.9145 18.3157C90.9145 17.3917 91.1185 16.5757 91.5265 15.8677C91.9345 15.1597 92.4985 14.6077 93.2185 14.2117C93.9385 13.8037 94.7665 13.5997 95.7025 13.5997C96.6025 13.5997 97.4245 13.8217 98.1685 14.2657C98.9125 14.7097 99.4525 15.3517 99.7885 16.1917L97.5565 16.9837C97.3885 16.6357 97.1245 16.3597 96.7645 16.1557C96.4165 15.9397 96.0265 15.8317 95.5945 15.8317C95.1505 15.8317 94.7605 15.9397 94.4245 16.1557C94.0885 16.3597 93.8245 16.6477 93.6325 17.0197C93.4405 17.3917 93.3445 17.8237 93.3445 18.3157C93.3445 18.8077 93.4405 19.2397 93.6325 19.6117C93.8245 19.9717 94.0945 20.2597 94.4425 20.4757C94.7905 20.6917 95.1865 20.7997 95.6305 20.7997C96.0625 20.7997 96.4525 20.6857 96.8005 20.4577C97.1605 20.2297 97.4245 19.9297 97.5925 19.5577L99.8425 20.3497C99.4945 21.2017 98.9485 21.8617 98.2045 22.3297C97.4725 22.7977 96.6505 23.0317 95.7385 23.0317ZM104.935 23.0317C103.939 23.0317 103.183 22.7857 102.667 22.2937C102.163 21.8017 101.911 21.0997 101.911 20.1877V11.0077H104.287V19.6657C104.287 20.0497 104.371 20.3437 104.539 20.5477C104.707 20.7397 104.953 20.8357 105.277 20.8357C105.397 20.8357 105.529 20.8117 105.673 20.7637C105.817 20.7037 105.967 20.6197 106.123 20.5117L106.951 22.2937C106.663 22.5097 106.339 22.6837 105.979 22.8157C105.631 22.9597 105.283 23.0317 104.935 23.0317ZM100.453 15.8317V13.8157H106.537V15.8317H100.453ZM113.1 22.8157V10.2157H117.132C118.416 10.2157 119.55 10.4857 120.534 11.0257C121.53 11.5657 122.304 12.3097 122.856 13.2577C123.42 14.1937 123.702 15.2797 123.702 16.5157C123.702 17.7397 123.42 18.8257 122.856 19.7737C122.304 20.7217 121.53 21.4657 120.534 22.0057C119.55 22.5457 118.416 22.8157 117.132 22.8157H113.1ZM115.566 20.5117H117.132C117.708 20.5117 118.242 20.4097 118.734 20.2057C119.226 20.0017 119.652 19.7197 120.012 19.3597C120.384 18.9997 120.672 18.5797 120.876 18.0997C121.08 17.6077 121.182 17.0797 121.182 16.5157C121.182 15.9517 121.08 15.4297 120.876 14.9497C120.672 14.4577 120.384 14.0317 120.012 13.6717C119.652 13.3117 119.226 13.0297 118.734 12.8257C118.242 12.6217 117.708 12.5197 117.132 12.5197H115.566V20.5117ZM129.429 23.0317C128.541 23.0317 127.755 22.8337 127.071 22.4377C126.387 22.0297 125.847 21.4717 125.451 20.7637C125.067 20.0557 124.875 19.2397 124.875 18.3157C124.875 17.3917 125.073 16.5757 125.469 15.8677C125.877 15.1597 126.429 14.6077 127.125 14.2117C127.833 13.8037 128.643 13.5997 129.555 13.5997C130.347 13.5997 131.073 13.8097 131.733 14.2297C132.405 14.6377 132.939 15.2437 133.335 16.0477C133.743 16.8397 133.947 17.8057 133.947 18.9457H127.125L127.341 18.7297C127.341 19.1737 127.449 19.5637 127.665 19.8997C127.893 20.2237 128.181 20.4757 128.529 20.6557C128.889 20.8237 129.273 20.9077 129.681 20.9077C130.173 20.9077 130.575 20.8057 130.887 20.6017C131.199 20.3857 131.439 20.1097 131.607 19.7737L133.731 20.6017C133.479 21.1057 133.149 21.5437 132.741 21.9157C132.345 22.2757 131.871 22.5517 131.319 22.7437C130.767 22.9357 130.137 23.0317 129.429 23.0317ZM127.467 17.3977L127.251 17.1817H131.589L131.391 17.3977C131.391 16.9657 131.289 16.6237 131.085 16.3717C130.881 16.1077 130.629 15.9157 130.329 15.7957C130.041 15.6757 129.759 15.6157 129.483 15.6157C129.207 15.6157 128.913 15.6757 128.601 15.7957C128.289 15.9157 128.019 16.1077 127.791 16.3717C127.575 16.6237 127.467 16.9657 127.467 17.3977ZM137.93 22.8157L141.35 13.8157H143.798L140.108 22.8157H137.93ZM137.732 22.8157L134.042 13.8157H136.49L139.91 22.8157H137.732ZM145.087 22.8157V13.8157H147.463V22.8157H145.087ZM146.275 12.3577C145.915 12.3577 145.597 12.2257 145.321 11.9617C145.045 11.6857 144.907 11.3617 144.907 10.9897C144.907 10.6177 145.045 10.2997 145.321 10.0357C145.597 9.7597 145.915 9.6217 146.275 9.6217C146.647 9.6217 146.965 9.7597 147.229 10.0357C147.505 10.2997 147.643 10.6177 147.643 10.9897C147.643 11.3617 147.505 11.6857 147.229 11.9617C146.965 12.2257 146.647 12.3577 146.275 12.3577ZM153.992 23.0317C153.056 23.0317 152.222 22.8337 151.49 22.4377C150.758 22.0297 150.188 21.4717 149.78 20.7637C149.372 20.0437 149.168 19.2277 149.168 18.3157C149.168 17.3917 149.372 16.5757 149.78 15.8677C150.188 15.1597 150.752 14.6077 151.472 14.2117C152.192 13.8037 153.02 13.5997 153.956 13.5997C154.856 13.5997 155.678 13.8217 156.422 14.2657C157.166 14.7097 157.706 15.3517 158.042 16.1917L155.81 16.9837C155.642 16.6357 155.378 16.3597 155.018 16.1557C154.67 15.9397 154.28 15.8317 153.848 15.8317C153.404 15.8317 153.014 15.9397 152.678 16.1557C152.342 16.3597 152.078 16.6477 151.886 17.0197C151.694 17.3917 151.598 17.8237 151.598 18.3157C151.598 18.8077 151.694 19.2397 151.886 19.6117C152.078 19.9717 152.348 20.2597 152.696 20.4757C153.044 20.6917 153.44 20.7997 153.884 20.7997C154.316 20.7997 154.706 20.6857 155.054 20.4577C155.414 20.2297 155.678 19.9297 155.846 19.5577L158.096 20.3497C157.748 21.2017 157.202 21.8617 156.458 22.3297C155.726 22.7977 154.904 23.0317 153.992 23.0317ZM163.549 23.0317C162.661 23.0317 161.875 22.8337 161.191 22.4377C160.507 22.0297 159.967 21.4717 159.571 20.7637C159.187 20.0557 158.995 19.2397 158.995 18.3157C158.995 17.3917 159.193 16.5757 159.589 15.8677C159.997 15.1597 160.549 14.6077 161.245 14.2117C161.953 13.8037 162.763 13.5997 163.675 13.5997C164.467 13.5997 165.193 13.8097 165.853 14.2297C166.525 14.6377 167.059 15.2437 167.455 16.0477C167.863 16.8397 168.067 17.8057 168.067 18.9457H161.245L161.461 18.7297C161.461 19.1737 161.569 19.5637 161.785 19.8997C162.013 20.2237 162.301 20.4757 162.649 20.6557C163.009 20.8237 163.393 20.9077 163.801 20.9077C164.293 20.9077 164.695 20.8057 165.007 20.6017C165.319 20.3857 165.559 20.1097 165.727 19.7737L167.851 20.6017C167.599 21.1057 167.269 21.5437 166.861 21.9157C166.465 22.2757 165.991 22.5517 165.439 22.7437C164.887 22.9357 164.257 23.0317 163.549 23.0317ZM161.587 17.3977L161.371 17.1817H165.709L165.511 17.3977C165.511 16.9657 165.409 16.6237 165.205 16.3717C165.001 16.1077 164.749 15.9157 164.449 15.7957C164.161 15.6757 163.879 15.6157 163.603 15.6157C163.327 15.6157 163.033 15.6757 162.721 15.7957C162.409 15.9157 162.139 16.1077 161.911 16.3717C161.695 16.6237 161.587 16.9657 161.587 17.3977Z" fill="white"/>
</svg>
