<svg width="73" height="84" viewBox="0 0 73 84" fill="none" xmlns="http://www.w3.org/2000/svg">
<mask id="mask0_258_581" style="mask-type:alpha" maskUnits="userSpaceOnUse" x="0" y="0" width="73" height="84">
<path d="M25.6844 27.0377C26.431 27.0377 27.0362 26.4325 27.0362 25.6859C27.0362 24.9393 26.431 24.334 25.6844 24.334C24.9378 24.334 24.3325 24.9393 24.3325 25.6859C24.3325 26.4325 24.9378 27.0377 25.6844 27.0377Z" fill="white"/>
<path d="M36.4998 27.0377C37.2464 27.0377 37.8517 26.4325 37.8517 25.6859C37.8517 24.9393 37.2464 24.334 36.4998 24.334C35.7532 24.334 35.1479 24.9393 35.1479 25.6859C35.1479 26.4325 35.7532 27.0377 36.4998 27.0377Z" fill="white"/>
<path d="M67.5926 27.0367C64.6104 27.0367 62.1852 29.4619 62.1852 32.4441V32.6928C60.6157 33.2525 59.4815 34.7395 59.4815 36.4997V39.667C59.4815 41.4731 60.1858 43.171 61.4619 44.4472L62.077 45.0623L59.8465 56.9599L54.1498 52.4028C50.0807 49.1476 45.2573 46.7589 40.2014 45.4962L37.6153 44.85L37.0678 42.6641C40.2676 41.4799 42.6509 38.618 43.1511 35.1478H43.2593C46.2414 35.1478 48.6667 32.7226 48.6667 29.7404C48.6667 29.6958 48.6545 29.6552 48.6531 29.6106C53.8835 27.6018 56.7778 24.798 56.7778 21.6293C56.7778 17.7481 52.3951 14.4699 45.4979 12.5719L44.0136 5.69366C43.4026 2.85748 41.0463 0.726958 38.1493 0.394403C33.5814 -0.131468 28.6011 -0.131468 24.0346 0.394403C21.1376 0.726958 18.7813 2.85748 18.1702 5.69366L16.6873 12.5719C9.79011 14.4699 5.40741 17.7481 5.40741 21.6293C5.40741 24.798 8.30172 27.6018 13.532 29.6106C13.5307 29.6552 13.5185 29.6958 13.5185 29.7404C13.5185 32.7226 15.9437 35.1478 18.9259 35.1478H19.0341C19.5343 38.618 21.9176 41.4785 25.1174 42.6641L24.5821 44.8054C21.9108 45.2948 19.3896 46.2289 17.055 47.5875L8.67078 39.2034H8.11111C5.329 39.2034 3.05789 41.3231 2.76319 44.0281C1.00848 45.9626 0 48.5203 0 51.1375V62.1848C0 63.6759 1.21261 64.8885 2.7037 64.8885H5.60883C5.48987 65.8456 5.40741 66.8095 5.40741 67.7856V68.9441C5.40741 72.6711 8.43961 75.7033 12.1667 75.7033H13.5185V83.8145H53.2819L48.6667 79.1992V68.5183L59.8492 74.6192C61.1524 75.3289 62.6245 75.7033 64.1075 75.7033C69.0107 75.7033 73 71.714 73 66.8109V32.4441C73 29.4619 70.5748 27.0367 67.5926 27.0367ZM28.2848 48.7745L24.9984 50.7455L23.7858 47.7146C24.3455 47.5754 24.916 47.4713 25.4905 47.378L28.2848 48.7745ZM36.6595 47.3956L38.3561 47.8201L37.1867 50.7455L33.9004 48.7745L36.6595 47.3956ZM33.1623 32.4441C35.1671 32.4441 36.8934 33.9406 37.1759 35.9265L37.6612 39.3264C36.5635 40.0956 35.2347 40.5552 33.7963 40.5552H28.3889C26.9505 40.5552 25.6216 40.0956 24.5239 39.3264L25.0093 35.9265C25.2918 33.9406 27.0168 32.4441 29.0229 32.4441H33.1623ZM43.2593 32.4441V27.0367C44.7504 27.0367 45.963 28.2493 45.963 29.7404C45.963 31.2315 44.7504 32.4441 43.2593 32.4441ZM24.3441 3.07918C28.7066 2.58035 33.48 2.58035 37.841 3.07918C39.5849 3.28061 41.0044 4.56081 41.3707 6.26279L41.3775 6.29118C34.9143 5.16374 27.2696 5.16374 20.8077 6.29118L20.8145 6.26279C21.1808 4.56081 22.6003 3.28196 24.3441 3.07918ZM20.1899 9.15846C26.9073 7.81336 35.2793 7.81336 41.9966 9.15846L42.586 11.8933C39.1604 11.2052 35.282 10.8145 31.0926 10.8145C26.9032 10.8145 23.0247 11.2052 19.5991 11.8933L20.1899 9.15846ZM16.2222 29.7404C16.2222 28.2493 17.4348 27.0367 18.9259 27.0367V32.4441C17.4348 32.4441 16.2222 31.2315 16.2222 29.7404ZM18.9259 24.1356V24.333C16.9428 24.333 15.2259 25.4172 14.2837 27.011C10.4066 25.4848 8.11111 23.5165 8.11111 21.6293C8.11111 17.7927 17.5484 13.5182 31.0926 13.5182C44.6368 13.5182 54.0741 17.7927 54.0741 21.6293C54.0741 23.5165 51.7786 25.4848 47.9015 27.011C46.9593 25.4172 45.2424 24.333 43.2593 24.333V24.1356C43.2593 19.7718 39.7093 16.2219 35.3455 16.2219C34.1261 16.2219 32.9014 16.5112 31.8064 17.0573L31.0926 17.4142L30.3788 17.0573C29.2838 16.5112 28.0604 16.2219 26.8397 16.2219C22.4759 16.2219 18.9259 19.7718 18.9259 24.1356ZM21.6296 33.796V24.1356C21.6296 21.2629 23.967 18.9256 26.8397 18.9256C27.6427 18.9256 28.4484 19.1162 29.1703 19.4758L31.0926 20.437L33.0136 19.4758C33.7355 19.1162 34.5425 18.9256 35.3455 18.9256C38.2182 18.9256 40.5556 21.2629 40.5556 24.1356V33.796C40.5556 34.7544 40.3487 35.6629 39.9878 36.4888L39.8526 35.5439C39.3808 32.2359 36.5041 29.7404 33.1623 29.7404H32.4444V27.0367H29.7407V29.7404H29.0229C25.6811 29.7404 22.8044 32.2359 22.3326 35.5439L22.1974 36.4888C21.8365 35.6629 21.6296 34.7544 21.6296 33.796ZM28.3889 43.2589H33.7963C34.0072 43.2589 34.2154 43.2413 34.4222 43.2278L34.9251 45.238L31.0926 47.1549L27.2601 45.238L27.763 43.2278C27.9698 43.2413 28.178 43.2589 28.3889 43.2589ZM21.2092 48.5501L23.337 53.8696L19.0341 49.5667C19.7411 49.1854 20.4643 48.8434 21.2092 48.5501ZM25.2891 63.3731L25.0093 63.6529L10.8662 49.5099C11.073 48.427 11.9274 47.5727 13.0102 47.3658L27.859 62.2146C26.8897 62.2849 25.9826 62.6783 25.2891 63.3731ZM7.60011 41.9557L10.9392 45.2948C10.0334 45.7923 9.29263 46.5331 8.79515 47.4388L5.45607 44.0998C5.66291 43.0169 6.51728 42.1626 7.60011 41.9557ZM6.10902 62.1848H2.7037V51.1375C2.7037 49.518 3.22146 47.9296 4.14478 46.6115L10.6269 53.0936C8.45719 55.7757 6.92419 58.8741 6.10902 62.1848ZM8.11111 68.9441V67.7856C8.11111 63.1271 9.68602 58.6497 12.5452 55.0133L22.4218 64.8885H16.2222V62.1848H13.5185V64.8885H10.8148V67.5922H24.893L27.2006 65.2846C27.4534 65.0318 27.8008 64.8885 28.1564 64.8885H31.0926C31.8388 64.8885 32.4444 65.4942 32.4444 66.2404V71.6478C32.4444 72.394 31.8388 72.9996 31.0926 72.9996H12.1667C9.9307 72.9996 8.11111 71.1801 8.11111 68.9441ZM16.2222 75.7033H31.0926C31.7171 75.7033 32.3011 75.5506 32.8297 75.2964L38.644 81.1108H16.2222V75.7033ZM42.4671 81.1108L34.7412 73.3849C34.9954 72.8563 35.1481 72.2723 35.1481 71.6478V69.5038L46.7551 81.1108H42.4671ZM45.963 62.1848V76.4955L35.0846 65.6172C34.8142 63.8814 33.4502 62.5174 31.7144 62.247L23.9778 54.5104L31.0926 50.2426L38.517 54.6983L40.9881 48.5203C45.141 49.7613 49.083 51.8107 52.46 54.5144L56.1857 57.4939L51.0513 66.7379L48.6667 65.4387V62.1848H45.963ZM70.2963 66.8109C70.2963 70.2229 67.5196 72.9996 64.1075 72.9996C63.0747 72.9996 62.0513 72.7387 61.1443 72.244L53.4238 68.0316L58.327 59.2054L59.2828 59.9705L58.154 65.9889L60.8104 66.4878L64.9984 44.1565L63.3748 42.533C62.6083 41.7692 62.1852 40.7512 62.1852 39.667V36.4997C62.1852 35.7534 62.7908 35.1478 63.537 35.1478C64.2833 35.1478 64.8889 35.7534 64.8889 36.4997V37.8515H67.5926V36.4997C67.5926 34.7395 66.4584 33.2525 64.8889 32.6928V32.4441C64.8889 30.953 66.1015 29.7404 67.5926 29.7404C69.0837 29.7404 70.2963 30.953 70.2963 32.4441V66.8109Z" fill="white"/>
<path d="M29.7407 54.0733H32.4444V56.777H29.7407V54.0733Z" fill="white"/>
</mask>
<g mask="url(#mask0_258_581)">
<path d="M5.17431 25.4978L2.19092 7.5974L11.1411 -8.81128L24.5664 -13.2864C33.0194 -12.2919 50.2236 -10.303 51.417 -10.303C52.6103 -10.303 58.8755 -5.33065 61.8589 -2.84449L64.8423 12.0725L60.3672 21.0227L45.4502 37.4314L31.0011 55.0002L18.5996 40.4148L5.17431 25.4978Z" fill="#4B4B4B" fill-opacity="0.38"/>
</g>
</svg>
