<svg width="64" height="64" viewBox="0 0 64 64" fill="none" xmlns="http://www.w3.org/2000/svg">
<path d="M24 21C24.5523 21 25 20.5523 25 20C25 19.4477 24.5523 19 24 19C23.4477 19 23 19.4477 23 20C23 20.5523 23.4477 21 24 21Z" fill="#1C1D1C"/>
<path d="M32 21C32.5523 21 33 20.5523 33 20C33 19.4477 32.5523 19 32 19C31.4477 19 31 19.4477 31 20C31 20.5523 31.4477 21 32 21Z" fill="#1C1D1C"/>
<path d="M55 20.9997C52.794 20.9997 51 22.7937 51 24.9997V25.1837C49.839 25.5977 49 26.6977 49 27.9997V30.3427C49 31.6787 49.521 32.9347 50.465 33.8787L50.92 34.3337L49.27 43.1347L45.056 39.7637C42.046 37.3557 38.478 35.5887 34.738 34.6547L32.825 34.1767L32.42 32.5597C34.787 31.6838 36.55 29.5667 36.92 26.9997H37C39.206 26.9997 41 25.2057 41 22.9997C41 22.9667 40.991 22.9367 40.99 22.9037C44.859 21.4177 47 19.3438 47 16.9997C47 14.1287 43.758 11.7037 38.656 10.2997L37.558 5.21175C37.106 3.11375 35.363 1.53775 33.22 1.29175C29.841 0.90275 26.157 0.90275 22.779 1.29175C20.636 1.53775 18.893 3.11375 18.441 5.21175L17.344 10.2997C12.242 11.7037 9 14.1287 9 16.9997C9 19.3438 11.141 21.4177 15.01 22.9037C15.009 22.9367 15 22.9667 15 22.9997C15 25.2057 16.794 26.9997 19 26.9997H19.08C19.45 29.5667 21.213 31.6827 23.58 32.5597L23.184 34.1437C21.208 34.5057 19.343 35.1967 17.616 36.2017L11.414 29.9997H11C8.942 29.9997 7.262 31.5677 7.044 33.5687C5.746 34.9997 5 36.8917 5 38.8277V46.9997C5 48.1027 5.897 48.9997 7 48.9997H9.149C9.061 49.7077 9 50.4207 9 51.1427V51.9997C9 54.7567 11.243 56.9997 14 56.9997H15V62.9997H44.414L41 59.5857V51.6847L49.272 56.1977C50.236 56.7227 51.325 56.9997 52.422 56.9997C56.049 56.9997 59 54.0487 59 50.4217V24.9997C59 22.7937 57.206 20.9997 55 20.9997ZM25.923 37.0797L23.492 38.5377L22.595 36.2957C23.009 36.1927 23.431 36.1157 23.856 36.0467L25.923 37.0797ZM32.118 36.0597L33.373 36.3737L32.508 38.5377L30.077 37.0797L32.118 36.0597ZM29.531 24.9997C31.014 24.9997 32.291 26.1067 32.5 27.5757L32.859 30.0907C32.047 30.6597 31.064 30.9997 30 30.9997H26C24.936 30.9997 23.953 30.6597 23.141 30.0907L23.5 27.5757C23.709 26.1067 24.985 24.9997 26.469 24.9997H29.531ZM37 24.9997V20.9997C38.103 20.9997 39 21.8967 39 22.9997C39 24.1027 38.103 24.9997 37 24.9997ZM23.008 3.27775C26.235 2.90875 29.766 2.90875 32.992 3.27775C34.282 3.42675 35.332 4.37375 35.603 5.63275L35.608 5.65375C30.827 4.81975 25.172 4.81975 20.392 5.65375L20.397 5.63275C20.668 4.37375 21.718 3.42775 23.008 3.27775ZM19.935 7.77475C24.904 6.77975 31.097 6.77975 36.066 7.77475L36.502 9.79775C33.968 9.28875 31.099 8.99975 28 8.99975C24.901 8.99975 22.032 9.28875 19.498 9.79775L19.935 7.77475ZM17 22.9997C17 21.8967 17.897 20.9997 19 20.9997V24.9997C17.897 24.9997 17 24.1027 17 22.9997ZM19 18.8537V18.9997C17.533 18.9997 16.263 19.8018 15.566 20.9807C12.698 19.8517 11 18.3958 11 16.9997C11 14.1617 17.981 10.9997 28 10.9997C38.019 10.9997 45 14.1617 45 16.9997C45 18.3958 43.302 19.8517 40.434 20.9807C39.737 19.8018 38.467 18.9997 37 18.9997V18.8537C37 15.6257 34.374 12.9997 31.146 12.9997C30.244 12.9997 29.338 13.2137 28.528 13.6177L28 13.8817L27.472 13.6177C26.662 13.2137 25.757 12.9997 24.854 12.9997C21.626 12.9997 19 15.6257 19 18.8537ZM21 25.9997V18.8537C21 16.7287 22.729 14.9997 24.854 14.9997C25.448 14.9997 26.044 15.1407 26.578 15.4067L28 16.1177L29.421 15.4067C29.955 15.1407 30.552 14.9997 31.146 14.9997C33.271 14.9997 35 16.7287 35 18.8537V25.9997C35 26.7087 34.847 27.3807 34.58 27.9917L34.48 27.2927C34.131 24.8457 32.003 22.9997 29.531 22.9997H29V20.9997H27V22.9997H26.469C23.997 22.9997 21.869 24.8457 21.52 27.2927L21.42 27.9917C21.153 27.3807 21 26.7087 21 25.9997ZM26 32.9997H30C30.156 32.9997 30.31 32.9867 30.463 32.9767L30.835 34.4637L28 35.8817L25.165 34.4637L25.537 32.9767C25.69 32.9867 25.844 32.9997 26 32.9997ZM20.689 36.9137L22.263 40.8487L19.08 37.6657C19.603 37.3837 20.138 37.1307 20.689 36.9137ZM23.707 47.8787L23.5 48.0857L13.038 37.6237C13.191 36.8227 13.823 36.1907 14.624 36.0377L25.608 47.0217C24.891 47.0737 24.22 47.3647 23.707 47.8787ZM10.622 32.0357L13.092 34.5057C12.422 34.8737 11.874 35.4217 11.506 36.0917L9.036 33.6217C9.189 32.8207 9.821 32.1887 10.622 32.0357ZM9.519 46.9997H7V38.8277C7 37.6297 7.383 36.4547 8.066 35.4797L12.861 40.2747C11.256 42.2587 10.122 44.5507 9.519 46.9997ZM11 51.9997V51.1427C11 47.6967 12.165 44.3847 14.28 41.6947L21.586 48.9997H17V46.9997H15V48.9997H13V50.9997H23.414L25.121 49.2927C25.308 49.1057 25.565 48.9997 25.828 48.9997H28C28.552 48.9997 29 49.4477 29 49.9997V53.9997C29 54.5517 28.552 54.9997 28 54.9997H14C12.346 54.9997 11 53.6537 11 51.9997ZM17 56.9997H28C28.462 56.9997 28.894 56.8867 29.285 56.6987L33.586 60.9997H17V56.9997ZM36.414 60.9997L30.699 55.2847C30.887 54.8937 31 54.4617 31 53.9997V52.4137L39.586 60.9997H36.414ZM39 46.9997V57.5857L30.953 49.5387C30.753 48.2547 29.744 47.2457 28.46 47.0457L22.737 41.3227L28 38.1657L33.492 41.4617L35.32 36.8917C38.392 37.8097 41.308 39.3257 43.806 41.3257L46.562 43.5297L42.764 50.3677L41 49.4067V46.9997H39ZM57 50.4217C57 52.9457 54.946 54.9997 52.422 54.9997C51.658 54.9997 50.901 54.8067 50.23 54.4407L44.519 51.3247L48.146 44.7957L48.853 45.3617L48.018 49.8137L49.983 50.1827L53.081 33.6637L51.88 32.4627C51.313 31.8977 51 31.1447 51 30.3427V27.9997C51 27.4477 51.448 26.9997 52 26.9997C52.552 26.9997 53 27.4477 53 27.9997V28.9997H55V27.9997C55 26.6977 54.161 25.5977 53 25.1837V24.9997C53 23.8967 53.897 22.9997 55 22.9997C56.103 22.9997 57 23.8967 57 24.9997V50.4217Z" fill="#1C1D1C"/>
<path d="M27 41H29V43H27V41Z" fill="#1C1D1C"/>
</svg>
