<svg width="48" height="48" viewBox="0 0 48 48" fill="none" xmlns="http://www.w3.org/2000/svg">
<g clip-path="url(#clip0_1_534)">
<path d="M40.9687 14.1563C37.5732 14.1563 34.7321 16.5758 34.0788 19.7813H25.1707C24.9345 18.6218 24.4119 17.5661 23.6806 16.6897L28.1451 11.1087C28.5794 11.2603 29.0456 11.3438 29.5312 11.3438C31.8574 11.3438 33.7499 9.4512 33.7499 7.12504C33.7499 4.79887 31.8574 2.9063 29.5312 2.9063C27.205 2.9063 25.3125 4.79887 25.3125 7.12504C25.3125 7.94169 25.5465 8.70414 25.9497 9.35086L21.4848 14.9319C20.5235 14.4375 19.4348 14.1563 18.2812 14.1563C17.1277 14.1563 16.0389 14.4375 15.0776 14.9319L10.6128 9.35086C11.016 8.70414 11.25 7.94169 11.25 7.12504C11.25 4.79887 9.3574 2.9063 7.03124 2.9063C4.70507 2.9063 2.81249 4.79887 2.81249 7.12504C2.81249 9.4512 4.70507 11.3438 7.03124 11.3438C7.51683 11.3438 7.98302 11.2603 8.41734 11.1087L12.8818 16.6897C11.8637 17.9096 11.25 19.478 11.25 21.1875C11.25 22.897 11.8637 24.4655 12.8818 25.6857L10.2348 28.9944C9.27354 28.5 8.1848 28.2187 7.03124 28.2187C3.15417 28.2187 0 31.3729 0 35.25C0 39.127 3.15417 42.2812 7.03124 42.2812C10.9083 42.2812 14.0625 39.127 14.0625 35.25C14.0625 33.5405 13.4487 31.972 12.4306 30.7522L15.0776 27.4431C16.0389 27.9379 17.1277 28.2187 18.2812 28.2187C19.0481 28.2187 19.786 28.0935 20.4777 27.8657L26.3386 38.1222C25.6999 38.8615 25.3125 39.8236 25.3125 40.875C25.3125 43.2011 27.205 45.0937 29.5312 45.0937C31.8574 45.0937 33.7499 43.2011 33.7499 40.875C33.7499 38.5488 31.8574 36.6562 29.5312 36.6562C29.2745 36.6562 29.0236 36.6804 28.7794 36.7247L22.9174 26.4668C24.0483 25.4729 24.8591 24.1234 25.1711 22.5938H34.0792C34.7321 25.7992 37.5732 28.2187 40.9687 28.2187C44.8457 28.2187 47.9999 25.0646 47.9999 21.1875C47.9999 17.3104 44.8457 14.1563 40.9687 14.1563ZM30.9374 40.875C30.9374 41.6506 30.3065 42.2812 29.5312 42.2812C28.7559 42.2812 28.1249 41.6506 28.1249 40.875C28.1249 40.0997 28.7559 39.4687 29.5312 39.4687C30.3065 39.4687 30.9374 40.0997 30.9374 40.875ZM29.5312 5.71879C30.3065 5.71879 30.9374 6.34977 30.9374 7.12504C30.9374 7.90067 30.3065 8.53128 29.5312 8.53128C28.7559 8.53128 28.1249 7.90067 28.1249 7.12504C28.1249 6.34977 28.7559 5.71879 29.5312 5.71879ZM5.62499 7.12504C5.62499 6.34977 6.25597 5.71879 7.03124 5.71879C7.8065 5.71879 8.43748 6.34977 8.43748 7.12504C8.43748 7.90067 7.8065 8.53128 7.03124 8.53128C6.25597 8.53128 5.62499 7.90067 5.62499 7.12504ZM7.03124 39.4687C4.70507 39.4687 2.81249 37.5761 2.81249 35.25C2.81249 32.9238 4.70507 31.0312 7.03124 31.0312C9.3574 31.0312 11.25 32.9238 11.25 35.25C11.25 37.5761 9.3574 39.4687 7.03124 39.4687ZM14.0625 21.1875C14.0625 18.8613 15.955 16.9688 18.2812 16.9688C20.6074 16.9688 22.5 18.8613 22.5 21.1875C22.5 23.5137 20.6074 25.4063 18.2812 25.4063C15.955 25.4063 14.0625 23.5137 14.0625 21.1875ZM40.9687 25.4063C38.6429 25.4063 36.7507 23.5144 36.7499 21.1886C36.7499 21.1882 36.7499 21.1879 36.7499 21.1875C36.7499 21.1871 36.7499 21.1868 36.7499 21.1864C36.7507 18.8606 38.6429 16.9688 40.9687 16.9688C43.2948 16.9688 45.1874 18.8613 45.1874 21.1875C45.1874 23.5137 43.2948 25.4063 40.9687 25.4063Z" fill="#4B4B4B" fill-opacity="0.38"/>
</g>
<defs>
<clipPath id="clip0_1_534">
<rect width="48" height="48" fill="white"/>
</clipPath>
</defs>
</svg>
