<svg width="142" height="118" viewBox="0 0 142 118" fill="none" xmlns="http://www.w3.org/2000/svg">
<path d="M123.218 81.3852C111.899 95.1532 99.4085 101.467 86.9389 105.565C79.431 108.029 72.2793 108.454 67.7732 108.401C72.0658 102.006 77.899 85.7495 78.0725 85.395C85.0074 71.4334 93.1935 62.3253 98.838 57.1477C104.945 51.5512 109.474 49.2055 109.549 49.1723C110.537 48.6735 110.933 47.4649 110.434 46.4773C109.936 45.4896 108.727 45.093 107.739 45.5918C107.54 45.6951 102.769 48.1314 96.2697 54.0622C92.4874 57.5153 88.8791 61.4572 85.5494 65.7832C83.2359 68.7842 81.0587 71.9768 79.0283 75.3308C79.8854 64.6559 78.3166 54.4735 74.847 45.6801C76.385 43.9197 77.8716 42.4179 79.2621 40.8383C100.928 16.1432 136.144 18.197 136.144 18.197C136.144 18.197 143.746 56.4181 123.216 81.3976L123.218 81.3852Z" fill="#F3F5F4"/>
<path d="M123.338 80.4519L122.832 81.0677C111.59 94.7417 99.1916 101.012 86.783 105.09C79.8296 107.372 73.1785 107.89 68.6871 107.905C70.7482 104.578 73.0674 99.3561 74.93 94.823C75.9404 92.3638 76.8216 90.0944 77.4609 88.4182C77.774 87.5972 78.0291 86.9183 78.2128 86.4294L78.2243 86.399C78.3166 86.1531 78.3899 85.9583 78.4427 85.8194C78.4827 85.7144 78.5056 85.656 78.5156 85.6305C78.5205 85.6181 78.5223 85.6135 78.5216 85.6149L78.0725 85.395M123.338 80.4519L98.838 57.1477C93.1935 62.3253 85.0074 71.4334 78.0725 85.395M123.338 80.4519C133.106 68.1805 136.227 52.8187 136.879 40.4038C137.21 34.0954 136.903 28.563 136.513 24.6084C136.318 22.6315 136.103 21.0498 135.936 19.9639C135.853 19.4209 135.782 19.0019 135.732 18.7195C135.729 18.7059 135.727 18.6926 135.725 18.6796C135.466 18.6707 135.082 18.6609 134.584 18.6569C133.588 18.6491 132.138 18.6651 130.329 18.7612C126.711 18.9534 121.66 19.4655 115.937 20.7449C104.485 23.305 90.3766 28.9282 79.6379 41.1681L79.6374 41.1687C78.9776 41.9182 78.2968 42.6498 77.6049 43.3934C77.562 43.4395 77.519 43.4857 77.476 43.532C76.8027 44.2557 76.1182 44.9938 75.4236 45.7813C78.6277 54.0257 80.1784 63.4572 79.6603 73.357M123.338 80.4519L79.6603 73.357M78.0725 85.395L78.5203 85.6175C85.4237 71.7193 93.5691 62.6592 99.176 57.5162C102.21 54.7361 104.849 52.7655 106.736 51.4878C108.583 50.2366 109.696 49.6581 109.75 49.6303C109.751 49.6295 109.752 49.6292 109.752 49.6292L109.763 49.6242L109.774 49.6186C111.009 48.9952 111.504 47.4857 110.881 46.2519C110.257 45.0174 108.748 44.5224 107.514 45.1454L107.509 45.1478L107.501 45.1522C107.184 45.3162 102.405 47.7864 95.9326 53.6929L95.9326 53.693C92.1276 57.1667 88.4998 61.1303 85.1534 65.4779L68.0975 107.904C71.797 102.081 76.4739 89.6353 77.745 86.2529C77.9362 85.744 78.0504 85.4402 78.0725 85.395ZM79.6603 73.357C81.3927 70.6107 83.2257 67.9786 85.1533 65.4781L79.6603 73.357Z" stroke="#7E7E7E" stroke-opacity="0.05"/>
<path d="M63.3002 108.168C63.3002 108.168 62.7617 108.081 61.8117 107.863L42.1497 47.8514C41.8066 46.7983 40.6693 46.2222 39.6161 46.5653C38.563 46.9084 37.9869 48.0458 38.3301 49.0989L57.1606 106.576C52.8719 105.198 46.8958 102.769 41.1339 98.6981C30.4122 91.1263 20.3195 81.4297 13.5314 64.9498C1.22126 35.0516 19.6878 0.734895 19.6878 0.734895C19.6878 0.734895 53.9595 9.08877 67.4397 39.0481C70.8886 46.7098 76.2354 53.6795 74.2595 79.2316C72.8503 97.4445 63.3021 108.155 63.3021 108.155L63.3002 108.168Z" fill="#F3F5F4"/>
<path d="M56.3773 105.791L37.8549 49.2546L37.8547 49.2538C37.4263 47.939 38.1447 46.5189 39.4612 46.0899C40.7758 45.6616 42.1956 46.3797 42.6248 47.6957L56.3773 105.791ZM56.3773 105.791C52.2114 104.38 46.7229 102.035 41.4224 98.2897L41.4223 98.2896C30.753 90.7548 20.7355 81.1269 13.9938 64.7594C7.89665 49.9511 9.41265 34.0196 12.4784 21.7517C14.0099 15.6232 15.9246 10.4235 17.4561 6.75674C18.2218 4.92369 18.8913 3.47461 19.3687 2.4851C19.6074 1.99037 19.798 1.61059 19.9286 1.35521C19.9349 1.3429 19.9411 1.33087 19.9471 1.31913C20.1973 1.38655 20.5674 1.48962 21.044 1.63156C21.9987 1.9159 23.3804 2.3561 25.0817 2.97792C28.485 4.22179 33.164 6.19117 38.2614 9.09134C48.461 14.8943 60.3024 24.4042 66.9837 39.2533L66.9838 39.2534C67.4073 40.1942 67.8553 41.1176 68.3123 42.0598C69.7407 45.0041 71.2584 48.1324 72.3998 52.5559C73.9031 58.382 74.7461 66.4544 73.761 79.1931C73.0626 88.2198 70.3474 95.3859 67.8083 100.294C66.5388 102.747 65.314 104.635 64.4087 105.907C63.9561 106.543 63.5835 107.025 63.3253 107.347C63.2354 107.459 63.1594 107.551 63.0987 107.624C63.0703 107.618 63.0398 107.613 63.0072 107.606C62.8099 107.568 62.5377 107.513 62.1985 107.437L42.6251 47.6965L56.3773 105.791Z" stroke="#7E7E7E" stroke-opacity="0.05"/>
</svg>
