<svg width="1340" height="123" viewBox="0 0 1340 123" fill="none" xmlns="http://www.w3.org/2000/svg">
<path fill-rule="evenodd" clip-rule="evenodd" d="M149 6C146 0 139.814 0 136.5 0H43C39.6863 0 37 2.68629 37 6C37 9.31371 34.3137 12 31 12H9H7C4.79086 12 3 13.7909 3 16V61C3 62.1046 3.89546 63 5.00003 63H9H456C472.016 63 485 75.9837 485 92C485 100.837 492.163 108 501 108H1286C1294.84 108 1302 100.837 1302 92C1302 75.9837 1314.98 63 1331 63H1337H1339C1341.21 63 1343 61.2091 1343 59V28C1343 25.7909 1341.21 24 1339 24H1337H208L181.5 12H163C152 12 152 11 149 6Z" fill="#E1E1E1"/>
<path d="M3 12H7V20H3V12Z" fill="#E1E1E1"/>
<path fill-rule="evenodd" clip-rule="evenodd" d="M9 21C6.79086 21 5 22.7909 5 25V65C5 67.2091 6.79087 69 9.00001 69H438C458.987 69 476 86.0132 476 107C476 115.837 483.163 123 492 123H1288C1296.84 123 1304 115.837 1304 107V97C1304 81.536 1316.54 69 1332 69C1334.21 69 1336 67.2091 1336 65V25C1336 22.7909 1334.21 21 1332 21H9Z" fill="#E1E1E1"/>
<path fill-rule="evenodd" clip-rule="evenodd" d="M146 12C143 6 136.814 6 133.5 6H40C36.6863 6 34 8.68629 34 12C34 15.3137 31.3137 18 28 18H6H4C1.79086 18 0 19.7909 0 22V67C0 68.1046 0.895461 69 2.00003 69H6H453C469.016 69 482 81.9837 482 98C482 106.837 489.163 114 498 114H1283C1291.84 114 1299 106.837 1299 98C1299 81.9837 1311.98 69 1328 69H1334H1336C1338.21 69 1340 67.2091 1340 65V22C1340 19.7909 1338.21 18 1336 18H1334H160C149 18 149 17 146 12Z" fill="#22B573"/>
<path d="M0 18H4V26H0V18Z" fill="#22B573"/>
<g opacity="0.24">
<mask id="mask0_281_309" style="mask-type:alpha" maskUnits="userSpaceOnUse" x="5" y="17" width="1263" height="96">
<path fill-rule="evenodd" clip-rule="evenodd" d="M1268 17H5V102H468.991C471.09 108.388 477.103 113 484.194 113H1191.99C1199.08 113 1205.09 108.388 1207.19 102H1207.33C1208.74 94.5974 1215.24 89 1223.05 89H1268V17Z" fill="#F3F5F4"/>
</mask>
<g mask="url(#mask0_281_309)">
<path d="M671.218 99.3852C659.899 113.153 647.408 119.467 634.939 123.565C627.431 126.029 620.279 126.454 615.773 126.401C620.066 120.006 625.899 103.749 626.072 103.395C633.007 89.4334 641.193 80.3253 646.838 75.1477C652.945 69.5512 657.474 67.2055 657.549 67.1723C658.536 66.6735 658.933 65.4649 658.434 64.4773C657.935 63.4896 656.727 63.093 655.739 63.5918C655.54 63.6951 650.769 66.1314 644.269 72.0622C640.487 75.5153 636.879 79.4572 633.549 83.7832C631.236 86.7842 629.058 89.9768 627.028 93.3308C627.885 82.6559 626.316 72.4735 622.847 63.6801C624.385 61.9197 625.871 60.4179 627.262 58.8383C648.928 34.1432 684.143 36.197 684.143 36.197C684.143 36.197 691.745 74.4181 671.216 99.3976L671.218 99.3852Z" fill="#F3F5F4"/>
<path d="M671.338 98.4519L670.831 99.0677C659.59 112.742 647.191 119.012 634.783 123.09C627.829 125.372 621.178 125.89 616.687 125.905C618.748 122.578 621.067 117.356 622.93 112.823C623.94 110.364 624.821 108.094 625.461 106.418C625.774 105.597 626.029 104.918 626.213 104.429L626.224 104.399C626.316 104.153 626.39 103.958 626.442 103.819C626.482 103.714 626.505 103.656 626.515 103.63C626.52 103.618 626.522 103.613 626.521 103.615L626.072 103.395M671.338 98.4519L646.838 75.1477C641.193 80.3253 633.007 89.4334 626.072 103.395M671.338 98.4519C681.105 86.1805 684.227 70.8187 684.879 58.4038C685.21 52.0954 684.903 46.563 684.513 42.6084C684.318 40.6315 684.102 39.0498 683.936 37.9639C683.852 37.4209 683.781 37.0019 683.731 36.7195C683.729 36.7059 683.727 36.6926 683.724 36.6796C683.465 36.6707 683.081 36.6609 682.584 36.6569C681.588 36.6491 680.138 36.6651 678.329 36.7612C674.711 36.9534 669.66 37.4655 663.937 38.7449C652.484 41.305 638.376 46.9282 627.638 59.1681L627.637 59.1687C626.977 59.9182 626.297 60.6498 625.605 61.3934C625.562 61.4395 625.519 61.4857 625.476 61.532C624.802 62.2557 624.118 62.9938 623.423 63.7813C626.627 72.0257 628.178 81.4572 627.66 91.357M671.338 98.4519L627.66 91.357M626.072 103.395L626.52 103.617C633.423 89.7193 641.569 80.6592 647.176 75.5162C650.209 72.7361 652.849 70.7655 654.736 69.4878C656.583 68.2366 657.696 67.6581 657.75 67.6303C657.751 67.6295 657.752 67.6292 657.752 67.6292L657.763 67.6242L657.774 67.6186C659.009 66.9952 659.504 65.4857 658.88 64.2519C658.257 63.0174 656.748 62.5224 655.514 63.1454L655.509 63.1478L655.501 63.1522C655.183 63.3162 650.405 65.7864 643.932 71.6929L643.932 71.693C640.127 75.1667 636.5 79.1303 633.153 83.4779L616.097 125.904C619.797 120.081 624.474 107.635 625.745 104.253C625.936 103.744 626.05 103.44 626.072 103.395ZM627.66 91.357C629.392 88.6107 631.225 85.9786 633.153 83.4781L627.66 91.357Z" stroke="#7E7E7E" stroke-opacity="0.05"/>
<path d="M611.3 126.168C611.3 126.168 610.762 126.081 609.812 125.863L590.15 65.8514C589.807 64.7983 588.669 64.2222 587.616 64.5653C586.563 64.9084 585.987 66.0458 586.33 67.0989L605.161 124.576C600.872 123.198 594.896 120.769 589.134 116.698C578.412 109.126 568.319 99.4297 561.531 82.9498C549.221 53.0516 567.688 18.7349 567.688 18.7349C567.688 18.7349 601.959 27.0888 615.44 57.0481C618.889 64.7098 624.235 71.6795 622.26 97.2316C620.85 115.445 611.302 126.155 611.302 126.155L611.3 126.168Z" fill="#F3F5F4"/>
<path d="M604.377 123.791L585.855 67.2546L585.855 67.2538C585.426 65.939 586.145 64.5189 587.461 64.0899C588.776 63.6616 590.196 64.3797 590.625 65.6957L604.377 123.791ZM604.377 123.791C600.211 122.38 594.723 120.035 589.422 116.29L589.422 116.29C578.753 108.755 568.736 99.1269 561.994 82.7594C555.897 67.9511 557.413 52.0196 560.478 39.7517C562.01 33.6232 563.925 28.4235 565.456 24.7567C566.222 22.9237 566.891 21.4746 567.369 20.4851C567.607 19.9904 567.798 19.6106 567.929 19.3552C567.935 19.3429 567.941 19.3309 567.947 19.3191C568.197 19.3865 568.567 19.4896 569.044 19.6316C569.999 19.9159 571.38 20.3561 573.082 20.9779C576.485 22.2218 581.164 24.1912 586.261 27.0913C596.461 32.8943 608.302 42.4042 614.984 57.2533L614.984 57.2534C615.407 58.1942 615.855 59.1176 616.312 60.0598C617.741 63.0041 619.258 66.1324 620.4 70.5559C621.903 76.382 622.746 84.4544 621.761 97.1931C621.063 106.22 618.347 113.386 615.808 118.294C614.539 120.747 613.314 122.635 612.409 123.907C611.956 124.543 611.583 125.025 611.325 125.347C611.235 125.459 611.159 125.551 611.099 125.624C611.07 125.618 611.04 125.613 611.007 125.606C610.81 125.568 610.538 125.513 610.199 125.437L590.625 65.6965L604.377 123.791Z" stroke="#7E7E7E" stroke-opacity="0.05"/>
</g>
</g>
</svg>
