<svg width="33" height="33" viewBox="0 0 33 33" fill="none" xmlns="http://www.w3.org/2000/svg">
<path d="M28.5069 22.2973H4.49445C3.53917 22.2973 2.62302 22.6732 1.94754 23.3422C1.27206 24.0113 0.892578 24.9187 0.892578 25.8649V29.4324C0.892578 30.3786 1.27206 31.286 1.94754 31.9551C2.62302 32.6241 3.53917 33 4.49445 33H28.5069C29.4622 33 30.3784 32.6241 31.0538 31.9551C31.7293 31.286 32.1088 30.3786 32.1088 29.4324V25.8649C32.1088 24.9187 31.7293 24.0113 31.0538 23.3422C30.3784 22.6732 29.4622 22.2973 28.5069 22.2973ZM29.7075 29.4324C29.7075 29.7478 29.5811 30.0503 29.3559 30.2733C29.1307 30.4963 28.8253 30.6216 28.5069 30.6216H4.49445C4.17602 30.6216 3.87064 30.4963 3.64548 30.2733C3.42032 30.0503 3.29383 29.7478 3.29383 29.4324V25.8649C3.29383 25.5495 3.42032 25.247 3.64548 25.024C3.87064 24.801 4.17602 24.6757 4.49445 24.6757H28.5069C28.8253 24.6757 29.1307 24.801 29.3559 25.024C29.5811 25.247 29.7075 25.5495 29.7075 25.8649V29.4324Z" fill="#3E403F"/>
<path d="M22.9397 16.0451C23.0995 16.0447 23.2575 16.0067 23.4034 15.9335C23.5494 15.8604 23.6801 15.7537 23.7872 15.6204C23.9902 15.3676 24.0957 15.0346 24.0807 14.6945C24.0656 14.3543 23.9313 14.0348 23.707 13.8058C21.7288 11.8079 19.1632 10.7027 16.5035 10.7027C13.8439 10.7027 11.2782 11.8079 9.30009 13.8058C9.07381 14.0345 8.93764 14.3548 8.92153 14.6963C8.91355 14.8654 8.9353 15.0346 8.98551 15.1943C9.03573 15.3539 9.11344 15.5009 9.2142 15.6268C9.31496 15.7527 9.43681 15.8551 9.57278 15.9281C9.70875 16.0011 9.85618 16.0433 10.0067 16.0522C10.3106 16.0703 10.6084 15.952 10.8347 15.7234C12.3908 14.1497 14.4101 13.279 16.5035 13.279C18.597 13.279 20.6163 14.1497 22.1724 15.7234C22.3841 15.9332 22.6574 16.0478 22.9397 16.0451Z" fill="#3E403F"/>
<path d="M12.8176 18.3802C12.6115 18.6034 12.4934 18.9017 12.4875 19.2143C12.4816 19.5268 12.5884 19.8299 12.7859 20.0617C12.9835 20.2934 13.2569 20.4363 13.5504 20.461C13.8438 20.4857 14.135 20.3905 14.3645 20.1947C14.9537 19.661 15.7027 19.3679 16.477 19.3679C17.2514 19.3679 18.0004 19.661 18.5895 20.1947C18.8012 20.3991 19.0769 20.5127 19.363 20.5135C19.5957 20.5129 19.8228 20.4375 20.0145 20.2973C20.2063 20.1572 20.3536 19.9587 20.4372 19.728C20.5209 19.4973 20.5369 19.2452 20.4832 19.0047C20.4295 18.7641 20.3086 18.5465 20.1364 18.3802C19.1163 17.4545 17.8187 16.9459 16.477 16.9459C15.1353 16.9459 13.8377 17.4545 12.8176 18.3802Z" fill="#3E403F"/>
<path d="M26.4619 11.5852C26.7019 11.5846 26.9361 11.5128 27.1338 11.3793C27.3315 11.2459 27.4834 11.0569 27.5696 10.8372C27.6559 10.6175 27.6724 10.3774 27.617 10.1484C27.5617 9.91934 27.437 9.71205 27.2594 9.55373C24.1807 6.84775 20.192 5.35135 16.0579 5.35135C11.9238 5.35135 7.93517 6.84775 4.85643 9.55373C4.62161 9.75987 4.47973 10.0489 4.46187 10.3575C4.44402 10.6661 4.55166 10.969 4.7612 11.1999C4.86543 11.3157 4.99205 11.41 5.13371 11.4774C5.27538 11.5449 5.42927 11.5841 5.58649 11.5927C5.7437 11.6014 5.90111 11.5794 6.0496 11.528C6.19809 11.4766 6.33471 11.3969 6.45154 11.2933C9.09041 8.96975 12.5116 7.6845 16.0579 7.6845C19.6042 7.6845 23.0254 8.96975 25.6643 11.2933C25.8844 11.4837 26.1684 11.5876 26.4619 11.5852Z" fill="#3E403F"/>
<path d="M2.95753 6.82033C6.68862 3.82667 11.5208 2.17138 16.529 2.17138C21.5372 2.17138 26.3694 3.82667 30.1005 6.82033C30.3214 6.99491 30.6057 7.09141 30.9002 7.09179C31.1445 7.09122 31.3829 7.02448 31.5842 6.90034C31.7854 6.7762 31.9401 6.60044 32.0279 6.39614C32.1157 6.19183 32.1325 5.96852 32.0761 5.75549C32.0198 5.54247 31.8929 5.34968 31.7121 5.20243C27.5384 1.85242 22.1322 0 16.529 0C10.9258 0 5.51961 1.85242 1.34592 5.20243C1.21764 5.29468 1.11166 5.40936 1.03443 5.5395C0.957211 5.66963 0.910362 5.81249 0.896741 5.95937C0.883119 6.10626 0.903011 6.25409 0.955204 6.39386C1.0074 6.53363 1.0908 6.66242 1.20033 6.77237C1.30986 6.88233 1.44322 6.97115 1.59229 7.03343C1.74137 7.09571 1.90303 7.13015 2.06743 7.13463C2.23183 7.13912 2.39553 7.11357 2.54856 7.05953C2.70159 7.00549 2.84074 6.92411 2.95753 6.82033Z" fill="#3E403F"/>
<path d="M12.9963 26.7568H6.62569C6.28777 26.7568 5.96369 26.8977 5.72475 27.1486C5.4858 27.3995 5.35156 27.7398 5.35156 28.0946C5.35156 28.4494 5.4858 28.7897 5.72475 29.0406C5.96369 29.2915 6.28777 29.4324 6.62569 29.4324H12.9963C13.3343 29.4324 13.6583 29.2915 13.8973 29.0406C14.1362 28.7897 14.2705 28.4494 14.2705 28.0946C14.2705 27.7398 14.1362 27.3995 13.8973 27.1486C13.6583 26.8977 13.3343 26.7568 12.9963 26.7568Z" fill="#3E403F"/>
<path d="M26.4604 26.7568H25.2712C24.9558 26.7568 24.6534 26.8977 24.4303 27.1486C24.2073 27.3995 24.082 27.7398 24.082 28.0946C24.082 28.4494 24.2073 28.7897 24.4303 29.0406C24.6534 29.2915 24.9558 29.4324 25.2712 29.4324H26.4604C26.7758 29.4324 27.0783 29.2915 27.3013 29.0406C27.5243 28.7897 27.6496 28.4494 27.6496 28.0946C27.6496 27.7398 27.5243 27.3995 27.3013 27.1486C27.0783 26.8977 26.7758 26.7568 26.4604 26.7568Z" fill="#3E403F"/>
</svg>
